<svg width="45" height="43" viewBox="0 0 45 43" fill="none" xmlns="http://www.w3.org/2000/svg">
<g clip-path="url(#clip0)">
<path d="M22.5 43C34.9264 43 45 33.3741 45 21.5C45 9.62588 34.9264 0 22.5 0C10.0736 0 0 9.62588 0 21.5C0 33.3741 10.0736 43 22.5 43Z" fill="#A73D61"/>
<path d="M28.1565 20.6043H24.1416V34.6591H18.0588V20.6043H15.1658V15.6649H18.0588V12.4685C18.0588 10.1828 19.1951 6.60352 24.1958 6.60352L28.7016 6.62153V11.4161H25.4323C24.8961 11.4161 24.142 11.6721 24.142 12.7625V15.6695H28.6879L28.1565 20.6043Z" fill="#F8F8F8"/>
</g>
<defs>
<clipPath id="clip0">
<rect width="45" height="43" fill="white" transform="matrix(1 0 0 -1 0 43)"/>
</clipPath>
</defs>
</svg>
