<svg width="113" height="75" viewBox="0 0 113 75" fill="none" xmlns="http://www.w3.org/2000/svg">
<g clip-path="url(#clip0)">
<path d="M41.5759 27.9L38.9559 28.24V26.34L41.8959 25.06H44.5359V40H41.5759V27.9ZM51.3736 33H57.4936V35.4H51.3736V33ZM69.502 40.12C67.4087 40.12 65.522 39.98 63.842 39.7V37.32H68.382C69.222 37.32 69.822 37.22 70.182 37.02C70.5554 36.82 70.742 36.46 70.742 35.94V35.32C70.742 34.3867 70.0954 33.8933 68.802 33.84L65.162 33.7V31.42L68.682 31.22C69.3087 31.1933 69.782 31.08 70.102 30.88C70.422 30.68 70.582 30.3667 70.582 29.94V29.44C70.582 28.9067 70.402 28.5133 70.042 28.26C69.682 28.0067 69.0954 27.88 68.282 27.88H64.162V25.52C66.1887 25.2 67.9554 25.0533 69.462 25.08C70.7687 25.0933 71.7687 25.4133 72.462 26.04C73.1554 26.6533 73.502 27.5533 73.502 28.74V29.84C73.502 30.5733 73.3354 31.1667 73.002 31.62C72.6687 32.06 72.222 32.3733 71.662 32.56C72.2487 32.7333 72.7354 33.1 73.122 33.66C73.522 34.22 73.722 34.9067 73.722 35.72V36.48C73.722 37.6533 73.3487 38.5533 72.602 39.18C71.8687 39.8067 70.8354 40.12 69.502 40.12ZM13.8145 56.2773V60.1836C13.8145 61.4076 14.5013 62.0195 15.875 62.0195C16.474 62.0195 17.0404 61.9316 17.5742 61.7559C18.1146 61.5736 18.7135 61.2806 19.3711 60.877V56.2773H21.1289V67H19.3711V62.2246C18.6549 62.6868 18.0072 63.0091 17.4277 63.1914C16.8548 63.3737 16.2168 63.4648 15.5137 63.4648C14.446 63.4648 13.6029 63.1849 12.9844 62.625C12.3659 62.0651 12.0566 61.2904 12.0566 60.3008V56.2773H13.8145ZM29.0977 67.1953C27.4896 67.1953 26.2266 66.7103 25.3086 65.7402C24.3971 64.7637 23.9414 63.4225 23.9414 61.7168C23.9414 59.998 24.3678 58.6309 25.2207 57.6152C26.0736 56.5931 27.2259 56.082 28.6777 56.082C30.0254 56.082 31.0996 56.5182 31.9004 57.3906C32.7012 58.2565 33.1016 59.4316 33.1016 60.916V61.9805H25.7578C25.7904 63.1979 26.0996 64.1224 26.6855 64.7539C27.2715 65.3854 28.1016 65.7012 29.1758 65.7012C29.7487 65.7012 30.2923 65.6523 30.8066 65.5547C31.321 65.4505 31.9232 65.252 32.6133 64.959V66.502C32.0208 66.7559 31.4642 66.9349 30.9434 67.0391C30.4225 67.1432 29.8073 67.1953 29.0977 67.1953ZM28.6582 57.5176C27.8184 57.5176 27.1543 57.7878 26.666 58.3281C26.1777 58.8685 25.888 59.6204 25.7969 60.584H31.2559C31.2428 59.5814 31.0117 58.8197 30.5625 58.2988C30.1133 57.778 29.4785 57.5176 28.6582 57.5176ZM43.9902 67H42.2031V57.7422H39.0488C38.8665 60.0859 38.6191 61.9284 38.3066 63.2695C38.0007 64.6042 37.597 65.584 37.0957 66.209C36.6009 66.8275 35.9661 67.1367 35.1914 67.1367C34.7682 67.1367 34.459 67.0911 34.2637 67V65.6816C34.4004 65.7337 34.5827 65.7598 34.8105 65.7598C35.5267 65.7598 36.0964 65.0046 36.5195 63.4941C36.9492 61.9837 37.2845 59.5781 37.5254 56.2773H43.9902V67ZM56.7051 61.6191C56.7051 63.3704 56.2624 64.7376 55.377 65.7207C54.4915 66.7038 53.2676 67.1953 51.7051 67.1953C50.735 67.1953 49.8757 66.9707 49.127 66.5215C48.3783 66.0658 47.8021 65.4147 47.3984 64.5684C46.9948 63.722 46.793 62.7389 46.793 61.6191C46.793 59.8743 47.2292 58.5169 48.1016 57.5469C48.974 56.5703 50.1979 56.082 51.7734 56.082C53.2839 56.082 54.4818 56.5801 55.3672 57.5762C56.2591 58.5658 56.7051 59.9134 56.7051 61.6191ZM48.6094 61.6191C48.6094 62.9668 48.873 63.9922 49.4004 64.6953C49.9342 65.3919 50.7188 65.7402 51.7539 65.7402C52.776 65.7402 53.554 65.3919 54.0879 64.6953C54.6217 63.9922 54.8887 62.9668 54.8887 61.6191C54.8887 60.2715 54.6185 59.2591 54.0781 58.582C53.5443 57.8984 52.7598 57.5566 51.7246 57.5566C49.6478 57.5566 48.6094 58.9108 48.6094 61.6191ZM68.3164 58.9824C68.3164 59.6725 68.1211 60.1999 67.7305 60.5645C67.3398 60.9225 66.7832 61.1667 66.0605 61.2969V61.3848C66.9655 61.5085 67.623 61.7786 68.0332 62.1953C68.4499 62.6055 68.6582 63.1589 68.6582 63.8555C68.6582 64.8711 68.2839 65.6491 67.5352 66.1895C66.793 66.7298 65.722 67 64.3223 67H59.498V56.2773H64.3027C66.9785 56.2773 68.3164 57.179 68.3164 58.9824ZM66.9004 63.7578C66.9004 63.1589 66.666 62.7389 66.1973 62.498C65.7285 62.2572 65.0417 62.1367 64.1367 62.1367H61.2559V65.584H64.1758C65.9922 65.584 66.9004 64.9753 66.9004 63.7578ZM66.5977 59.1387C66.5977 58.6374 66.4023 58.2793 66.0117 58.0645C65.6276 57.8496 65.0449 57.7422 64.2637 57.7422H61.2559V60.6816H63.9414C64.8984 60.6816 65.5788 60.5645 65.9824 60.3301C66.3926 60.0892 66.5977 59.6921 66.5977 59.1387ZM75.582 67.1953C73.974 67.1953 72.7109 66.7103 71.793 65.7402C70.8815 64.7637 70.4258 63.4225 70.4258 61.7168C70.4258 59.998 70.8522 58.6309 71.7051 57.6152C72.5579 56.5931 73.7103 56.082 75.1621 56.082C76.5098 56.082 77.584 56.5182 78.3848 57.3906C79.1855 58.2565 79.5859 59.4316 79.5859 60.916V61.9805H72.2422C72.2747 63.1979 72.584 64.1224 73.1699 64.7539C73.7559 65.3854 74.5859 65.7012 75.6602 65.7012C76.2331 65.7012 76.7767 65.6523 77.291 65.5547C77.8053 65.4505 78.4076 65.252 79.0977 64.959V66.502C78.5052 66.7559 77.9486 66.9349 77.4277 67.0391C76.9069 67.1432 76.2917 67.1953 75.582 67.1953ZM75.1426 57.5176C74.3027 57.5176 73.6387 57.7878 73.1504 58.3281C72.6621 58.8685 72.3724 59.6204 72.2812 60.584H77.7402C77.7272 59.5814 77.4961 58.8197 77.0469 58.2988C76.5977 57.778 75.9629 57.5176 75.1426 57.5176ZM88.6484 56.2773H90.5723L85.9922 61.4434L90.9531 67H88.9121L84.0684 61.5605V67H82.3105V56.2773H84.0684V61.4824L88.6484 56.2773ZM99.5176 67L99.1758 65.4766H99.0977C98.5638 66.1471 98.0299 66.6029 97.4961 66.8438C96.9688 67.0781 96.3014 67.1953 95.4941 67.1953C94.4395 67.1953 93.6126 66.9186 93.0137 66.3652C92.4147 65.8118 92.1152 65.0306 92.1152 64.0215C92.1152 61.847 93.8307 60.7077 97.2617 60.6035L99.0781 60.5352V59.9004C99.0781 59.0866 98.9023 58.4876 98.5508 58.1035C98.1992 57.7129 97.6361 57.5176 96.8613 57.5176C96.2949 57.5176 95.7578 57.6022 95.25 57.7715C94.7487 57.9408 94.2767 58.1296 93.834 58.3379L93.2969 57.0195C93.8372 56.7331 94.4264 56.5085 95.0645 56.3457C95.7025 56.1829 96.334 56.1016 96.959 56.1016C98.2546 56.1016 99.2181 56.388 99.8496 56.9609C100.481 57.5339 100.797 58.4453 100.797 59.6953V67H99.5176ZM95.8945 65.7793C96.8776 65.7793 97.6491 65.5156 98.209 64.9883C98.7754 64.4544 99.0586 63.6992 99.0586 62.7227V61.7559L97.4766 61.8242C96.2461 61.8698 95.3477 62.0651 94.7812 62.4102C94.2214 62.7552 93.9414 63.2988 93.9414 64.041C93.9414 64.6009 94.1107 65.0306 94.4492 65.3301C94.7943 65.6296 95.276 65.7793 95.8945 65.7793Z" fill="#A16646"/>
<path d="M1.59375 1.57812H5.14844C6.76823 1.57812 7.94271 1.8099 8.67188 2.27344C9.40625 2.73177 9.77344 3.46354 9.77344 4.46875C9.77344 5.15104 9.61198 5.71094 9.28906 6.14844C8.97135 6.58594 8.54688 6.84896 8.01562 6.9375V7.01562C8.73958 7.17708 9.26042 7.47917 9.57812 7.92188C9.90104 8.36458 10.0625 8.95312 10.0625 9.6875C10.0625 10.7292 9.6849 11.5417 8.92969 12.125C8.17969 12.7083 7.15885 13 5.86719 13H1.59375V1.57812ZM4.01562 6.10156H5.42188C6.07812 6.10156 6.55208 6 6.84375 5.79688C7.14062 5.59375 7.28906 5.25781 7.28906 4.78906C7.28906 4.35156 7.1276 4.03906 6.80469 3.85156C6.48698 3.65885 5.98177 3.5625 5.28906 3.5625H4.01562V6.10156ZM4.01562 8.02344V11H5.59375C6.26042 11 6.7526 10.8724 7.07031 10.6172C7.38802 10.362 7.54688 9.97135 7.54688 9.44531C7.54688 8.4974 6.86979 8.02344 5.51562 8.02344H4.01562ZM23.1641 13H20.9375V6.11719L20.8125 6.60156C20.5312 7.70052 20.2786 8.53125 20.0547 9.09375L18.5078 13H16.8125L15.2422 9.0625C15.0182 8.48958 14.7786 7.6849 14.5234 6.64844L14.375 6.11719V13H12.1562V4.26562H15.4375L16.9375 7.99219C17.0938 8.39323 17.237 8.85417 17.3672 9.375C17.5026 9.89583 17.5938 10.3411 17.6406 10.7109C17.8125 9.92969 17.9453 9.36979 18.0391 9.03125C18.138 8.6875 18.2448 8.3724 18.3594 8.08594C18.474 7.79948 18.9922 6.52604 19.9141 4.26562H23.1641V13ZM29.2891 5.79688C28.7839 5.79688 28.388 5.95833 28.1016 6.28125C27.8151 6.59896 27.651 7.05208 27.6094 7.64062H30.9531C30.9427 7.05208 30.7891 6.59896 30.4922 6.28125C30.1953 5.95833 29.7943 5.79688 29.2891 5.79688ZM29.625 13.1562C28.2188 13.1562 27.1198 12.7682 26.3281 11.9922C25.5365 11.2161 25.1406 10.1172 25.1406 8.69531C25.1406 7.23177 25.5052 6.10156 26.2344 5.30469C26.9688 4.5026 27.9818 4.10156 29.2734 4.10156C30.5078 4.10156 31.4688 4.45312 32.1562 5.15625C32.8438 5.85938 33.1875 6.83073 33.1875 8.07031V9.22656H27.5547C27.5807 9.90365 27.7812 10.4323 28.1562 10.8125C28.5312 11.1927 29.0573 11.3828 29.7344 11.3828C30.2604 11.3828 30.7578 11.3281 31.2266 11.2188C31.6953 11.1094 32.1849 10.9349 32.6953 10.6953V12.5391C32.2786 12.7474 31.8333 12.901 31.3594 13C30.8854 13.1042 30.3073 13.1562 29.625 13.1562ZM38.6719 13.1562C35.9531 13.1562 34.5938 11.6641 34.5938 8.67969C34.5938 7.19531 34.9635 6.0625 35.7031 5.28125C36.4427 4.49479 37.5026 4.10156 38.8828 4.10156C39.8932 4.10156 40.7995 4.29948 41.6016 4.69531L40.8984 6.53906C40.5234 6.38802 40.1745 6.26562 39.8516 6.17188C39.5286 6.07292 39.2057 6.02344 38.8828 6.02344C37.6432 6.02344 37.0234 6.90365 37.0234 8.66406C37.0234 10.3724 37.6432 11.2266 38.8828 11.2266C39.3411 11.2266 39.7656 11.1667 40.1562 11.0469C40.5469 10.9219 40.9375 10.7292 41.3281 10.4688V12.5078C40.9427 12.7526 40.5521 12.9219 40.1562 13.0156C39.7656 13.1094 39.2708 13.1562 38.6719 13.1562ZM50.5859 4.26562V6.05469H47.7266V13H45.3438V6.05469H42.4766V4.26562H50.5859ZM54.5234 4.26562V7.71875C54.5234 8.08333 54.4635 8.97396 54.3438 10.3906L58.375 4.26562H61.2422V13H58.9375V9.51562C58.9375 8.89583 58.9896 8.02083 59.0938 6.89062L55.0781 13H52.2188V4.26562H54.5234ZM74.7578 13H72.5312V6.11719L72.4062 6.60156C72.125 7.70052 71.8724 8.53125 71.6484 9.09375L70.1016 13H68.4062L66.8359 9.0625C66.612 8.48958 66.3724 7.6849 66.1172 6.64844L65.9688 6.11719V13H63.75V4.26562H67.0312L68.5312 7.99219C68.6875 8.39323 68.8307 8.85417 68.9609 9.375C69.0964 9.89583 69.1875 10.3411 69.2344 10.7109C69.4062 9.92969 69.5391 9.36979 69.6328 9.03125C69.7318 8.6875 69.8385 8.3724 69.9531 8.08594C70.0677 7.79948 70.5859 6.52604 71.5078 4.26562H74.7578V13ZM79.1641 8.61719C79.1641 9.48177 79.3047 10.1354 79.5859 10.5781C79.8724 11.0208 80.3359 11.2422 80.9766 11.2422C81.612 11.2422 82.0677 11.0234 82.3438 10.5859C82.625 10.1432 82.7656 9.48698 82.7656 8.61719C82.7656 7.7526 82.625 7.10417 82.3438 6.67188C82.0625 6.23958 81.6016 6.02344 80.9609 6.02344C80.3255 6.02344 79.8672 6.23958 79.5859 6.67188C79.3047 7.09896 79.1641 7.7474 79.1641 8.61719ZM85.2031 8.61719C85.2031 10.0391 84.8281 11.151 84.0781 11.9531C83.3281 12.7552 82.2839 13.1562 80.9453 13.1562C80.1068 13.1562 79.3672 12.974 78.7266 12.6094C78.0859 12.2396 77.5938 11.7109 77.25 11.0234C76.9062 10.3359 76.7344 9.53385 76.7344 8.61719C76.7344 7.1901 77.1068 6.08073 77.8516 5.28906C78.5964 4.4974 79.6432 4.10156 80.9922 4.10156C81.8307 4.10156 82.5703 4.28385 83.2109 4.64844C83.8516 5.01302 84.3438 5.53646 84.6875 6.21875C85.0312 6.90104 85.2031 7.70052 85.2031 8.61719ZM90.7188 13.1562C88 13.1562 86.6406 11.6641 86.6406 8.67969C86.6406 7.19531 87.0104 6.0625 87.75 5.28125C88.4896 4.49479 89.5495 4.10156 90.9297 4.10156C91.9401 4.10156 92.8464 4.29948 93.6484 4.69531L92.9453 6.53906C92.5703 6.38802 92.2214 6.26562 91.8984 6.17188C91.5755 6.07292 91.2526 6.02344 90.9297 6.02344C89.6901 6.02344 89.0703 6.90365 89.0703 8.66406C89.0703 10.3724 89.6901 11.2266 90.9297 11.2266C91.388 11.2266 91.8125 11.1667 92.2031 11.0469C92.5938 10.9219 92.9844 10.7292 93.375 10.4688V12.5078C92.9896 12.7526 92.599 12.9219 92.2031 13.0156C91.8125 13.1094 91.3177 13.1562 90.7188 13.1562ZM102.633 4.26562V6.05469H99.7734V13H97.3906V6.05469H94.5234V4.26562H102.633ZM106.648 7.64062H108.328C109.672 7.64062 110.667 7.85417 111.312 8.28125C111.958 8.70833 112.281 9.35417 112.281 10.2188C112.281 12.0729 110.995 13 108.422 13H104.266V4.26562H106.648V7.64062ZM109.898 10.25C109.898 9.91146 109.763 9.66667 109.492 9.51562C109.221 9.36458 108.818 9.28906 108.281 9.28906H106.648V11.3516H108.312C109.37 11.3516 109.898 10.9844 109.898 10.25Z" fill="#A16646"/>
</g>
<defs>
<clipPath id="clip0">
<rect width="113" height="75" fill="white"/>
</clipPath>
</defs>
</svg>
