<svg width="63" height="75" viewBox="0 0 63 75" fill="none" xmlns="http://www.w3.org/2000/svg">
<path d="M11.8546 55.208H13.5186L15.8546 64.712L18.5586 55.208H20.1106L22.7826 64.712L25.1346 55.208H26.7826L23.8226 67H22.1266L19.3266 57.496L16.5106 67H14.8146L11.8546 55.208ZM28.594 57C28.5087 57 28.4393 56.9787 28.386 56.936C28.3327 56.8827 28.306 56.8133 28.306 56.728V55.384C28.306 55.192 28.402 55.096 28.594 55.096H29.778C29.8633 55.096 29.9273 55.1227 29.97 55.176C30.0127 55.2293 30.034 55.2987 30.034 55.384V56.728C30.034 56.9093 29.9487 57 29.778 57H28.594ZM28.37 58.44H29.97V67H28.37V58.44ZM31.4778 61.704H36.2298V63.016H31.4778V61.704ZM37.7774 57.672C37.7774 56.808 38.012 56.184 38.4814 55.8C38.9507 55.4053 39.516 55.208 40.1774 55.208C42.1187 55.208 43.7934 55.2667 45.2014 55.384V56.696H40.6254C40.2307 56.696 39.9267 56.808 39.7134 57.032C39.5 57.2453 39.3934 57.5493 39.3934 57.944V60.68L44.4814 60.776V62.024L39.3934 62.12V67H37.7774V57.672ZM47.1096 57C47.0243 57 46.955 56.9787 46.9016 56.936C46.8483 56.8827 46.8216 56.8133 46.8216 56.728V55.384C46.8216 55.192 46.9176 55.096 47.1096 55.096H48.2936C48.379 55.096 48.443 55.1227 48.4856 55.176C48.5283 55.2293 48.5496 55.2987 48.5496 55.384V56.728C48.5496 56.9093 48.4643 57 48.2936 57H47.1096ZM46.8856 58.44H48.4856V67H46.8856V58.44Z" fill="#A16646"/>
<path d="M5.15764 18.3736C4.835 18.3736 4.52424 18.2525 4.29616 18.0364L0.668262 14.6001C0.229683 14.1846 -0.00742536 13.6323 0.000177312 13.0449C0.00825515 12.4597 0.258668 11.9155 0.7058 11.5131C8.94995 4.08857 19.7586 0 31.1407 0C42.5229 0 53.3315 4.08857 61.5756 11.5131C62.0228 11.9155 62.2732 12.4593 62.2813 13.0449C62.2889 13.6328 62.0513 14.1851 61.6127 14.6006L58.7237 17.3351C57.8456 18.1661 56.45 18.1827 55.5453 17.3738C48.9234 11.4465 40.2563 8.18209 31.1407 8.18209C21.6507 8.18209 12.7285 11.6819 6.01722 18.0364C5.78914 18.2525 5.4798 18.3736 5.15764 18.3736V18.3736ZM2.50051 13.0768L5.17047 15.6053C12.2329 9.32318 21.4069 5.8774 31.1407 5.8774C40.8313 5.8774 50.0486 9.33128 57.11 15.6039L59.7805 13.0764C52.0053 6.12858 41.8415 2.30469 31.1407 2.30469C20.44 2.30469 10.2757 6.12903 2.50051 13.0768Z" fill="#A16646"/>
<path d="M48.3284 26.2875C47.7787 26.2875 47.228 26.0984 46.7917 25.7181C43.5017 22.8489 39.4438 20.9584 35.0565 20.2499C34.3946 20.1432 33.9489 19.5476 34.062 18.9202C34.1751 18.2931 34.8014 17.87 35.4657 17.978C40.2658 18.7532 44.7091 20.808 48.3256 23.9234L50.997 21.3941C45.5701 16.6632 38.5248 14.0601 31.1407 14.0601C23.7561 14.0601 16.7113 16.6632 11.2844 21.3941L13.9558 23.9234C17.1228 21.1956 20.9811 19.2551 25.1227 18.308C25.7765 18.1585 26.4327 18.5393 26.5905 19.1578C26.7483 19.7763 26.3463 20.3988 25.6934 20.5483C21.903 21.4148 18.3744 23.2027 15.4896 25.7181C14.5902 26.5022 13.2069 26.473 12.3407 25.6528L9.45122 22.9164C9.00979 22.4987 8.77268 21.9433 8.78408 21.3522C8.79501 20.7684 9.06063 20.2053 9.51252 19.8069C15.4065 14.6146 23.0876 11.7554 31.1407 11.7554C39.1938 11.7554 46.8749 14.6146 52.7689 19.8069C53.2208 20.2053 53.4859 20.7684 53.4973 21.3522C53.5082 21.9433 53.2716 22.4987 52.8302 22.9164L49.9407 25.6524C49.4945 26.0746 48.9119 26.2875 48.3284 26.2875Z" fill="#A16646"/>
<path d="M39.5426 34.6162C39.0194 34.6162 38.4934 34.4433 38.0601 34.0949C36.1323 32.5456 33.6747 31.6921 31.1407 31.6921C28.6066 31.6921 26.1495 32.5456 24.2218 34.0949C23.3071 34.8295 21.9828 34.7823 21.1408 33.9851L18.2389 31.2375C17.7951 30.817 17.5519 30.2355 17.5713 29.6413C17.5903 29.0512 17.8683 28.4889 18.3345 28.0991C21.8697 25.1399 26.418 23.51 31.1407 23.51C35.8634 23.51 40.4117 25.1399 43.9474 28.0996C44.413 28.4889 44.6915 29.0512 44.7105 29.6413C44.7295 30.2355 44.4862 30.817 44.0424 31.2375L41.1406 33.9851C40.6982 34.4042 40.1223 34.6162 39.5426 34.6162V34.6162ZM31.1407 29.3874C34.2046 29.3874 37.1777 30.4043 39.5283 32.2534L42.2054 29.7183C39.1339 27.1993 35.2119 25.8147 31.1407 25.8147C27.0699 25.8147 23.1474 27.1998 20.0759 29.7183L22.7535 32.2534C25.1037 30.4043 28.0768 29.3874 31.1407 29.3874V29.3874Z" fill="#A16646"/>
<path d="M31.1474 48.3985C27.3242 48.3985 24.2137 45.4528 24.2137 41.8319C24.2137 40.0786 24.9346 38.4298 26.2437 37.1883C27.5537 35.9477 29.2947 35.2649 31.1474 35.2649C32.9982 35.2649 34.7392 35.9477 36.0497 37.1874C37.3602 38.4298 38.081 40.0791 38.081 41.8319C38.081 45.4528 34.9706 48.3985 31.1474 48.3985V48.3985ZM31.1474 37.5696C29.9443 37.5696 28.8138 38.013 27.9642 38.8178C27.1146 39.6235 26.6466 40.694 26.6466 41.8319C26.6466 44.1816 28.6656 46.0938 31.1474 46.0938C33.6292 46.0938 35.6482 44.1816 35.6482 41.8319C35.6482 40.694 35.1796 39.6231 34.3296 38.8174C33.4795 38.013 32.3491 37.5696 31.1474 37.5696V37.5696Z" fill="#A16646"/>
<path d="M30.398 19.9302C29.7262 19.9302 29.1807 19.4143 29.1807 18.7778C29.1807 18.1413 29.7252 17.6255 30.3966 17.6255H30.398C31.0699 17.6255 31.6145 18.1413 31.6145 18.7778C31.6145 19.4143 31.0699 19.9302 30.398 19.9302V19.9302Z" fill="#A16646"/>
</svg>
