<?xml version="1.0" standalone="no"?>
<!DOCTYPE svg PUBLIC "-//W3C//DTD SVG 20010904//EN"
 "http://www.w3.org/TR/2001/REC-SVG-20010904/DTD/svg10.dtd">
<svg version="1.0" xmlns="http://www.w3.org/2000/svg"
 width="309.000000pt" height="309.000000pt" viewBox="0 0 309.000000 309.000000"
 preserveAspectRatio="xMidYMid meet">
<metadata>
Created by potrace 1.11, written by Peter Selinger 2001-2013
</metadata>
<g transform="translate(0.000000,309.000000) scale(0.100000,-0.100000)"
fill="#000000" stroke="none">
<path d="M1385 2968 c-460 -46 -899 -349 -1109 -766 -55 -109 -78 -172 -63
-172 6 0 327 -1 712 -3 765 -3 741 -2 856 -63 104 -56 176 -148 210 -269 20
-70 17 -226 -4 -297 -26 -85 -91 -174 -165 -225 -120 -82 -75 -78 -895 -81
l-728 -3 6 -22 c4 -12 30 -71 60 -132 168 -348 470 -612 836 -730 393 -127
823 -78 1172 134 450 273 706 752 684 1278 -9 218 -55 391 -155 588 -218 427
-637 713 -1124 765 -110 11 -165 11 -293 -2z"/>
<path d="M146 1833 c-33 -154 -33 -361 -1 -550 l6 -33 677 0 c691 0 767 4 847
39 103 46 170 148 170 261 0 101 -21 157 -79 215 -96 94 -47 89 -883 93 l-731
3 -6 -28z"/>
</g>
</svg>
