<svg width="65" height="85" viewBox="0 0 65 85" fill="none" xmlns="http://www.w3.org/2000/svg">
<path d="M52.0061 4.4707C48.2809 4.4707 45.1784 6.68808 44.5798 9.58926H35.6871C34.9934 9.58926 34.432 10.0479 34.432 10.613C34.432 11.178 34.9934 11.6367 35.6871 11.6367H44.5798C45.1784 14.5379 48.2809 16.7552 52.0061 16.7552C56.1592 16.7552 59.5382 13.9992 59.5382 10.613C59.5382 7.22673 56.1592 4.4707 52.0061 4.4707ZM52.0061 14.7078C49.2374 14.7078 46.9846 12.8711 46.9846 10.613C46.9846 8.35481 49.2374 6.51813 52.0061 6.51813C54.7751 6.51813 57.028 8.35481 57.028 10.613C57.028 12.8711 54.7751 14.7078 52.0061 14.7078Z" fill="#A16646"/>
<path d="M52.462 0.375488H47.6107C47.543 0.375488 47.4754 0.379487 47.4087 0.388685L9.19061 5.46645L3.60391 3.94808C2.84103 3.74054 1.99531 3.84571 1.34226 4.2296C0.689699 4.61349 0.299438 5.23412 0.299438 5.89033V15.3349C0.299438 15.9911 0.689699 16.6117 1.34226 16.9956C1.77419 17.2491 2.29143 17.3815 2.81211 17.3815C3.07833 17.3815 3.34553 17.3467 3.60293 17.2771L9.18914 15.7587L44.4744 20.4678V22.5912C41.6126 23.0659 39.4525 25.1341 39.4525 27.6062C39.4525 30.0783 41.6126 32.1465 44.4744 32.6212V37.2291C44.4744 40.6153 47.8529 43.3713 52.0075 43.3713C56.1592 43.3713 59.5381 40.6153 59.5381 37.2291V18.9035C60.0676 18.5799 60.5663 18.2196 61.0252 17.8286C63.3059 15.8919 64.561 13.3294 64.561 10.6126C64.561 4.96779 59.1327 0.375488 52.462 0.375488ZM7.83157 13.9692L2.80966 15.3349V5.89113L7.83157 7.25594V13.9692ZM44.4744 30.5022C43.0119 30.0795 41.9627 28.941 41.9627 27.6062C41.9627 26.2714 43.0119 25.1329 44.4744 24.7102V30.5022ZM57.0279 37.2291C57.0279 39.4872 54.7761 41.3239 52.005 41.3239C49.236 41.3239 46.9846 39.4872 46.9846 37.2291V20.8025L47.2381 20.8365C47.3048 20.8457 47.3724 20.8497 47.4401 20.8497H52.462C54.0137 20.8497 55.6066 20.6042 57.0279 20.0891V37.2291ZM59.2141 16.411C58.7209 16.8304 58.1737 17.2051 57.5854 17.5246C56.0528 18.36 54.2804 18.8023 52.462 18.8023H47.5416L45.93 18.5871L10.3418 13.8373V7.38791L47.7127 2.42291H52.462C57.7496 2.42291 62.0508 6.09707 62.0508 10.6126C62.0508 12.7984 61.0443 14.857 59.2141 16.411C58.7209 16.8304 61.0443 14.857 59.2141 16.411Z" fill="#A16646"/>
<path d="M30.6682 11.6375C29.975 11.6375 29.4121 11.1788 29.4121 10.613C29.4121 10.0471 29.9735 9.5885 30.6667 9.5885H30.6682C31.3615 9.5885 31.9233 10.0471 31.9233 10.613C31.9233 11.1788 31.3615 11.6375 30.6682 11.6375Z" fill="#A16646"/>
<path d="M22.0865 65.085H23.5084V66.4912H24.0396C24.9459 66.4912 25.7271 66.6735 26.3834 67.0381C27.0449 67.3975 27.5475 67.9001 27.8912 68.5459C28.235 69.1917 28.4068 69.9261 28.4068 70.749C28.4068 71.6084 28.2141 72.374 27.8287 73.0459C27.4433 73.7178 26.9094 74.223 26.2271 74.5615C25.5449 74.9001 24.7402 75.0693 23.8131 75.0693H23.5084V76.8271H22.0865V75.0693H21.7506C20.8235 75.0693 20.0214 74.8975 19.3443 74.5537C18.6672 74.2048 18.1386 73.6943 17.7584 73.0225C17.3782 72.3506 17.1881 71.5928 17.1881 70.749C17.1881 69.9417 17.3652 69.2152 17.7193 68.5693C18.0735 67.9183 18.5813 67.4105 19.2428 67.0459C19.9042 66.6761 20.6829 66.4912 21.5787 66.4912H22.0865V65.085ZM23.5084 73.8896H23.7037C24.7297 73.8896 25.5266 73.611 26.0943 73.0537C26.6672 72.4912 26.9537 71.7178 26.9537 70.7334C26.9537 69.7959 26.6881 69.0589 26.1568 68.5225C25.6308 67.9808 24.8938 67.71 23.9459 67.71H23.5084V73.8896ZM22.0865 67.71H21.6568C20.7141 67.71 19.9771 67.9834 19.4459 68.5303C18.9146 69.0719 18.649 69.8063 18.649 70.7334C18.649 71.7178 18.9329 72.4912 19.5006 73.0537C20.0683 73.611 20.873 73.8896 21.9146 73.8896H22.0865V67.71ZM34.2584 76.8271C32.9719 76.8271 31.9615 76.4391 31.2271 75.6631C30.498 74.8818 30.1334 73.8089 30.1334 72.4443C30.1334 71.0693 30.4745 69.9756 31.1568 69.1631C31.8391 68.3454 32.761 67.9365 33.9225 67.9365C35.0006 67.9365 35.86 68.2855 36.5006 68.9834C37.1412 69.6761 37.4615 70.6162 37.4615 71.8037V72.6553H31.5865C31.6126 73.6292 31.86 74.3688 32.3287 74.874C32.7975 75.3792 33.4615 75.6318 34.3209 75.6318C34.7792 75.6318 35.2141 75.5928 35.6256 75.5146C36.037 75.4313 36.5188 75.2725 37.0709 75.0381V76.2725C36.5969 76.4756 36.1516 76.6188 35.735 76.7021C35.3183 76.7855 34.8261 76.8271 34.2584 76.8271ZM33.9068 69.085C33.235 69.085 32.7037 69.3011 32.3131 69.7334C31.9225 70.1657 31.6907 70.7673 31.6178 71.5381H35.985C35.9745 70.736 35.7896 70.1266 35.4303 69.71C35.0709 69.2933 34.5631 69.085 33.9068 69.085ZM41.0475 68.0928V71.6631H45.7037V68.0928H47.11V76.6709H45.7037V72.8506H41.0475V76.6709H39.6412V68.0928H41.0475Z" fill="#A16646"/>
</svg>
