<svg width="114" height="108" viewBox="0 0 114 108" fill="none" xmlns="http://www.w3.org/2000/svg">
<path d="M41.3111 35.5743L38.6911 35.9143V34.0143L41.6311 32.7343H44.2711V47.6743H41.3111V35.5743ZM51.1088 40.6743H57.2288V43.0743H51.1088V40.6743ZM69.0972 47.7743C67.8039 47.7743 66.1039 47.6676 63.9972 47.4543V45.1143H69.2172C69.8839 45.1143 70.3639 44.9543 70.6572 44.6343C70.9505 44.3143 71.0972 43.9143 71.0972 43.4343V42.4143C71.0972 41.401 70.5905 40.8943 69.5772 40.8943H68.4172C67.9772 40.8943 67.6439 40.9876 67.4172 41.1743C67.2039 41.3476 67.0639 41.621 66.9972 41.9943H64.1972L64.6172 32.8743H73.4972V35.5343H67.1572L66.9972 39.0543C67.1972 38.841 67.4705 38.681 67.8172 38.5743C68.1772 38.4543 68.5772 38.3943 69.0172 38.3943H70.6372C71.7439 38.3943 72.5905 38.721 73.1772 39.3743C73.7772 40.0143 74.0772 40.8476 74.0772 41.8743V44.0543C74.0772 45.3343 73.6572 46.2743 72.8172 46.8743C71.9772 47.4743 70.7372 47.7743 69.0972 47.7743ZM19.4481 63.9517V67.8579C19.4481 69.0819 20.1349 69.6938 21.5086 69.6938C22.1076 69.6938 22.674 69.606 23.2078 69.4302C23.7482 69.2479 24.3471 68.9549 25.0047 68.5513V63.9517H26.7625V74.6743H25.0047V69.8989C24.2886 70.3612 23.6408 70.6834 23.0613 70.8657C22.4884 71.048 21.8504 71.1392 21.1473 71.1392C20.0796 71.1392 19.2365 70.8592 18.618 70.2993C17.9995 69.7394 17.6902 68.9647 17.6902 67.9751V63.9517H19.4481ZM34.7313 74.8696C33.1232 74.8696 31.8602 74.3846 30.9422 73.4146C30.0307 72.438 29.575 71.0968 29.575 69.3911C29.575 67.6724 30.0014 66.3052 30.8543 65.2896C31.7072 64.2674 32.8595 63.7563 34.3113 63.7563C35.659 63.7563 36.7332 64.1925 37.534 65.0649C38.3348 65.9308 38.7352 67.106 38.7352 68.5903V69.6548H31.3914C31.424 70.8722 31.7332 71.7967 32.3192 72.4282C32.9051 73.0597 33.7352 73.3755 34.8094 73.3755C35.3823 73.3755 35.9259 73.3267 36.4402 73.229C36.9546 73.1248 37.5568 72.9263 38.2469 72.6333V74.1763C37.6544 74.4302 37.0978 74.6092 36.577 74.7134C36.0561 74.8175 35.4409 74.8696 34.7313 74.8696ZM34.2918 65.1919C33.452 65.1919 32.7879 65.4621 32.2996 66.0024C31.8113 66.5428 31.5216 67.2948 31.4305 68.2583H36.8895C36.8764 67.2557 36.6453 66.494 36.1961 65.9731C35.7469 65.4523 35.1121 65.1919 34.2918 65.1919ZM49.6238 74.6743H47.8367V65.4165H44.6824C44.5001 67.7603 44.2527 69.6027 43.9402 70.9438C43.6343 72.2785 43.2306 73.2583 42.7293 73.8833C42.2345 74.5018 41.5998 74.811 40.825 74.811C40.4018 74.811 40.0926 74.7655 39.8973 74.6743V73.356C40.034 73.408 40.2163 73.4341 40.4442 73.4341C41.1603 73.4341 41.73 72.6789 42.1531 71.1685C42.5828 69.658 42.9181 67.2524 43.159 63.9517H49.6238V74.6743ZM62.3387 69.2935C62.3387 71.0448 61.896 72.4119 61.0106 73.395C60.1251 74.3781 58.9012 74.8696 57.3387 74.8696C56.3686 74.8696 55.5093 74.645 54.7606 74.1958C54.0119 73.7401 53.4357 73.089 53.032 72.2427C52.6284 71.3963 52.4266 70.4132 52.4266 69.2935C52.4266 67.5487 52.8628 66.1912 53.7352 65.2212C54.6076 64.2446 55.8315 63.7563 57.407 63.7563C58.9175 63.7563 60.1154 64.2544 61.0008 65.2505C61.8927 66.2401 62.3387 67.5877 62.3387 69.2935ZM54.243 69.2935C54.243 70.6411 54.5067 71.6665 55.034 72.3696C55.5679 73.0662 56.3524 73.4146 57.3875 73.4146C58.4096 73.4146 59.1876 73.0662 59.7215 72.3696C60.2554 71.6665 60.5223 70.6411 60.5223 69.2935C60.5223 67.9458 60.2521 66.9334 59.7117 66.2563C59.1779 65.5728 58.3934 65.231 57.3582 65.231C55.2814 65.231 54.243 66.5851 54.243 69.2935ZM73.95 66.6567C73.95 67.3468 73.7547 67.8742 73.3641 68.2388C72.9734 68.5968 72.4168 68.841 71.6942 68.9712V69.0591C72.5991 69.1828 73.2567 69.453 73.6668 69.8696C74.0835 70.2798 74.2918 70.8332 74.2918 71.5298C74.2918 72.5454 73.9175 73.3234 73.1688 73.8638C72.4266 74.4041 71.3556 74.6743 69.9559 74.6743H65.1317V63.9517H69.9363C72.6121 63.9517 73.95 64.8534 73.95 66.6567ZM72.534 71.4321C72.534 70.8332 72.2996 70.4132 71.8309 70.1724C71.3621 69.9315 70.6753 69.811 69.7703 69.811H66.8895V73.2583H69.8094C71.6258 73.2583 72.534 72.6496 72.534 71.4321ZM72.2313 66.813C72.2313 66.3117 72.0359 65.9536 71.6453 65.7388C71.2612 65.5239 70.6785 65.4165 69.8973 65.4165H66.8895V68.356H69.575C70.532 68.356 71.2124 68.2388 71.616 68.0044C72.0262 67.7635 72.2313 67.3664 72.2313 66.813ZM81.2156 74.8696C79.6076 74.8696 78.3445 74.3846 77.4266 73.4146C76.5151 72.438 76.0594 71.0968 76.0594 69.3911C76.0594 67.6724 76.4858 66.3052 77.3387 65.2896C78.1915 64.2674 79.3439 63.7563 80.7957 63.7563C82.1434 63.7563 83.2176 64.1925 84.0184 65.0649C84.8192 65.9308 85.2195 67.106 85.2195 68.5903V69.6548H77.8758C77.9083 70.8722 78.2176 71.7967 78.8035 72.4282C79.3895 73.0597 80.2195 73.3755 81.2938 73.3755C81.8667 73.3755 82.4103 73.3267 82.9246 73.229C83.4389 73.1248 84.0412 72.9263 84.7313 72.6333V74.1763C84.1388 74.4302 83.5822 74.6092 83.0613 74.7134C82.5405 74.8175 81.9253 74.8696 81.2156 74.8696ZM80.7762 65.1919C79.9363 65.1919 79.2723 65.4621 78.784 66.0024C78.2957 66.5428 78.006 67.2948 77.9149 68.2583H83.3738C83.3608 67.2557 83.1297 66.494 82.6805 65.9731C82.2313 65.4523 81.5965 65.1919 80.7762 65.1919ZM94.282 63.9517H96.2059L91.6258 69.1177L96.5867 74.6743H94.5457L89.702 69.2349V74.6743H87.9442V63.9517H89.702V69.1567L94.282 63.9517Z" fill="#A16646"/>
<path d="M1.61212 7.15942H5.16681C6.7866 7.15942 7.96108 7.39119 8.69025 7.85474C9.42462 8.31307 9.79181 9.04484 9.79181 10.05C9.79181 10.7323 9.63035 11.2922 9.30743 11.7297C8.98973 12.1672 8.56525 12.4303 8.034 12.5188V12.5969C8.75795 12.7584 9.27879 13.0605 9.5965 13.5032C9.91941 13.9459 10.0809 14.5344 10.0809 15.2688C10.0809 16.3105 9.70327 17.123 8.94806 17.7063C8.19806 18.2896 7.17723 18.5813 5.88556 18.5813H1.61212V7.15942ZM4.034 11.6829H5.44025C6.0965 11.6829 6.57045 11.5813 6.86212 11.3782C7.159 11.175 7.30743 10.8391 7.30743 10.3704C7.30743 9.93286 7.14598 9.62036 6.82306 9.43286C6.50535 9.24015 6.00014 9.1438 5.30743 9.1438H4.034V11.6829ZM4.034 13.6047V16.5813H5.61212C6.27879 16.5813 6.77098 16.4537 7.08868 16.1985C7.40639 15.9433 7.56525 15.5527 7.56525 15.0266C7.56525 14.0787 6.88816 13.6047 5.534 13.6047H4.034ZM23.1824 18.5813H20.9559V11.6985L20.8309 12.1829C20.5496 13.2818 20.297 14.1125 20.0731 14.675L18.5262 18.5813H16.8309L15.2606 14.6438C15.0366 14.0709 14.797 13.2662 14.5418 12.2297L14.3934 11.6985V18.5813H12.1746V9.84692H15.4559L16.9559 13.5735C17.1121 13.9745 17.2554 14.4355 17.3856 14.9563C17.521 15.4771 17.6121 15.9224 17.659 16.2922C17.8309 15.511 17.9637 14.9511 18.0574 14.6125C18.1564 14.2688 18.2632 13.9537 18.3777 13.6672C18.4923 13.3808 19.0106 12.1073 19.9324 9.84692H23.1824V18.5813ZM29.3074 11.3782C28.8022 11.3782 28.4064 11.5396 28.1199 11.8625C27.8335 12.1803 27.6694 12.6334 27.6277 13.2219H30.9715C30.9611 12.6334 30.8074 12.1803 30.5106 11.8625C30.2137 11.5396 29.8126 11.3782 29.3074 11.3782ZM29.6434 18.7375C28.2371 18.7375 27.1382 18.3495 26.3465 17.5735C25.5548 16.7974 25.159 15.6985 25.159 14.2766C25.159 12.8131 25.5236 11.6829 26.2527 10.886C26.9871 10.0839 28.0001 9.68286 29.2918 9.68286C30.5262 9.68286 31.4871 10.0344 32.1746 10.7375C32.8621 11.4407 33.2059 12.412 33.2059 13.6516V14.8079H27.5731C27.5991 15.4849 27.7996 16.0136 28.1746 16.3938C28.5496 16.774 29.0757 16.9641 29.7527 16.9641C30.2788 16.9641 30.7762 16.9094 31.2449 16.8C31.7137 16.6907 32.2033 16.5162 32.7137 16.2766V18.1204C32.297 18.3287 31.8517 18.4823 31.3777 18.5813C30.9038 18.6855 30.3257 18.7375 29.6434 18.7375ZM38.6902 18.7375C35.9715 18.7375 34.6121 17.2454 34.6121 14.261C34.6121 12.7766 34.9819 11.6438 35.7215 10.8625C36.4611 10.0761 37.521 9.68286 38.9012 9.68286C39.9116 9.68286 40.8179 9.88078 41.6199 10.2766L40.9168 12.1204C40.5418 11.9693 40.1929 11.8469 39.8699 11.7532C39.547 11.6542 39.2241 11.6047 38.9012 11.6047C37.6616 11.6047 37.0418 12.4849 37.0418 14.2454C37.0418 15.9537 37.6616 16.8079 38.9012 16.8079C39.3595 16.8079 39.784 16.748 40.1746 16.6282C40.5652 16.5032 40.9559 16.3105 41.3465 16.05V18.0891C40.9611 18.3339 40.5705 18.5032 40.1746 18.5969C39.784 18.6907 39.2892 18.7375 38.6902 18.7375ZM50.6043 9.84692V11.636H47.7449V18.5813H45.3621V11.636H42.4949V9.84692H50.6043ZM54.5418 9.84692V13.3C54.5418 13.6646 54.4819 14.5553 54.3621 15.9719L58.3934 9.84692H61.2606V18.5813H58.9559V15.0969C58.9559 14.4771 59.008 13.6021 59.1121 12.4719L55.0965 18.5813H52.2371V9.84692H54.5418ZM74.7762 18.5813H72.5496V11.6985L72.4246 12.1829C72.1434 13.2818 71.8908 14.1125 71.6668 14.675L70.1199 18.5813H68.4246L66.8543 14.6438C66.6304 14.0709 66.3908 13.2662 66.1356 12.2297L65.9871 11.6985V18.5813H63.7684V9.84692H67.0496L68.5496 13.5735C68.7059 13.9745 68.8491 14.4355 68.9793 14.9563C69.1147 15.4771 69.2059 15.9224 69.2527 16.2922C69.4246 15.511 69.5574 14.9511 69.6512 14.6125C69.7501 14.2688 69.8569 13.9537 69.9715 13.6672C70.0861 13.3808 70.6043 12.1073 71.5262 9.84692H74.7762V18.5813ZM79.1824 14.1985C79.1824 15.0631 79.3231 15.7167 79.6043 16.1594C79.8908 16.6021 80.3543 16.8235 80.9949 16.8235C81.6304 16.8235 82.0861 16.6047 82.3621 16.1672C82.6434 15.7245 82.784 15.0683 82.784 14.1985C82.784 13.3339 82.6434 12.6855 82.3621 12.2532C82.0809 11.8209 81.6199 11.6047 80.9793 11.6047C80.3439 11.6047 79.8856 11.8209 79.6043 12.2532C79.3231 12.6803 79.1824 13.3287 79.1824 14.1985ZM85.2215 14.1985C85.2215 15.6204 84.8465 16.7323 84.0965 17.5344C83.3465 18.3365 82.3022 18.7375 80.9637 18.7375C80.1251 18.7375 79.3856 18.5553 78.7449 18.1907C78.1043 17.8209 77.6121 17.2922 77.2684 16.6047C76.9246 15.9172 76.7527 15.1152 76.7527 14.1985C76.7527 12.7714 77.1251 11.662 77.8699 10.8704C78.6147 10.0787 79.6616 9.68286 81.0106 9.68286C81.8491 9.68286 82.5887 9.86515 83.2293 10.2297C83.8699 10.5943 84.3621 11.1178 84.7059 11.8C85.0496 12.4823 85.2215 13.2818 85.2215 14.1985ZM90.7371 18.7375C88.0184 18.7375 86.659 17.2454 86.659 14.261C86.659 12.7766 87.0288 11.6438 87.7684 10.8625C88.508 10.0761 89.5679 9.68286 90.9481 9.68286C91.9585 9.68286 92.8647 9.88078 93.6668 10.2766L92.9637 12.1204C92.5887 11.9693 92.2397 11.8469 91.9168 11.7532C91.5939 11.6542 91.271 11.6047 90.9481 11.6047C89.7085 11.6047 89.0887 12.4849 89.0887 14.2454C89.0887 15.9537 89.7085 16.8079 90.9481 16.8079C91.4064 16.8079 91.8309 16.748 92.2215 16.6282C92.6121 16.5032 93.0027 16.3105 93.3934 16.05V18.0891C93.008 18.3339 92.6173 18.5032 92.2215 18.5969C91.8309 18.6907 91.3361 18.7375 90.7371 18.7375ZM102.651 9.84692V11.636H99.7918V18.5813H97.409V11.636H94.5418V9.84692H102.651ZM106.667 13.2219H108.346C109.69 13.2219 110.685 13.4355 111.331 13.8625C111.977 14.2896 112.3 14.9355 112.3 15.8C112.3 17.6542 111.013 18.5813 108.44 18.5813H104.284V9.84692H106.667V13.2219ZM109.917 15.8313C109.917 15.4928 109.781 15.248 109.511 15.0969C109.24 14.9459 108.836 14.8704 108.3 14.8704H106.667V16.9329H108.331C109.388 16.9329 109.917 16.5657 109.917 15.8313Z" fill="#A16646"/>
</svg>
