<svg width="129" height="99" viewBox="0 0 129 99" fill="none" xmlns="http://www.w3.org/2000/svg">
<g clip-path="url(#clip0)">
<path d="M99.5259 14.5203H48.4575C47.6156 14.5203 46.933 15.1935 46.933 16.0238C46.933 16.8535 47.6156 17.5267 48.4575 17.5267H84.3676V31.1899C84.3676 32.0203 85.0502 32.6935 85.8921 32.6935C86.734 32.6935 87.4166 32.0203 87.4166 31.1899V17.5267H99.5259C99.5836 17.5267 99.63 17.5731 99.63 17.6299V55.2624C99.63 55.3192 99.5836 55.3656 99.5259 55.3656H87.4166V43.472C87.4166 42.6417 86.734 41.9685 85.8921 41.9685C85.0502 41.9685 84.3676 42.6417 84.3676 43.472V55.3656H28.7722C28.7145 55.3656 28.6681 55.3192 28.6681 55.2624V17.6299C28.6681 17.5731 28.7145 17.5267 28.7722 17.5267H36.3769C37.2188 17.5267 37.9014 16.8535 37.9014 16.0232C37.9014 15.1935 37.2188 14.5203 36.3769 14.5203H28.7722C27.0337 14.5203 25.6191 15.9153 25.6191 17.6299V55.2624C25.6191 56.977 27.0337 58.372 28.7722 58.372H41.8869V60.1214H39.0819C38.24 60.1214 37.5574 60.7946 37.5574 61.6243C37.5574 62.4547 38.24 63.1278 39.0819 63.1278H87.1543C87.9962 63.1278 88.6788 62.4547 88.6788 61.6243C88.6788 60.7946 87.9962 60.1214 87.1543 60.1214H84.0231V58.372H99.5259C101.264 58.372 102.679 56.977 102.679 55.2624V17.6299C102.679 15.9153 101.264 14.5203 99.5259 14.5203ZM80.9747 60.1214H44.9358V58.372H80.9747V60.1214Z" fill="#A16646"/>
<path d="M90.6964 33.1451H96.3428C97.1847 33.1451 97.8672 32.4719 97.8672 31.6416V22.1508C97.8672 21.3205 97.1847 20.6473 96.3428 20.6473H90.6964C89.8545 20.6473 89.1719 21.3205 89.1719 22.1508V31.6416C89.1719 32.4719 89.8545 33.1451 90.6964 33.1451ZM92.2209 23.6544H94.8183V30.1381H92.2209V23.6544Z" fill="#A16646"/>
<path d="M90.6964 37.342H96.3428C97.1847 37.342 97.8672 36.6688 97.8672 35.8385C97.8672 35.0081 97.1847 34.335 96.3428 34.335H90.6964C89.8545 34.335 89.1719 35.0081 89.1719 35.8385C89.1719 36.6688 89.8545 37.342 90.6964 37.342Z" fill="#A16646"/>
<path d="M90.6964 41.5284H96.3428C97.1847 41.5284 97.8672 40.8552 97.8672 40.0249C97.8672 39.1951 97.1847 38.5214 96.3428 38.5214H90.6964C89.8545 38.5214 89.1719 39.1951 89.1719 40.0249C89.1719 40.8552 89.8545 41.5284 90.6964 41.5284Z" fill="#A16646"/>
<path d="M89.1719 50.7425C89.1719 51.5728 89.8545 52.246 90.6964 52.246H96.3428C97.1847 52.246 97.8672 51.5728 97.8672 50.7425V44.3313C97.8672 43.5009 97.1847 42.8278 96.3428 42.8278H90.6964C89.8545 42.8278 89.1719 43.5009 89.1719 44.3313V50.7425ZM92.2209 45.8342H94.8183V49.239H92.2209V45.8342Z" fill="#A16646"/>
<path d="M32.4149 23.6544V49.2389C32.4149 50.8973 33.783 52.246 35.4638 52.246H77.5953C79.2761 52.246 80.6436 50.8973 80.6436 49.2389V23.6544C80.6436 21.9966 79.2761 20.6473 77.5953 20.6473H35.4638C33.783 20.6473 32.4149 21.996 32.4149 23.6544ZM77.5953 49.2389H72.0465V44.1724H77.5953V49.2389ZM77.5953 41.1653H70.5226C69.6807 41.1653 68.9981 41.8385 68.9981 42.6689V49.2389H35.4638V23.6544H77.5953V41.1653Z" fill="#A16646"/>
<path d="M40.9615 16.5711C41.1831 17.1881 41.7705 17.5725 42.3978 17.5725C42.5671 17.5725 42.7393 17.5447 42.9075 17.4855C43.7012 17.2078 44.1162 16.3485 43.8346 15.5663L43.8023 15.477C43.5207 14.6942 42.6494 14.2848 41.8563 14.5626C41.0626 14.8403 40.6475 15.6996 40.9291 16.4818L40.9615 16.5711Z" fill="#A16646"/>
<path d="M84.4715 37.9096C84.6932 38.526 85.2811 38.9104 85.9084 38.9104C86.0771 38.9104 86.2494 38.8826 86.4175 38.824C87.2112 38.5463 87.6263 37.687 87.3447 36.9042L87.3129 36.8149C87.0313 36.0321 86.1594 35.6233 85.3663 35.9005C84.5732 36.1782 84.1582 37.0375 84.4392 37.8197L84.4715 37.9096Z" fill="#A16646"/>
<path d="M46.9112 39.2518C46.5397 39.9969 46.8507 40.8974 47.6061 41.2644C47.8225 41.3694 48.0518 41.4187 48.2781 41.4187C48.8408 41.4187 49.3817 41.1102 49.6468 40.5785C50.4146 39.0396 50.3453 37.2386 49.461 35.7612C49.0848 35.1327 49.0742 34.3459 49.434 33.708C49.8426 32.9821 49.5774 32.0671 48.8414 31.6635C48.1053 31.26 47.1776 31.5221 46.769 32.248C45.8865 33.8142 45.9118 35.7462 46.8354 37.2897C47.1952 37.8915 47.224 38.625 46.9112 39.2518Z" fill="#A16646"/>
<path d="M55.2808 39.2519C54.9093 39.9965 55.2203 40.8975 55.9752 41.2646C56.1921 41.3695 56.4214 41.4188 56.6471 41.4188C57.2098 41.4188 57.7513 41.1103 58.0158 40.5786C58.7836 39.0397 58.7143 37.2388 57.83 35.7613C57.4544 35.1328 57.4438 34.346 57.803 33.7082C58.2122 32.9822 57.947 32.0672 57.211 31.6637C56.4749 31.2607 55.5466 31.5222 55.138 32.2481C54.2555 33.8148 54.2814 35.7463 55.205 37.2898C55.5648 37.8917 55.593 38.6246 55.2808 39.2519Z" fill="#A16646"/>
<path d="M63.6504 39.2518C63.2789 39.9963 63.5899 40.8974 64.3453 41.2644C64.5617 41.3694 64.791 41.4187 65.0168 41.4187C65.5794 41.4187 66.1209 41.1102 66.386 40.5785C67.1538 39.0396 67.0839 37.2386 66.1996 35.7612C65.824 35.1327 65.8134 34.3459 66.1726 33.708C66.5818 32.9821 66.3166 32.0671 65.5806 31.6635C64.8445 31.26 63.9168 31.5221 63.5076 32.248C62.6251 33.8142 62.651 35.7462 63.5746 37.2897C63.9344 37.8915 63.9632 38.6245 63.6504 39.2518Z" fill="#A16646"/>
</g>
<path d="M7.12759 90.6709L3.36197 80.6553H3.29947C3.37759 81.4886 3.41666 82.5173 3.41666 83.7412V90.6709H2.08853V79.249H4.21353L7.73697 88.6084H7.79947L11.3854 79.249H13.4948V90.6709H12.0729V83.6475C12.0729 82.8662 12.1094 81.874 12.1823 80.6709H12.1198L8.30728 90.6709H7.12759ZM17.737 82.0928V87.3271L17.6745 88.8428L17.6432 89.2803L22.237 82.0928H23.9635V90.6709H22.651V85.6162L22.6745 84.5303L22.7135 83.499L18.151 90.6709H16.4088V82.0928H17.737ZM31.776 82.0928H33.3151L29.651 86.2256L33.6198 90.6709H31.987L28.112 86.3193V90.6709H26.7057V82.0928H28.112V86.2568L31.776 82.0928ZM39.237 90.8271C38.0859 90.8271 37.2005 90.4131 36.5807 89.585H36.487L36.5182 89.9053C36.5599 90.3115 36.5807 90.6735 36.5807 90.9912V94.5146H35.1745V82.0928H36.3307L36.5182 83.2646H36.5807C36.9141 82.7959 37.2995 82.4574 37.737 82.249C38.1745 82.0407 38.6797 81.9365 39.2526 81.9365C40.3672 81.9365 41.2318 82.3245 41.8463 83.1006C42.4661 83.8714 42.776 84.96 42.776 86.3662C42.776 87.7673 42.4661 88.861 41.8463 89.6475C41.2266 90.4339 40.3568 90.8271 39.237 90.8271ZM39.0026 83.1162C38.1536 83.1162 37.5391 83.3558 37.1588 83.835C36.7838 84.3141 36.5911 85.0667 36.5807 86.0928V86.3662C36.5807 87.5277 36.7734 88.3688 37.1588 88.8896C37.5443 89.4053 38.1693 89.6631 39.0338 89.6631C39.7526 89.6631 40.3125 89.3714 40.7135 88.7881C41.1198 88.2048 41.3229 87.3923 41.3229 86.3506C41.3229 85.3037 41.1198 84.5042 40.7135 83.9521C40.3125 83.3949 39.7422 83.1162 39.0026 83.1162ZM52.4713 86.3662C52.4713 87.7673 52.1172 88.861 51.4088 89.6475C50.7005 90.4339 49.7213 90.8271 48.4713 90.8271C47.6953 90.8271 47.0078 90.6475 46.4088 90.2881C45.8099 89.9235 45.3489 89.4027 45.026 88.7256C44.7031 88.0485 44.5417 87.262 44.5417 86.3662C44.5417 84.9704 44.8906 83.8844 45.5885 83.1084C46.2864 82.3271 47.2656 81.9365 48.526 81.9365C49.7344 81.9365 50.6927 82.335 51.401 83.1318C52.1146 83.9235 52.4713 85.0016 52.4713 86.3662ZM45.9948 86.3662C45.9948 87.4443 46.2057 88.2646 46.6276 88.8271C47.0547 89.3844 47.6823 89.6631 48.5104 89.6631C49.3281 89.6631 49.9505 89.3844 50.3776 88.8271C50.8047 88.2646 51.0182 87.4443 51.0182 86.3662C51.0182 85.2881 50.8021 84.4782 50.3698 83.9365C49.9427 83.3896 49.3151 83.1162 48.487 83.1162C46.8255 83.1162 45.9948 84.1995 45.9948 86.3662ZM61.7604 84.2568C61.7604 84.8089 61.6042 85.2308 61.2917 85.5225C60.9792 85.8089 60.5338 86.0042 59.9557 86.1084V86.1787C60.6797 86.2777 61.2057 86.4938 61.5338 86.8271C61.8672 87.1553 62.0338 87.598 62.0338 88.1553C62.0338 88.9678 61.7344 89.5902 61.1354 90.0225C60.5417 90.4548 59.6849 90.6709 58.5651 90.6709H54.7057V82.0928H58.5495C60.6901 82.0928 61.7604 82.8141 61.7604 84.2568ZM60.6276 88.0771C60.6276 87.598 60.4401 87.262 60.0651 87.0693C59.6901 86.8766 59.1406 86.7803 58.4167 86.7803H56.112V89.5381H58.4479C59.901 89.5381 60.6276 89.0511 60.6276 88.0771ZM60.3854 84.3818C60.3854 83.9808 60.2292 83.6943 59.9167 83.5225C59.6094 83.3506 59.1432 83.2646 58.5182 83.2646H56.112V85.6162H58.2604C59.026 85.6162 59.5703 85.5225 59.8932 85.335C60.2213 85.1423 60.3854 84.8245 60.3854 84.3818ZM71.3776 86.3662C71.3776 87.7673 71.0234 88.861 70.3151 89.6475C69.6068 90.4339 68.6276 90.8271 67.3776 90.8271C66.6016 90.8271 65.9141 90.6475 65.3151 90.2881C64.7161 89.9235 64.2552 89.4027 63.9323 88.7256C63.6094 88.0485 63.4479 87.262 63.4479 86.3662C63.4479 84.9704 63.7969 83.8844 64.4948 83.1084C65.1927 82.3271 66.1719 81.9365 67.4323 81.9365C68.6406 81.9365 69.5989 82.335 70.3073 83.1318C71.0208 83.9235 71.3776 85.0016 71.3776 86.3662ZM64.901 86.3662C64.901 87.4443 65.112 88.2646 65.5338 88.8271C65.9609 89.3844 66.5885 89.6631 67.4167 89.6631C68.2344 89.6631 68.8568 89.3844 69.2838 88.8271C69.7109 88.2646 69.9245 87.4443 69.9245 86.3662C69.9245 85.2881 69.7083 84.4782 69.276 83.9365C68.8489 83.3896 68.2213 83.1162 67.3932 83.1162C65.7318 83.1162 64.901 84.1995 64.901 86.3662ZM80.1432 90.6709H78.7135V83.2646H76.1901C76.0443 85.1396 75.8463 86.6136 75.5963 87.6865C75.3516 88.7542 75.0286 89.5381 74.6276 90.0381C74.2318 90.5329 73.7239 90.7803 73.1042 90.7803C72.7656 90.7803 72.5182 90.7438 72.362 90.6709V89.6162C72.4713 89.6579 72.6172 89.6787 72.7995 89.6787C73.3724 89.6787 73.8281 89.0745 74.1667 87.8662C74.5104 86.6579 74.7786 84.7334 74.9713 82.0928H80.1432V90.6709ZM84.2682 82.0928V85.6631H88.9245V82.0928H90.3307V90.6709H88.9245V86.8506H84.2682V90.6709H82.862V82.0928H84.2682ZM100.518 86.3662C100.518 87.7673 100.164 88.861 99.4557 89.6475C98.7474 90.4339 97.7682 90.8271 96.5182 90.8271C95.7422 90.8271 95.0547 90.6475 94.4557 90.2881C93.8568 89.9235 93.3958 89.4027 93.0729 88.7256C92.75 88.0485 92.5885 87.262 92.5885 86.3662C92.5885 84.9704 92.9375 83.8844 93.6354 83.1084C94.3333 82.3271 95.3125 81.9365 96.5729 81.9365C97.7812 81.9365 98.7396 82.335 99.4479 83.1318C100.161 83.9235 100.518 85.0016 100.518 86.3662ZM94.0417 86.3662C94.0417 87.4443 94.2526 88.2646 94.6745 88.8271C95.1016 89.3844 95.7292 89.6631 96.5573 89.6631C97.375 89.6631 97.9974 89.3844 98.4245 88.8271C98.8516 88.2646 99.0651 87.4443 99.0651 86.3662C99.0651 85.2881 98.8489 84.4782 98.4167 83.9365C97.9896 83.3896 97.362 83.1162 96.5338 83.1162C94.8724 83.1162 94.0417 84.1995 94.0417 86.3662ZM109.807 84.2568C109.807 84.8089 109.651 85.2308 109.339 85.5225C109.026 85.8089 108.581 86.0042 108.003 86.1084V86.1787C108.727 86.2777 109.253 86.4938 109.581 86.8271C109.914 87.1553 110.081 87.598 110.081 88.1553C110.081 88.9678 109.781 89.5902 109.182 90.0225C108.589 90.4548 107.732 90.6709 106.612 90.6709H102.753V82.0928H106.596C108.737 82.0928 109.807 82.8141 109.807 84.2568ZM108.674 88.0771C108.674 87.598 108.487 87.262 108.112 87.0693C107.737 86.8766 107.187 86.7803 106.464 86.7803H104.159V89.5381H106.495C107.948 89.5381 108.674 89.0511 108.674 88.0771ZM108.432 84.3818C108.432 83.9808 108.276 83.6943 107.964 83.5225C107.656 83.3506 107.19 83.2646 106.565 83.2646H104.159V85.6162H106.307C107.073 85.6162 107.617 85.5225 107.94 85.335C108.268 85.1423 108.432 84.8245 108.432 84.3818ZM117.042 82.0928H118.581L114.917 86.2256L118.885 90.6709H117.253L113.378 86.3193V90.6709H111.971V82.0928H113.378V86.2568L117.042 82.0928ZM125.737 90.6709L125.464 89.4521H125.401C124.974 89.9886 124.547 90.3532 124.12 90.5459C123.698 90.7334 123.164 90.8271 122.518 90.8271C121.674 90.8271 121.013 90.6058 120.534 90.1631C120.055 89.7204 119.815 89.0954 119.815 88.2881C119.815 86.5485 121.187 85.637 123.932 85.5537L125.385 85.499V84.9912C125.385 84.3402 125.245 83.861 124.964 83.5537C124.682 83.2412 124.232 83.085 123.612 83.085C123.159 83.085 122.729 83.1527 122.323 83.2881C121.922 83.4235 121.544 83.5745 121.19 83.7412L120.76 82.6865C121.193 82.4574 121.664 82.2777 122.174 82.1475C122.685 82.0173 123.19 81.9521 123.69 81.9521C124.727 81.9521 125.497 82.1813 126.003 82.6396C126.508 83.098 126.76 83.8271 126.76 84.8271V90.6709H125.737ZM122.839 89.6943C123.625 89.6943 124.242 89.4834 124.69 89.0615C125.143 88.6344 125.37 88.0303 125.37 87.249V86.4756L124.104 86.5303C123.12 86.5667 122.401 86.723 121.948 86.999C121.5 87.2751 121.276 87.71 121.276 88.3037C121.276 88.7516 121.411 89.0954 121.682 89.335C121.958 89.5745 122.344 89.6943 122.839 89.6943Z" fill="#A16646"/>
<defs>
<clipPath id="clip0">
<rect width="77.0597" height="76" fill="white" transform="translate(25.7697 0.670898)"/>
</clipPath>
</defs>
</svg>
