<svg width="84" height="91" viewBox="0 0 84 91" fill="none" xmlns="http://www.w3.org/2000/svg">
<g clip-path="url(#clip0)">
<rect width="64.3923" height="61" transform="translate(9.8649 0.170898)" fill="white"/>
<path d="M70.4842 5.65137H13.6379C11.5578 5.65137 9.8649 7.25511 9.8649 9.22559V40.2021C9.8649 42.1726 11.5578 43.7764 13.6379 43.7764H38.2881V48.542H35.1439C32.3697 48.542 30.1133 50.6795 30.1133 53.3076V54.499C30.1133 55.1566 30.6768 55.6904 31.3709 55.6904H52.7512C53.4454 55.6904 54.0088 55.1566 54.0088 54.499V53.3076C54.0088 50.6795 51.7524 48.542 48.9782 48.542H45.834V43.7764H70.4842C72.5643 43.7764 74.2572 42.1726 74.2572 40.2021V9.22559C74.2572 7.25511 72.5643 5.65137 70.4842 5.65137ZM48.9782 50.9248C50.3656 50.9248 51.4935 51.9933 51.4935 53.3076H32.6286C32.6286 51.9933 33.7566 50.9248 35.1439 50.9248H48.9782ZM43.3187 48.542H40.8034V43.7764H43.3187V48.542ZM71.7419 40.2021C71.7419 40.8588 71.1774 41.3936 70.4842 41.3936H13.6379C12.9447 41.3936 12.3802 40.8588 12.3802 40.2021V9.22559C12.3802 8.56892 12.9447 8.03418 13.6379 8.03418H70.4842C71.1774 8.03418 71.7419 8.56892 71.7419 9.22559V40.2021Z" fill="#A16646"/>
<path d="M37.3448 31.7418C37.1277 31.7418 36.9105 31.6883 36.716 31.5822C36.3269 31.3695 36.0872 30.9763 36.0872 30.5504V20.2327C36.0872 19.8068 36.3269 19.4136 36.716 19.2009C37.1051 18.9877 37.5846 18.9877 37.9737 19.2009L47.4061 24.3598C47.7952 24.5724 48.035 24.9657 48.035 25.3915C48.035 25.8169 47.7952 26.2102 47.4061 26.4233L37.9737 31.5822C37.7791 31.6883 37.562 31.7418 37.3448 31.7418ZM38.6025 22.2962V28.4869L44.262 25.3915L38.6025 22.2962Z" fill="#A16646"/>
<path d="M56.5453 24.5812C55.8506 24.5812 55.2866 24.0474 55.2866 23.3898C55.2866 22.7317 55.8496 22.1984 56.5438 22.1984H56.5453C57.2399 22.1984 57.8029 22.7317 57.8029 23.3898C57.8029 24.0474 57.2399 24.5812 56.5453 24.5812Z" fill="#A16646"/>
<path d="M67.2143 11.7275H16.9078C16.2136 11.7275 15.6501 12.2613 15.6501 12.9189V36.5088C15.6501 37.1664 16.2136 37.7002 16.9078 37.7002H67.2143C67.9085 37.7002 68.472 37.1664 68.472 36.5088V12.9189C68.472 12.2613 67.9085 11.7275 67.2143 11.7275ZM65.9566 35.3174H19.5651L24.9117 30.2525C25.4019 29.788 25.4019 29.0341 24.9117 28.5683C24.4199 28.1024 23.6235 28.1024 23.1332 28.5683L18.1655 33.2743V14.1104H64.5595L59.2105 19.1776C58.7202 19.6434 58.7202 20.3973 59.2105 20.8623C59.4556 21.0945 59.7779 21.2113 60.0997 21.2113C60.4215 21.2113 60.7437 21.0945 60.9889 20.8623L65.9566 16.1562V35.3174Z" fill="#A16646"/>
<path d="M27.5817 27.2321C26.8876 27.2321 26.3236 26.6987 26.3236 26.0406C26.3236 25.3826 26.8861 24.8492 27.5807 24.8492H27.5817C28.2764 24.8492 28.8394 25.3826 28.8394 26.0406C28.8394 26.6987 28.2764 27.2321 27.5817 27.2321Z" fill="#A16646"/>
</g>
<path d="M5.95169 82.6709H4.50638V72.5146H0.936066V71.249H9.49857V72.5146H5.95169V82.6709ZM14.147 82.8271C12.8605 82.8271 11.8501 82.4391 11.1158 81.6631C10.3866 80.8818 10.022 79.8089 10.022 78.4443C10.022 77.0693 10.3631 75.9756 11.0454 75.1631C11.7277 74.3454 12.6496 73.9365 13.8111 73.9365C14.8892 73.9365 15.7486 74.2855 16.3892 74.9834C17.0298 75.6761 17.3501 76.6162 17.3501 77.8037V78.6553H11.4751C11.5012 79.6292 11.7486 80.3688 12.2173 80.874C12.6861 81.3792 13.3501 81.6318 14.2095 81.6318C14.6678 81.6318 15.1027 81.5928 15.5142 81.5146C15.9256 81.4313 16.4074 81.2725 16.9595 81.0381V82.2725C16.4855 82.4756 16.0402 82.6188 15.6236 82.7021C15.2069 82.7855 14.7147 82.8271 14.147 82.8271ZM13.7954 75.085C13.1236 75.085 12.5923 75.3011 12.2017 75.7334C11.8111 76.1657 11.5793 76.7673 11.5064 77.5381H15.8736C15.8631 76.736 15.6783 76.1266 15.3189 75.71C14.9595 75.2933 14.4517 75.085 13.7954 75.085ZM26.0611 82.6709H24.6314V75.2646H22.1079C21.9621 77.1396 21.7642 78.6136 21.5142 79.6865C21.2694 80.7542 20.9465 81.5381 20.5454 82.0381C20.1496 82.5329 19.6418 82.7803 19.022 82.7803C18.6835 82.7803 18.4361 82.7438 18.2798 82.6709V81.6162C18.3892 81.6579 18.535 81.6787 18.7173 81.6787C19.2902 81.6787 19.746 81.0745 20.0845 79.8662C20.4283 78.6579 20.6965 76.7334 20.8892 74.0928H26.0611V82.6709ZM32.4283 82.8271C31.1418 82.8271 30.1314 82.4391 29.397 81.6631C28.6678 80.8818 28.3033 79.8089 28.3033 78.4443C28.3033 77.0693 28.6444 75.9756 29.3267 75.1631C30.009 74.3454 30.9309 73.9365 32.0923 73.9365C33.1704 73.9365 34.0298 74.2855 34.6704 74.9834C35.3111 75.6761 35.6314 76.6162 35.6314 77.8037V78.6553H29.7564C29.7824 79.6292 30.0298 80.3688 30.4986 80.874C30.9673 81.3792 31.6314 81.6318 32.4908 81.6318C32.9491 81.6318 33.384 81.5928 33.7954 81.5146C34.2069 81.4313 34.6887 81.2725 35.2408 81.0381V82.2725C34.7668 82.4756 34.3215 82.6188 33.9048 82.7021C33.4881 82.7855 32.996 82.8271 32.4283 82.8271ZM32.0767 75.085C31.4048 75.085 30.8736 75.3011 30.4829 75.7334C30.0923 76.1657 29.8605 76.7673 29.7876 77.5381H34.1548C34.1444 76.736 33.9595 76.1266 33.6001 75.71C33.2408 75.2933 32.7329 75.085 32.0767 75.085ZM44.8658 76.2568C44.8658 76.8089 44.7095 77.2308 44.397 77.5225C44.0845 77.8089 43.6392 78.0042 43.0611 78.1084V78.1787C43.785 78.2777 44.3111 78.4938 44.6392 78.8271C44.9725 79.1553 45.1392 79.598 45.1392 80.1553C45.1392 80.9678 44.8397 81.5902 44.2408 82.0225C43.647 82.4548 42.7902 82.6709 41.6704 82.6709H37.8111V74.0928H41.6548C43.7954 74.0928 44.8658 74.8141 44.8658 76.2568ZM43.7329 80.0771C43.7329 79.598 43.5454 79.262 43.1704 79.0693C42.7954 78.8766 42.246 78.7803 41.522 78.7803H39.2173V81.5381H41.5533C43.0064 81.5381 43.7329 81.0511 43.7329 80.0771ZM43.4908 76.3818C43.4908 75.9808 43.3345 75.6943 43.022 75.5225C42.7147 75.3506 42.2486 75.2646 41.6236 75.2646H39.2173V77.6162H41.3658C42.1314 77.6162 42.6756 77.5225 42.9986 77.335C43.3267 77.1423 43.4908 76.8245 43.4908 76.3818ZM48.3579 74.0928V79.3271L48.2954 80.8428L48.2642 81.2803L52.8579 74.0928H54.5845V82.6709H53.272V77.6162L53.2954 76.5303L53.3345 75.499L48.772 82.6709H47.0298V74.0928H48.3579ZM59.022 77.6318C60.6418 77.6318 61.4517 77.1943 61.4517 76.3193C61.4517 75.5068 60.8033 75.1006 59.5064 75.1006C59.0949 75.1006 58.7121 75.1396 58.3579 75.2178C58.0038 75.2959 57.5793 75.4391 57.0845 75.6475L56.5923 74.5303C57.4829 74.1344 58.4803 73.9365 59.5845 73.9365C60.5897 73.9365 61.3762 74.137 61.9439 74.5381C62.5116 74.9391 62.7954 75.4912 62.7954 76.1943C62.7954 77.1683 62.259 77.8011 61.1861 78.0928V78.1553C61.8371 78.3428 62.3163 78.6136 62.6236 78.9678C62.9309 79.3219 63.0845 79.7673 63.0845 80.3037C63.0845 81.0902 62.759 81.7074 62.1079 82.1553C61.4569 82.6032 60.5611 82.8271 59.4204 82.8271C58.16 82.8271 57.1861 82.6423 56.4986 82.2725V81.0068C57.4517 81.4548 58.4204 81.6787 59.4048 81.6787C60.1392 81.6787 60.7043 81.5563 61.1001 81.3115C61.496 81.0667 61.6939 80.7048 61.6939 80.2256C61.6939 79.736 61.4934 79.374 61.0923 79.1396C60.6913 78.9001 60.0767 78.7803 59.2486 78.7803H58.0923V77.6318H59.022ZM72.6236 78.3662C72.6236 79.7673 72.2694 80.861 71.5611 81.6475C70.8527 82.4339 69.8736 82.8271 68.6236 82.8271C67.8475 82.8271 67.16 82.6475 66.5611 82.2881C65.9621 81.9235 65.5012 81.4027 65.1783 80.7256C64.8553 80.0485 64.6939 79.262 64.6939 78.3662C64.6939 76.9704 65.0428 75.8844 65.7408 75.1084C66.4387 74.3271 67.4178 73.9365 68.6783 73.9365C69.8866 73.9365 70.8449 74.335 71.5533 75.1318C72.2668 75.9235 72.6236 77.0016 72.6236 78.3662ZM66.147 78.3662C66.147 79.4443 66.3579 80.2646 66.7798 80.8271C67.2069 81.3844 67.8345 81.6631 68.6626 81.6631C69.4803 81.6631 70.1027 81.3844 70.5298 80.8271C70.9569 80.2646 71.1704 79.4443 71.1704 78.3662C71.1704 77.2881 70.9543 76.4782 70.522 75.9365C70.0949 75.3896 69.4673 75.1162 68.6392 75.1162C66.9777 75.1162 66.147 76.1995 66.147 78.3662ZM78.9204 82.8271C77.7694 82.8271 76.884 82.4131 76.2642 81.585H76.1704L76.2017 81.9053C76.2434 82.3115 76.2642 82.6735 76.2642 82.9912V86.5146H74.8579V74.0928H76.0142L76.2017 75.2646H76.2642C76.5975 74.7959 76.9829 74.4574 77.4204 74.249C77.8579 74.0407 78.3631 73.9365 78.9361 73.9365C80.0506 73.9365 80.9152 74.3245 81.5298 75.1006C82.1496 75.8714 82.4595 76.96 82.4595 78.3662C82.4595 79.7673 82.1496 80.861 81.5298 81.6475C80.91 82.4339 80.0402 82.8271 78.9204 82.8271ZM78.6861 75.1162C77.8371 75.1162 77.2225 75.3558 76.8423 75.835C76.4673 76.3141 76.2746 77.0667 76.2642 78.0928V78.3662C76.2642 79.5277 76.4569 80.3688 76.8423 80.8896C77.2277 81.4053 77.8527 81.6631 78.7173 81.6631C79.4361 81.6631 79.996 81.3714 80.397 80.7881C80.8033 80.2048 81.0064 79.3923 81.0064 78.3506C81.0064 77.3037 80.8033 76.5042 80.397 75.9521C79.996 75.3949 79.4256 75.1162 78.6861 75.1162Z" fill="#A16646"/>
<defs>
<clipPath id="clip0">
<rect width="64.3923" height="61" fill="white" transform="translate(9.8649 0.170898)"/>
</clipPath>
</defs>
</svg>
