<svg width="63" height="88" viewBox="0 0 63 88" fill="none" xmlns="http://www.w3.org/2000/svg">
<g clip-path="url(#clip0)">
<rect width="62.2811" height="59" transform="translate(0.0183716)" fill="white"/>
<path d="M5.17586 23.6744C4.85322 23.6744 4.54246 23.5533 4.31438 23.3372L0.686481 19.9009C0.247902 19.4854 0.0107936 18.9331 0.0183963 18.3457C0.0264741 17.7605 0.276887 17.2163 0.724019 16.8139C8.96817 9.38935 19.7768 5.30078 31.1589 5.30078C42.5411 5.30078 53.3497 9.38935 61.5939 16.8139C62.041 17.2163 62.2914 17.76 62.2995 18.3457C62.3071 18.9335 62.0695 19.4859 61.6309 19.9013L58.7419 22.6359C57.8638 23.4668 56.4682 23.4835 55.5635 22.6746C48.9416 16.7472 40.2745 13.4829 31.1589 13.4829C21.6689 13.4829 12.7467 16.9827 6.03544 23.3372C5.80736 23.5533 5.49802 23.6744 5.17586 23.6744V23.6744ZM2.51873 18.3776L5.18869 20.906C12.2511 14.624 21.4251 11.1782 31.1589 11.1782C40.8495 11.1782 50.0668 14.6321 57.1282 20.9047L59.7987 18.3772C52.0235 11.4294 41.8597 7.60547 31.1589 7.60547C20.4582 7.60547 10.2939 11.4298 2.51873 18.3776Z" fill="#A16646"/>
<path d="M48.3467 31.5882C47.7969 31.5882 47.2462 31.3991 46.81 31.0187C43.5199 28.1496 39.462 26.259 35.0748 25.5505C34.4129 25.4438 33.9672 24.8483 34.0803 24.2208C34.1933 23.5938 34.8196 23.1707 35.4839 23.2787C40.284 24.0538 44.7273 26.1087 48.3438 29.2241L51.0152 26.6948C45.5883 21.9638 38.543 19.3607 31.1589 19.3607C23.7744 19.3607 16.7295 21.9638 11.3026 26.6948L13.974 29.2241C17.141 26.4962 20.9994 24.5557 25.1409 23.6086C25.7948 23.4592 26.451 23.84 26.6087 24.4585C26.7665 25.077 26.3645 25.6995 25.7116 25.8489C21.9212 26.7155 18.3926 28.5034 15.5079 31.0187C14.6084 31.8029 13.2252 31.7736 12.3589 30.9535L9.46945 28.2171C9.02802 27.7994 8.79091 27.2439 8.80232 26.6529C8.81325 26.0691 9.07887 25.5059 9.53075 25.1076C15.4247 19.9153 23.1058 17.056 31.1589 17.056C39.2121 17.056 46.8931 19.9153 52.7871 25.1076C53.239 25.5059 53.5041 26.0691 53.5155 26.6529C53.5265 27.2439 53.2898 27.7994 52.8484 28.2171L49.9589 30.953C49.5127 31.3752 48.9302 31.5882 48.3467 31.5882Z" fill="#A16646"/>
<path d="M39.5608 39.9171C39.0377 39.9171 38.5117 39.7442 38.0783 39.3958C36.1506 37.8465 33.693 36.993 31.1589 36.993C28.6249 36.993 26.1678 37.8465 24.24 39.3958C23.3253 40.1304 22.001 40.0832 21.159 39.286L18.2572 36.5384C17.8134 36.1179 17.5701 35.5364 17.5896 34.9422C17.6086 34.3521 17.8866 33.7899 18.3527 33.4C21.8879 30.4409 26.4362 28.8109 31.1589 28.8109C35.8816 28.8109 40.4299 30.4409 43.9656 33.4005C44.4313 33.7899 44.7097 34.3521 44.7287 34.9422C44.7478 35.5364 44.5045 36.1179 44.0607 36.5384L41.1588 39.286C40.7164 39.7051 40.1405 39.9171 39.5608 39.9171V39.9171ZM31.1589 34.6883C34.2228 34.6883 37.1959 35.7052 39.5466 37.5543L42.2237 35.0192C39.1522 32.5002 35.2302 31.1156 31.1589 31.1156C27.0882 31.1156 23.1657 32.5007 20.0942 35.0192L22.7718 37.5543C25.1219 35.7052 28.0951 34.6883 31.1589 34.6883V34.6883Z" fill="#A16646"/>
<path d="M31.1656 53.6992C27.3424 53.6992 24.2319 50.7536 24.2319 47.1327C24.2319 45.3794 24.9528 43.7306 26.2619 42.4891C27.5719 41.2485 29.3129 40.5657 31.1656 40.5657C33.0164 40.5657 34.7574 41.2485 36.0679 42.4882C37.3784 43.7306 38.0992 45.3799 38.0992 47.1327C38.0992 50.7536 34.9888 53.6992 31.1656 53.6992V53.6992ZM31.1656 42.8704C29.9625 42.8704 28.832 43.3137 27.9824 44.1186C27.1328 44.9243 26.6648 45.9947 26.6648 47.1327C26.6648 49.4824 28.6838 51.3946 31.1656 51.3946C33.6474 51.3946 35.6664 49.4824 35.6664 47.1327C35.6664 45.9947 35.1979 44.9239 34.3478 44.1181C33.4977 43.3137 32.3673 42.8704 31.1656 42.8704V42.8704Z" fill="#A16646"/>
<path d="M30.4162 25.231C29.7444 25.231 29.1989 24.7151 29.1989 24.0786C29.1989 23.4421 29.7434 22.9263 30.4148 22.9263H30.4162C31.0881 22.9263 31.6327 23.4421 31.6327 24.0786C31.6327 24.7151 31.0881 25.231 30.4162 25.231V25.231Z" fill="#A16646"/>
</g>
<path d="M12.5135 67.8789H14.1775L16.5135 77.3829L19.2175 67.8789H20.7695L23.4415 77.3829L25.7935 67.8789H27.4415L24.4815 79.6709H22.7855L19.9855 70.1669L17.1695 79.6709H15.4735L12.5135 67.8789ZM29.2529 69.6709C29.1676 69.6709 29.0983 69.6496 29.0449 69.6069C28.9916 69.5536 28.9649 69.4842 28.9649 69.3989V68.0549C28.9649 67.8629 29.0609 67.7669 29.2529 67.7669H30.4369C30.5223 67.7669 30.5863 67.7936 30.6289 67.8469C30.6716 67.9002 30.6929 67.9696 30.6929 68.0549V69.3989C30.6929 69.5802 30.6076 69.6709 30.4369 69.6709H29.2529ZM29.0289 71.1109H30.6289V79.6709H29.0289V71.1109ZM32.1367 74.3749H36.8887V75.6869H32.1367V74.3749ZM38.4363 70.3429C38.4363 69.4789 38.671 68.8549 39.1403 68.4709C39.6096 68.0762 40.175 67.8789 40.8363 67.8789C42.7776 67.8789 44.4523 67.9376 45.8603 68.0549V69.3669H41.2843C40.8896 69.3669 40.5856 69.4789 40.3723 69.7029C40.159 69.9162 40.0523 70.2202 40.0523 70.6149V73.3509L45.1403 73.4469V74.6949L40.0523 74.7909V79.6709H38.4363V70.3429ZM47.7685 69.6709C47.6832 69.6709 47.6139 69.6496 47.5605 69.6069C47.5072 69.5536 47.4805 69.4842 47.4805 69.3989V68.0549C47.4805 67.8629 47.5765 67.7669 47.7685 67.7669H48.9525C49.0379 67.7669 49.1019 67.7936 49.1445 67.8469C49.1872 67.9002 49.2085 67.9696 49.2085 68.0549V69.3989C49.2085 69.5802 49.1232 69.6709 48.9525 69.6709H47.7685ZM47.5445 71.1109H49.1445V79.6709H47.5445V71.1109Z" fill="#A16646"/>
<defs>
<clipPath id="clip0">
<rect width="62.2811" height="59" fill="white" transform="translate(0.0183716)"/>
</clipPath>
</defs>
</svg>
