<svg width="113" height="75" viewBox="0 0 113 75" fill="none" xmlns="http://www.w3.org/2000/svg">
<path d="M41.5076 26.9L38.8876 27.24V25.34L41.8276 24.06H44.4676V39H41.5076V26.9ZM51.3052 32H57.4252V34.4H51.3052V32ZM63.9337 36.62L68.8737 31.72C69.487 31.1333 69.927 30.6 70.1937 30.12C70.4737 29.64 70.6137 29.1333 70.6137 28.6C70.6137 28.04 70.4403 27.6133 70.0937 27.32C69.7603 27.0267 69.207 26.88 68.4337 26.88H64.2737V24.56C65.127 24.4133 65.9137 24.3 66.6337 24.22C67.367 24.1267 68.1603 24.08 69.0137 24.08C70.667 24.08 71.8403 24.42 72.5337 25.1C73.227 25.7667 73.5737 26.7733 73.5737 28.12C73.5737 29.08 73.3803 29.94 72.9937 30.7C72.6203 31.4467 72.0203 32.22 71.1937 33.02L67.8737 36.32H74.0337V39H63.9337V36.62ZM13.8145 55.2773V59.1836C13.8145 60.4076 14.5013 61.0195 15.875 61.0195C16.474 61.0195 17.0404 60.9316 17.5742 60.7559C18.1146 60.5736 18.7135 60.2806 19.3711 59.877V55.2773H21.1289V66H19.3711V61.2246C18.6549 61.6868 18.0072 62.0091 17.4277 62.1914C16.8548 62.3737 16.2168 62.4648 15.5137 62.4648C14.446 62.4648 13.6029 62.1849 12.9844 61.625C12.3659 61.0651 12.0566 60.2904 12.0566 59.3008V55.2773H13.8145ZM29.0977 66.1953C27.4896 66.1953 26.2266 65.7103 25.3086 64.7402C24.3971 63.7637 23.9414 62.4225 23.9414 60.7168C23.9414 58.998 24.3678 57.6309 25.2207 56.6152C26.0736 55.5931 27.2259 55.082 28.6777 55.082C30.0254 55.082 31.0996 55.5182 31.9004 56.3906C32.7012 57.2565 33.1016 58.4316 33.1016 59.916V60.9805H25.7578C25.7904 62.1979 26.0996 63.1224 26.6855 63.7539C27.2715 64.3854 28.1016 64.7012 29.1758 64.7012C29.7487 64.7012 30.2923 64.6523 30.8066 64.5547C31.321 64.4505 31.9232 64.252 32.6133 63.959V65.502C32.0208 65.7559 31.4642 65.9349 30.9434 66.0391C30.4225 66.1432 29.8073 66.1953 29.0977 66.1953ZM28.6582 56.5176C27.8184 56.5176 27.1543 56.7878 26.666 57.3281C26.1777 57.8685 25.888 58.6204 25.7969 59.584H31.2559C31.2428 58.5814 31.0117 57.8197 30.5625 57.2988C30.1133 56.778 29.4785 56.5176 28.6582 56.5176ZM43.9902 66H42.2031V56.7422H39.0488C38.8665 59.0859 38.6191 60.9284 38.3066 62.2695C38.0007 63.6042 37.597 64.584 37.0957 65.209C36.6009 65.8275 35.9661 66.1367 35.1914 66.1367C34.7682 66.1367 34.459 66.0911 34.2637 66V64.6816C34.4004 64.7337 34.5827 64.7598 34.8105 64.7598C35.5267 64.7598 36.0964 64.0046 36.5195 62.4941C36.9492 60.9837 37.2845 58.5781 37.5254 55.2773H43.9902V66ZM56.7051 60.6191C56.7051 62.3704 56.2624 63.7376 55.377 64.7207C54.4915 65.7038 53.2676 66.1953 51.7051 66.1953C50.735 66.1953 49.8757 65.9707 49.127 65.5215C48.3783 65.0658 47.8021 64.4147 47.3984 63.5684C46.9948 62.722 46.793 61.7389 46.793 60.6191C46.793 58.8743 47.2292 57.5169 48.1016 56.5469C48.974 55.5703 50.1979 55.082 51.7734 55.082C53.2839 55.082 54.4818 55.5801 55.3672 56.5762C56.2591 57.5658 56.7051 58.9134 56.7051 60.6191ZM48.6094 60.6191C48.6094 61.9668 48.873 62.9922 49.4004 63.6953C49.9342 64.3919 50.7188 64.7402 51.7539 64.7402C52.776 64.7402 53.554 64.3919 54.0879 63.6953C54.6217 62.9922 54.8887 61.9668 54.8887 60.6191C54.8887 59.2715 54.6185 58.2591 54.0781 57.582C53.5443 56.8984 52.7598 56.5566 51.7246 56.5566C49.6478 56.5566 48.6094 57.9108 48.6094 60.6191ZM68.3164 57.9824C68.3164 58.6725 68.1211 59.1999 67.7305 59.5645C67.3398 59.9225 66.7832 60.1667 66.0605 60.2969V60.3848C66.9655 60.5085 67.623 60.7786 68.0332 61.1953C68.4499 61.6055 68.6582 62.1589 68.6582 62.8555C68.6582 63.8711 68.2839 64.6491 67.5352 65.1895C66.793 65.7298 65.722 66 64.3223 66H59.498V55.2773H64.3027C66.9785 55.2773 68.3164 56.179 68.3164 57.9824ZM66.9004 62.7578C66.9004 62.1589 66.666 61.7389 66.1973 61.498C65.7285 61.2572 65.0417 61.1367 64.1367 61.1367H61.2559V64.584H64.1758C65.9922 64.584 66.9004 63.9753 66.9004 62.7578ZM66.5977 58.1387C66.5977 57.6374 66.4023 57.2793 66.0117 57.0645C65.6276 56.8496 65.0449 56.7422 64.2637 56.7422H61.2559V59.6816H63.9414C64.8984 59.6816 65.5788 59.5645 65.9824 59.3301C66.3926 59.0892 66.5977 58.6921 66.5977 58.1387ZM75.582 66.1953C73.974 66.1953 72.7109 65.7103 71.793 64.7402C70.8815 63.7637 70.4258 62.4225 70.4258 60.7168C70.4258 58.998 70.8522 57.6309 71.7051 56.6152C72.5579 55.5931 73.7103 55.082 75.1621 55.082C76.5098 55.082 77.584 55.5182 78.3848 56.3906C79.1855 57.2565 79.5859 58.4316 79.5859 59.916V60.9805H72.2422C72.2747 62.1979 72.584 63.1224 73.1699 63.7539C73.7559 64.3854 74.5859 64.7012 75.6602 64.7012C76.2331 64.7012 76.7767 64.6523 77.291 64.5547C77.8053 64.4505 78.4076 64.252 79.0977 63.959V65.502C78.5052 65.7559 77.9486 65.9349 77.4277 66.0391C76.9069 66.1432 76.2917 66.1953 75.582 66.1953ZM75.1426 56.5176C74.3027 56.5176 73.6387 56.7878 73.1504 57.3281C72.6621 57.8685 72.3724 58.6204 72.2812 59.584H77.7402C77.7272 58.5814 77.4961 57.8197 77.0469 57.2988C76.5977 56.778 75.9629 56.5176 75.1426 56.5176ZM88.6484 55.2773H90.5723L85.9922 60.4434L90.9531 66H88.9121L84.0684 60.5605V66H82.3105V55.2773H84.0684V60.4824L88.6484 55.2773ZM99.5176 66L99.1758 64.4766H99.0977C98.5638 65.1471 98.0299 65.6029 97.4961 65.8438C96.9688 66.0781 96.3014 66.1953 95.4941 66.1953C94.4395 66.1953 93.6126 65.9186 93.0137 65.3652C92.4147 64.8118 92.1152 64.0306 92.1152 63.0215C92.1152 60.847 93.8307 59.7077 97.2617 59.6035L99.0781 59.5352V58.9004C99.0781 58.0866 98.9023 57.4876 98.5508 57.1035C98.1992 56.7129 97.6361 56.5176 96.8613 56.5176C96.2949 56.5176 95.7578 56.6022 95.25 56.7715C94.7487 56.9408 94.2767 57.1296 93.834 57.3379L93.2969 56.0195C93.8372 55.7331 94.4264 55.5085 95.0645 55.3457C95.7025 55.1829 96.334 55.1016 96.959 55.1016C98.2546 55.1016 99.2181 55.388 99.8496 55.9609C100.481 56.5339 100.797 57.4453 100.797 58.6953V66H99.5176ZM95.8945 64.7793C96.8776 64.7793 97.6491 64.5156 98.209 63.9883C98.7754 63.4544 99.0586 62.6992 99.0586 61.7227V60.7559L97.4766 60.8242C96.2461 60.8698 95.3477 61.0651 94.7812 61.4102C94.2214 61.7552 93.9414 62.2988 93.9414 63.041C93.9414 63.6009 94.1107 64.0306 94.4492 64.3301C94.7943 64.6296 95.276 64.7793 95.8945 64.7793Z" fill="#A16646"/>
<path d="M1.59375 0.578125H5.14844C6.76823 0.578125 7.94271 0.809896 8.67188 1.27344C9.40625 1.73177 9.77344 2.46354 9.77344 3.46875C9.77344 4.15104 9.61198 4.71094 9.28906 5.14844C8.97135 5.58594 8.54688 5.84896 8.01562 5.9375V6.01562C8.73958 6.17708 9.26042 6.47917 9.57812 6.92188C9.90104 7.36458 10.0625 7.95312 10.0625 8.6875C10.0625 9.72917 9.6849 10.5417 8.92969 11.125C8.17969 11.7083 7.15885 12 5.86719 12H1.59375V0.578125ZM4.01562 5.10156H5.42188C6.07812 5.10156 6.55208 5 6.84375 4.79688C7.14062 4.59375 7.28906 4.25781 7.28906 3.78906C7.28906 3.35156 7.1276 3.03906 6.80469 2.85156C6.48698 2.65885 5.98177 2.5625 5.28906 2.5625H4.01562V5.10156ZM4.01562 7.02344V10H5.59375C6.26042 10 6.7526 9.8724 7.07031 9.61719C7.38802 9.36198 7.54688 8.97135 7.54688 8.44531C7.54688 7.4974 6.86979 7.02344 5.51562 7.02344H4.01562ZM23.1641 12H20.9375V5.11719L20.8125 5.60156C20.5312 6.70052 20.2786 7.53125 20.0547 8.09375L18.5078 12H16.8125L15.2422 8.0625C15.0182 7.48958 14.7786 6.6849 14.5234 5.64844L14.375 5.11719V12H12.1562V3.26562H15.4375L16.9375 6.99219C17.0938 7.39323 17.237 7.85417 17.3672 8.375C17.5026 8.89583 17.5938 9.34115 17.6406 9.71094C17.8125 8.92969 17.9453 8.36979 18.0391 8.03125C18.138 7.6875 18.2448 7.3724 18.3594 7.08594C18.474 6.79948 18.9922 5.52604 19.9141 3.26562H23.1641V12ZM29.2891 4.79688C28.7839 4.79688 28.388 4.95833 28.1016 5.28125C27.8151 5.59896 27.651 6.05208 27.6094 6.64062H30.9531C30.9427 6.05208 30.7891 5.59896 30.4922 5.28125C30.1953 4.95833 29.7943 4.79688 29.2891 4.79688ZM29.625 12.1562C28.2188 12.1562 27.1198 11.7682 26.3281 10.9922C25.5365 10.2161 25.1406 9.11719 25.1406 7.69531C25.1406 6.23177 25.5052 5.10156 26.2344 4.30469C26.9688 3.5026 27.9818 3.10156 29.2734 3.10156C30.5078 3.10156 31.4688 3.45312 32.1562 4.15625C32.8438 4.85938 33.1875 5.83073 33.1875 7.07031V8.22656H27.5547C27.5807 8.90365 27.7812 9.43229 28.1562 9.8125C28.5312 10.1927 29.0573 10.3828 29.7344 10.3828C30.2604 10.3828 30.7578 10.3281 31.2266 10.2188C31.6953 10.1094 32.1849 9.9349 32.6953 9.69531V11.5391C32.2786 11.7474 31.8333 11.901 31.3594 12C30.8854 12.1042 30.3073 12.1562 29.625 12.1562ZM38.6719 12.1562C35.9531 12.1562 34.5938 10.6641 34.5938 7.67969C34.5938 6.19531 34.9635 5.0625 35.7031 4.28125C36.4427 3.49479 37.5026 3.10156 38.8828 3.10156C39.8932 3.10156 40.7995 3.29948 41.6016 3.69531L40.8984 5.53906C40.5234 5.38802 40.1745 5.26562 39.8516 5.17188C39.5286 5.07292 39.2057 5.02344 38.8828 5.02344C37.6432 5.02344 37.0234 5.90365 37.0234 7.66406C37.0234 9.3724 37.6432 10.2266 38.8828 10.2266C39.3411 10.2266 39.7656 10.1667 40.1562 10.0469C40.5469 9.92188 40.9375 9.72917 41.3281 9.46875V11.5078C40.9427 11.7526 40.5521 11.9219 40.1562 12.0156C39.7656 12.1094 39.2708 12.1562 38.6719 12.1562ZM50.5859 3.26562V5.05469H47.7266V12H45.3438V5.05469H42.4766V3.26562H50.5859ZM54.5234 3.26562V6.71875C54.5234 7.08333 54.4635 7.97396 54.3438 9.39062L58.375 3.26562H61.2422V12H58.9375V8.51562C58.9375 7.89583 58.9896 7.02083 59.0938 5.89062L55.0781 12H52.2188V3.26562H54.5234ZM74.7578 12H72.5312V5.11719L72.4062 5.60156C72.125 6.70052 71.8724 7.53125 71.6484 8.09375L70.1016 12H68.4062L66.8359 8.0625C66.612 7.48958 66.3724 6.6849 66.1172 5.64844L65.9688 5.11719V12H63.75V3.26562H67.0312L68.5312 6.99219C68.6875 7.39323 68.8307 7.85417 68.9609 8.375C69.0964 8.89583 69.1875 9.34115 69.2344 9.71094C69.4062 8.92969 69.5391 8.36979 69.6328 8.03125C69.7318 7.6875 69.8385 7.3724 69.9531 7.08594C70.0677 6.79948 70.5859 5.52604 71.5078 3.26562H74.7578V12ZM79.1641 7.61719C79.1641 8.48177 79.3047 9.13542 79.5859 9.57812C79.8724 10.0208 80.3359 10.2422 80.9766 10.2422C81.612 10.2422 82.0677 10.0234 82.3438 9.58594C82.625 9.14323 82.7656 8.48698 82.7656 7.61719C82.7656 6.7526 82.625 6.10417 82.3438 5.67188C82.0625 5.23958 81.6016 5.02344 80.9609 5.02344C80.3255 5.02344 79.8672 5.23958 79.5859 5.67188C79.3047 6.09896 79.1641 6.7474 79.1641 7.61719ZM85.2031 7.61719C85.2031 9.03906 84.8281 10.151 84.0781 10.9531C83.3281 11.7552 82.2839 12.1562 80.9453 12.1562C80.1068 12.1562 79.3672 11.974 78.7266 11.6094C78.0859 11.2396 77.5938 10.7109 77.25 10.0234C76.9062 9.33594 76.7344 8.53385 76.7344 7.61719C76.7344 6.1901 77.1068 5.08073 77.8516 4.28906C78.5964 3.4974 79.6432 3.10156 80.9922 3.10156C81.8307 3.10156 82.5703 3.28385 83.2109 3.64844C83.8516 4.01302 84.3438 4.53646 84.6875 5.21875C85.0312 5.90104 85.2031 6.70052 85.2031 7.61719ZM90.7188 12.1562C88 12.1562 86.6406 10.6641 86.6406 7.67969C86.6406 6.19531 87.0104 5.0625 87.75 4.28125C88.4896 3.49479 89.5495 3.10156 90.9297 3.10156C91.9401 3.10156 92.8464 3.29948 93.6484 3.69531L92.9453 5.53906C92.5703 5.38802 92.2214 5.26562 91.8984 5.17188C91.5755 5.07292 91.2526 5.02344 90.9297 5.02344C89.6901 5.02344 89.0703 5.90365 89.0703 7.66406C89.0703 9.3724 89.6901 10.2266 90.9297 10.2266C91.388 10.2266 91.8125 10.1667 92.2031 10.0469C92.5938 9.92188 92.9844 9.72917 93.375 9.46875V11.5078C92.9896 11.7526 92.599 11.9219 92.2031 12.0156C91.8125 12.1094 91.3177 12.1562 90.7188 12.1562ZM102.633 3.26562V5.05469H99.7734V12H97.3906V5.05469H94.5234V3.26562H102.633ZM106.648 6.64062H108.328C109.672 6.64062 110.667 6.85417 111.312 7.28125C111.958 7.70833 112.281 8.35417 112.281 9.21875C112.281 11.0729 110.995 12 108.422 12H104.266V3.26562H106.648V6.64062ZM109.898 9.25C109.898 8.91146 109.763 8.66667 109.492 8.51562C109.221 8.36458 108.818 8.28906 108.281 8.28906H106.648V10.3516H108.312C109.37 10.3516 109.898 9.98438 109.898 9.25Z" fill="#A16646"/>
</svg>
