<svg width="45" height="43" viewBox="0 0 45 43" fill="none" xmlns="http://www.w3.org/2000/svg">
<g clip-path="url(#clip0)">
<path d="M29.206 11.3235H15.794C13.6532 11.3235 11.9115 12.9878 11.9115 15.0334V27.8493C11.9115 29.895 13.6532 31.5597 15.794 31.5597H29.206C31.3468 31.5597 33.089 29.8954 33.089 27.8493V15.0334C33.089 12.9878 31.3473 11.3235 29.206 11.3235ZM22.5 28.1033C18.6562 28.1033 15.5288 25.1148 15.5288 21.4414C15.5288 17.7684 18.6562 14.7799 22.5 14.7799C26.3443 14.7799 29.4717 17.7684 29.4717 21.4414C29.4717 25.1144 26.3438 28.1033 22.5 28.1033ZM29.6958 16.1573C28.7859 16.1573 28.0459 15.4502 28.0459 14.5811C28.0459 13.7121 28.7859 13.005 29.6958 13.005C30.6053 13.005 31.3453 13.7121 31.3453 14.5811C31.3453 15.4502 30.6053 16.1573 29.6958 16.1573Z" fill="black"/>
<path d="M22.5 17.5952C20.281 17.5952 18.4742 19.3208 18.4742 21.4412C18.4742 23.5625 20.281 25.2885 22.5 25.2885C24.72 25.2885 26.5253 23.5625 26.5253 21.4412C26.5253 19.3213 24.7195 17.5952 22.5 17.5952Z" fill="black"/>
<path d="M22.5 0C10.0741 0 0 9.62635 0 21.5C0 33.3736 10.0741 43 22.5 43C34.9259 43 45 33.3736 45 21.5C45 9.62635 34.9259 0 22.5 0ZM36.0344 27.9659C36.0344 31.5642 32.9717 34.4908 29.206 34.4908H15.794C12.0288 34.4908 8.96561 31.5642 8.96561 27.9659V15.15C8.96561 11.5522 12.0288 8.6251 15.794 8.6251H29.206C32.9717 8.6251 36.0344 11.5522 36.0344 15.15V27.9659Z" fill="black"/>
</g>
<defs>
<clipPath id="clip0">
<rect width="45" height="43" fill="white" transform="matrix(1 0 0 -1 0 43)"/>
</clipPath>
</defs>
</svg>
