<svg width="45" height="43" viewBox="0 0 45 43" fill="none" xmlns="http://www.w3.org/2000/svg">
<path d="M22.5 43C34.9264 43 45 33.3741 45 21.5C45 9.62588 34.9264 0 22.5 0C10.0736 0 0 9.62588 0 21.5C0 33.3741 10.0736 43 22.5 43Z" fill="black"/>
<path fill-rule="evenodd" clip-rule="evenodd" d="M21.6501 30.9299H23.4161C23.4161 30.9299 23.9495 30.8739 24.2218 30.5934C24.4725 30.3358 24.4645 29.8521 24.4645 29.8521C24.4645 29.8521 24.43 27.5879 25.5298 27.2544C26.6139 26.926 28.0061 29.4428 29.4817 30.4105C30.5975 31.143 31.4454 30.9824 31.4454 30.9824L35.3908 30.9299C35.3908 30.9299 37.4548 30.8084 36.4762 29.2577C36.396 29.1308 35.9062 28.1106 33.5426 26.0142C31.0688 23.82 31.4 24.1749 34.3801 20.3795C36.195 18.0681 36.9206 16.657 36.694 16.0526C36.4778 15.4769 35.143 15.6291 35.143 15.6291L30.7006 15.6555C30.7006 15.6555 30.3713 15.6126 30.127 15.7521C29.8884 15.8889 29.7347 16.2078 29.7347 16.2078C29.7347 16.2078 29.0316 17.9964 28.0939 19.5176C26.1158 22.7274 25.3248 22.8968 25.0016 22.6975C24.2495 22.233 24.4372 20.8314 24.4372 19.8357C24.4372 16.7252 24.931 15.4282 23.4758 15.0925C22.9929 14.981 22.6376 14.9074 21.4026 14.8955C19.8175 14.8798 18.4759 14.9001 17.7163 15.2558C17.2109 15.4922 16.821 16.0192 17.0585 16.0495C17.3521 16.0871 18.0171 16.2208 18.3696 16.6796C18.8249 17.2713 18.8088 18.6005 18.8088 18.6005C18.8088 18.6005 19.0703 22.2621 18.198 22.717C17.5992 23.029 16.7777 22.392 15.0142 19.48C14.1105 17.9884 13.4283 16.3396 13.4283 16.3396C13.4283 16.3396 13.2967 16.0315 13.0621 15.8667C12.7773 15.667 12.3794 15.6034 12.3794 15.6034L8.15804 15.6298C8.15804 15.6298 7.52433 15.6467 7.2917 15.91C7.08474 16.1442 7.27525 16.6286 7.27525 16.6286C7.27525 16.6286 10.5802 24.017 14.3223 27.7404C17.7536 31.1541 21.6501 30.9299 21.6501 30.9299Z" fill="white"/>
</svg>
