<svg width="24" height="25" viewBox="0 0 24 25" fill="none" xmlns="http://www.w3.org/2000/svg">
<g clip-path="url(#clip0)">
<path d="M23.2818 12.9717C23.2818 19.601 18.1181 24.9751 11.7483 24.9751C5.37855 24.9751 0.214844 19.601 0.214844 12.9717C0.214844 6.34238 5.37855 0.968262 11.7483 0.968262C18.1181 0.968262 23.2818 6.34238 23.2818 12.9717Z" fill="#F2F2F2"/>
<path d="M16.618 10.571H7.39119C6.54189 10.571 5.85339 11.2876 5.85339 12.1715V16.9729C5.85339 17.8568 6.54189 18.5733 7.39119 18.5733H16.618C17.4673 18.5733 18.1558 17.8568 18.1558 16.9729V12.1715C18.1558 11.2876 17.4673 10.571 16.618 10.571Z" stroke="#C4C4C4" stroke-linecap="round" stroke-linejoin="round"/>
<path d="M5.84082 12.2048V10.0039H18.1684V12.2048H5.84082Z" fill="#C4C4C4" stroke="#A16646"/>
<path d="M7.89124 9.00406V7.87012H8.42903V9.00406H7.89124Z" fill="#C4C4C4" stroke="#A16646"/>
<path d="M15.5802 9.00406V7.87012H16.118V9.00406H15.5802Z" fill="#C4C4C4" stroke="#A16646"/>
<path d="M7.89124 15.4059V14.272H8.94163V15.4059H7.89124Z" fill="#C4C4C4" stroke="#A16646"/>
</g>
<defs>
<clipPath id="clip0">
<rect width="23.0669" height="24.0068" fill="white" transform="translate(0.214844 0.968262)"/>
</clipPath>
</defs>
</svg>
