<svg width="149" height="67" viewBox="0 0 149 67" fill="none" xmlns="http://www.w3.org/2000/svg">
<rect x="0.228821" y="0.874023" width="148.487" height="65.7925" fill="#FFFBFB"/>
<path d="M11.28 13.2H17.1C19.9133 13.2 21.32 14.4933 21.32 17.08C21.32 17.96 21.14 18.68 20.78 19.24C20.42 19.7867 19.9133 20.1467 19.26 20.32C19.98 20.4933 20.58 20.88 21.06 21.48C21.5533 22.08 21.8 22.8933 21.8 23.92C21.8 25.3867 21.4267 26.4333 20.68 27.06C19.9467 27.6867 18.84 28 17.36 28H11.28V13.2ZM17.12 19.3C17.5467 19.3 17.88 19.14 18.12 18.82C18.3733 18.5 18.5 18.0733 18.5 17.54C18.5 16.9533 18.3667 16.5267 18.1 16.26C17.8467 15.9933 17.5067 15.86 17.08 15.86H14.24V19.3H17.12ZM17.28 25.34C18.4133 25.34 18.98 24.6933 18.98 23.4C18.98 22.84 18.82 22.4 18.5 22.08C18.1933 21.7467 17.7867 21.58 17.28 21.58H14.24V25.34H17.28ZM28.2791 28.1C27.0657 28.1 26.1057 27.9333 25.3991 27.6C24.6924 27.2533 24.1724 26.6867 23.8391 25.9C23.5191 25.1 23.3591 24 23.3591 22.6C23.3591 21.1467 23.5191 20.0267 23.8391 19.24C24.1724 18.44 24.6924 17.8867 25.3991 17.58C26.1057 17.26 27.0657 17.1 28.2791 17.1C29.5057 17.1 30.4724 17.2667 31.1791 17.6C31.8857 17.92 32.3991 18.48 32.7191 19.28C33.0524 20.0667 33.2191 21.1733 33.2191 22.6C33.2191 24.0267 33.0591 25.14 32.7391 25.94C32.4191 26.7267 31.9057 27.2867 31.1991 27.62C30.4924 27.94 29.5191 28.1 28.2791 28.1ZM28.2791 25.74C28.7991 25.74 29.1924 25.6733 29.4591 25.54C29.7257 25.3933 29.9257 25.1 30.0591 24.66C30.1924 24.2067 30.2591 23.52 30.2591 22.6C30.2591 21.68 30.1924 21 30.0591 20.56C29.9257 20.1067 29.7257 19.8133 29.4591 19.68C29.1924 19.5333 28.7991 19.46 28.2791 19.46C27.7724 19.46 27.3857 19.5333 27.1191 19.68C26.8524 19.8133 26.6524 20.1067 26.5191 20.56C26.3857 21 26.3191 21.68 26.3191 22.6C26.3191 23.52 26.3857 24.2067 26.5191 24.66C26.6524 25.1 26.8524 25.3933 27.1191 25.54C27.3857 25.6733 27.7724 25.74 28.2791 25.74ZM39.783 28.1C38.5696 28.1 37.6096 27.9333 36.903 27.6C36.1963 27.2533 35.6763 26.6867 35.343 25.9C35.023 25.1 34.863 24 34.863 22.6C34.863 21.1467 35.023 20.0267 35.343 19.24C35.6763 18.44 36.1963 17.8867 36.903 17.58C37.6096 17.26 38.5696 17.1 39.783 17.1C41.0096 17.1 41.9763 17.2667 42.683 17.6C43.3896 17.92 43.903 18.48 44.223 19.28C44.5563 20.0667 44.723 21.1733 44.723 22.6C44.723 24.0267 44.563 25.14 44.243 25.94C43.923 26.7267 43.4096 27.2867 42.703 27.62C41.9963 27.94 41.023 28.1 39.783 28.1ZM39.783 25.74C40.303 25.74 40.6963 25.6733 40.963 25.54C41.2296 25.3933 41.4296 25.1 41.563 24.66C41.6963 24.2067 41.763 23.52 41.763 22.6C41.763 21.68 41.6963 21 41.563 20.56C41.4296 20.1067 41.2296 19.8133 40.963 19.68C40.6963 19.5333 40.303 19.46 39.783 19.46C39.2763 19.46 38.8896 19.5333 38.623 19.68C38.3563 19.8133 38.1563 20.1067 38.023 20.56C37.8896 21 37.823 21.68 37.823 22.6C37.823 23.52 37.8896 24.2067 38.023 24.66C38.1563 25.1 38.3563 25.3933 38.623 25.54C38.8896 25.6733 39.2763 25.74 39.783 25.74ZM46.6869 12.74H49.6469V20.98H50.9069L53.2669 17.26H56.2669L53.1069 22.32L56.5869 28H53.5869L50.8669 23.64H49.6469V28H46.6869V12.74ZM58.1211 15.68C57.9878 15.68 57.8811 15.6467 57.8011 15.58C57.7344 15.5 57.7011 15.4 57.7011 15.28V13.32C57.7011 13.04 57.8411 12.9 58.1211 12.9H60.4011C60.5211 12.9 60.6144 12.94 60.6811 13.02C60.7478 13.1 60.7811 13.2 60.7811 13.32V15.28C60.7811 15.5467 60.6544 15.68 60.4011 15.68H58.1211ZM57.7611 17.26H60.7211V28H57.7611V17.26ZM62.9955 17.26H65.4355L65.9555 18.36C66.3955 18 66.9221 17.7 67.5355 17.46C68.1488 17.2067 68.7488 17.08 69.3355 17.08C70.5488 17.08 71.4088 17.4267 71.9155 18.12C72.4221 18.8133 72.6755 19.7467 72.6755 20.92V28H69.7155V21.3C69.7155 20.7933 69.5755 20.4067 69.2955 20.14C69.0288 19.8733 68.6555 19.74 68.1755 19.74C67.4421 19.74 66.7021 20.0067 65.9555 20.54V28H62.9955V17.26ZM85.03 18.88L83.39 19.18C83.63 19.4333 83.8233 19.7267 83.97 20.06C84.1167 20.3933 84.19 20.8467 84.19 21.42C84.19 22.42 83.8767 23.22 83.25 23.82C82.6233 24.4067 81.6433 24.7 80.31 24.7H78.41C77.5967 24.7 77.19 24.9467 77.19 25.44C77.19 25.6533 77.2767 25.8067 77.45 25.9C77.6367 25.9933 77.8633 26.04 78.13 26.04H81.09C82.37 26.04 83.3367 26.3 83.99 26.82C84.6433 27.3267 84.97 28.14 84.97 29.26V29.56C84.97 30.64 84.63 31.4733 83.95 32.06C83.27 32.66 82.25 32.96 80.89 32.96H77.67C76.63 32.96 75.7833 32.7333 75.13 32.28C74.4767 31.8267 74.15 31.1933 74.15 30.38V30.06C74.15 29.5267 74.2967 29.06 74.59 28.66C74.8833 28.26 75.2767 27.9467 75.77 27.72C75.05 27.2933 74.69 26.7 74.69 25.94C74.69 25.4067 74.8433 24.96 75.15 24.6C75.47 24.2267 75.91 23.9733 76.47 23.84C75.87 23.52 75.43 23.0933 75.15 22.56C74.8833 22.0267 74.75 21.4267 74.75 20.76C74.75 19.5733 75.1167 18.6933 75.85 18.12C76.5833 17.5467 77.7033 17.26 79.21 17.26H85.03V18.88ZM79.97 22.48C80.5433 22.48 80.9433 22.3533 81.17 22.1C81.3967 21.8467 81.51 21.48 81.51 21C81.51 20.4533 81.39 20.0667 81.15 19.84C80.91 19.6 80.5433 19.48 80.05 19.48H78.93C78.41 19.48 78.0233 19.5933 77.77 19.82C77.53 20.0467 77.41 20.4267 77.41 20.96C77.41 21.48 77.5233 21.8667 77.75 22.12C77.99 22.36 78.35 22.48 78.83 22.48H79.97ZM78.45 28.26C77.9967 28.26 77.63 28.3667 77.35 28.58C77.0833 28.7933 76.95 29.0933 76.95 29.48V29.7C76.95 30.0867 77.0767 30.38 77.33 30.58C77.5967 30.78 77.9833 30.88 78.49 30.88H80.53C81.0367 30.88 81.4367 30.78 81.73 30.58C82.0233 30.3933 82.17 30.1067 82.17 29.72V29.4C82.17 29.04 82.0367 28.76 81.77 28.56C81.5167 28.36 81.13 28.26 80.61 28.26H78.45Z" fill="black"/>
<path d="M86.8706 28.02C86.7506 28.02 86.6506 27.9867 86.5706 27.92C86.504 27.8533 86.4706 27.7533 86.4706 27.62V25.58C86.4706 25.3 86.604 25.16 86.8706 25.16H88.5906C88.884 25.16 89.0306 25.3 89.0306 25.58V27.62C89.0306 27.8867 88.884 28.02 88.5906 28.02H86.8706ZM95.3981 28.12C93.9715 28.12 92.8648 27.7133 92.0781 26.9C91.2915 26.0867 90.8981 24.68 90.8981 22.68C90.8981 21.2533 91.0715 20.1333 91.4181 19.32C91.7648 18.5067 92.2715 17.9333 92.9381 17.6C93.6048 17.2667 94.4515 17.1 95.4781 17.1C96.7715 17.1 98.0181 17.2667 99.2181 17.6V19.3H96.3981C95.7581 19.3 95.2581 19.3933 94.8981 19.58C94.5381 19.7667 94.2715 20.1 94.0981 20.58C93.9381 21.06 93.8581 21.7533 93.8581 22.66C93.8581 23.5533 93.9381 24.2333 94.0981 24.7C94.2715 25.1533 94.5381 25.4667 94.8981 25.64C95.2581 25.8 95.7715 25.88 96.4381 25.88H99.3781V27.56C98.8715 27.72 98.2515 27.8533 97.5181 27.96C96.7848 28.0667 96.0781 28.12 95.3981 28.12ZM105.623 28.1C104.409 28.1 103.449 27.9333 102.743 27.6C102.036 27.2533 101.516 26.6867 101.183 25.9C100.863 25.1 100.703 24 100.703 22.6C100.703 21.1467 100.863 20.0267 101.183 19.24C101.516 18.44 102.036 17.8867 102.743 17.58C103.449 17.26 104.409 17.1 105.623 17.1C106.849 17.1 107.816 17.2667 108.523 17.6C109.229 17.92 109.743 18.48 110.063 19.28C110.396 20.0667 110.563 21.1733 110.563 22.6C110.563 24.0267 110.403 25.14 110.083 25.94C109.763 26.7267 109.249 27.2867 108.543 27.62C107.836 27.94 106.863 28.1 105.623 28.1ZM105.623 25.74C106.143 25.74 106.536 25.6733 106.803 25.54C107.069 25.3933 107.269 25.1 107.403 24.66C107.536 24.2067 107.603 23.52 107.603 22.6C107.603 21.68 107.536 21 107.403 20.56C107.269 20.1067 107.069 19.8133 106.803 19.68C106.536 19.5333 106.143 19.46 105.623 19.46C105.116 19.46 104.729 19.5333 104.463 19.68C104.196 19.8133 103.996 20.1067 103.863 20.56C103.729 21 103.663 21.68 103.663 22.6C103.663 23.52 103.729 24.2067 103.863 24.66C103.996 25.1 104.196 25.3933 104.463 25.54C104.729 25.6733 105.116 25.74 105.623 25.74ZM112.527 17.26H114.967L115.487 18.36C116.033 17.9467 116.58 17.6333 117.127 17.42C117.673 17.1933 118.32 17.08 119.067 17.08C119.72 17.08 120.273 17.22 120.727 17.5C121.18 17.7667 121.527 18.1333 121.767 18.6C122.313 18.1867 122.92 17.8333 123.587 17.54C124.253 17.2333 124.9 17.08 125.527 17.08C126.753 17.08 127.627 17.42 128.147 18.1C128.667 18.78 128.927 19.76 128.927 21.04V28H125.967V21.3C125.967 20.7933 125.827 20.4067 125.547 20.14C125.28 19.8733 124.907 19.74 124.427 19.74C124.04 19.74 123.64 19.82 123.227 19.98C122.827 20.14 122.46 20.34 122.127 20.58C122.18 20.9267 122.207 21.1867 122.207 21.36V28H119.247V21.3C119.247 20.7933 119.107 20.4067 118.827 20.14C118.56 19.8733 118.187 19.74 117.707 19.74C116.973 19.74 116.233 20.0067 115.487 20.54V28H112.527V17.26Z" fill="#31548A"/>
<path d="M13.8242 46.4414H14.8203C15.7513 46.4414 16.4479 46.2591 16.9102 45.8945C17.3724 45.5234 17.6035 44.9863 17.6035 44.2832C17.6035 43.5736 17.4082 43.0495 17.0176 42.7109C16.6335 42.3724 16.028 42.2031 15.2012 42.2031H13.8242V46.4414ZM20.6602 44.1758C20.6602 45.7122 20.1784 46.8874 19.2148 47.7012C18.2578 48.515 16.8939 48.9219 15.123 48.9219H13.8242V54H10.7969V39.7227H15.3574C17.0892 39.7227 18.4043 40.097 19.3027 40.8457C20.2077 41.5879 20.6602 42.6979 20.6602 44.1758ZM27.6426 44.9961C27.0111 44.9961 26.5163 45.1979 26.1582 45.6016C25.8001 45.9987 25.5951 46.5651 25.543 47.3008H29.7227C29.7096 46.5651 29.5176 45.9987 29.1465 45.6016C28.7754 45.1979 28.2741 44.9961 27.6426 44.9961ZM28.0625 54.1953C26.3047 54.1953 24.931 53.7103 23.9414 52.7402C22.9518 51.7702 22.457 50.3965 22.457 48.6191C22.457 46.7897 22.9128 45.377 23.8242 44.3809C24.7422 43.3783 26.0085 42.877 27.623 42.877C29.166 42.877 30.3672 43.3164 31.2266 44.1953C32.0859 45.0742 32.5156 46.2884 32.5156 47.8379V49.2832H25.4746C25.5072 50.1296 25.7578 50.7904 26.2266 51.2656C26.6953 51.7409 27.3529 51.9785 28.1992 51.9785C28.8568 51.9785 29.4785 51.9102 30.0645 51.7734C30.6504 51.6367 31.2624 51.4186 31.9004 51.1191V53.4238C31.3796 53.6842 30.8229 53.8763 30.2305 54C29.638 54.1302 28.9154 54.1953 28.0625 54.1953ZM37.8184 43.082V47.3984C37.8184 47.8542 37.7435 48.9674 37.5938 50.7383L42.6328 43.082H46.2168V54H43.3359V49.6445C43.3359 48.8698 43.401 47.776 43.5312 46.3633L38.5117 54H34.9375V43.082H37.8184ZM45.3379 38.3848C45.2142 39.6022 44.7552 40.4909 43.9609 41.0508C43.1667 41.6042 42.0208 41.8809 40.5234 41.8809C38.9805 41.8809 37.8379 41.6139 37.0957 41.0801C36.36 40.5462 35.9466 39.6478 35.8555 38.3848H38.5215C38.5671 39.0553 38.7331 39.5273 39.0195 39.8008C39.3125 40.0677 39.8333 40.2012 40.582 40.2012C41.2396 40.2012 41.7279 40.0547 42.0469 39.7617C42.3724 39.4622 42.571 39.0033 42.6426 38.3848H45.3379ZM58.3848 43.082V45.3184H54.8105V54H51.832V45.3184H48.248V43.082H58.3848ZM63.3066 43.082V47.3984C63.3066 47.8542 63.2318 48.9674 63.082 50.7383L68.1211 43.082H71.7051V54H68.8242V49.6445C68.8242 48.8698 68.8893 47.776 69.0195 46.3633L64 54H60.4258V43.082H63.3066ZM77.8184 43.082V47.2812H81.9785V43.082H84.957V54H81.9785V49.498H77.8184V54H74.8398V43.082H77.8184ZM95.6211 43.082V45.3184H91.0605V54H88.082V43.082H95.6211ZM104.486 41.9L101.866 42.24V40.34L104.806 39.06H107.446V54H104.486V41.9ZM113.668 54.08C112.414 54.08 111.454 53.7533 110.788 53.1C110.121 52.4467 109.788 51.5 109.788 50.26V43.06C109.788 41.78 110.128 40.8 110.808 40.12C111.501 39.4267 112.461 39.08 113.688 39.08H116.768C117.994 39.08 118.928 39.4267 119.568 40.12C120.208 40.8133 120.528 41.7933 120.528 43.06V50.26C120.528 51.4867 120.194 52.4333 119.528 53.1C118.874 53.7533 117.954 54.08 116.768 54.08H113.668ZM115.968 51.42C117.034 51.42 117.568 50.8867 117.568 49.82V43.34C117.568 42.2733 117.074 41.74 116.088 41.74H114.268C113.774 41.74 113.394 41.88 113.128 42.16C112.874 42.4267 112.748 42.82 112.748 43.34V49.8C112.748 50.88 113.288 51.42 114.368 51.42H115.968ZM123.117 54.02C122.997 54.02 122.897 53.9867 122.817 53.92C122.75 53.8533 122.717 53.7533 122.717 53.62V51.58C122.717 51.3 122.85 51.16 123.117 51.16H124.837C125.13 51.16 125.277 51.3 125.277 51.58V53.62C125.277 53.8867 125.13 54.02 124.837 54.02H123.117ZM131.304 54.08C130.051 54.08 129.091 53.7533 128.424 53.1C127.758 52.4467 127.424 51.5 127.424 50.26V43.06C127.424 41.78 127.764 40.8 128.444 40.12C129.138 39.4267 130.098 39.08 131.324 39.08H134.404C135.631 39.08 136.564 39.4267 137.204 40.12C137.844 40.8133 138.164 41.7933 138.164 43.06V50.26C138.164 51.4867 137.831 52.4333 137.164 53.1C136.511 53.7533 135.591 54.08 134.404 54.08H131.304ZM133.604 51.42C134.671 51.42 135.204 50.8867 135.204 49.82V43.34C135.204 42.2733 134.711 41.74 133.724 41.74H131.904C131.411 41.74 131.031 41.88 130.764 42.16C130.511 42.4267 130.384 42.82 130.384 43.34V49.8C130.384 50.88 130.924 51.42 132.004 51.42H133.604Z" fill="black"/>
</svg>
