<svg width="81" height="54" viewBox="0 0 81 54" fill="none" xmlns="http://www.w3.org/2000/svg">
<rect width="81" height="54" fill="#288A86"/>
<g filter="url(#filter0_d)">
<path d="M26.0406 17.64L21.0806 17.96V13.56L26.8406 11.08H32.9606V41H26.0406V17.64ZM44.9197 41.2C42.3064 41.2 40.3197 40.52 38.9597 39.16C37.6264 37.8 36.9597 35.8533 36.9597 33.32V19.32C36.9597 16.68 37.653 14.6533 39.0397 13.24C40.4264 11.8 42.3997 11.08 44.9597 11.08H51.2797C53.7864 11.08 55.693 11.8 56.9997 13.24C58.3064 14.6533 58.9597 16.68 58.9597 19.32V33.32C58.9597 35.8 58.2797 37.7333 56.9197 39.12C55.5864 40.5067 53.693 41.2 51.2397 41.2H44.9197ZM49.3597 35C50.2664 35 50.933 34.7867 51.3597 34.36C51.813 33.9067 52.0397 33.2133 52.0397 32.28V20.04C52.0397 19.0267 51.8264 18.32 51.3997 17.92C50.9997 17.4933 50.413 17.28 49.6397 17.28H46.3597C44.7064 17.28 43.8797 18.2 43.8797 20.04V32.24C43.8797 33.2 44.1064 33.9067 44.5597 34.36C45.013 34.7867 45.693 35 46.5997 35H49.3597Z" fill="white"/>
</g>
<defs>
<filter id="filter0_d" x="17.0806" y="11.08" width="45.8791" height="38.12" filterUnits="userSpaceOnUse" color-interpolation-filters="sRGB">
<feFlood flood-opacity="0" result="BackgroundImageFix"/>
<feColorMatrix in="SourceAlpha" type="matrix" values="0 0 0 0 0 0 0 0 0 0 0 0 0 0 0 0 0 0 127 0"/>
<feOffset dy="4"/>
<feGaussianBlur stdDeviation="2"/>
<feColorMatrix type="matrix" values="0 0 0 0 0 0 0 0 0 0 0 0 0 0 0 0 0 0 0.25 0"/>
<feBlend mode="normal" in2="BackgroundImageFix" result="effect1_dropShadow"/>
<feBlend mode="normal" in="SourceGraphic" in2="effect1_dropShadow" result="shape"/>
</filter>
</defs>
</svg>
