<svg width="70" height="72" viewBox="0 0 70 72" fill="none" xmlns="http://www.w3.org/2000/svg">
<path d="M56.3239 4.07104C52.2661 4.07104 48.8866 6.27553 48.2345 9.15984H38.5477C37.792 9.15984 37.1805 9.61584 37.1805 10.1776C37.1805 10.7394 37.792 11.1954 38.5477 11.1954H48.2345C48.8866 14.0797 52.2661 16.2842 56.3239 16.2842C60.8479 16.2842 64.5287 13.5442 64.5287 10.1776C64.5287 6.81104 60.8479 4.07104 56.3239 4.07104ZM56.3239 14.2486C53.3081 14.2486 50.8541 12.4226 50.8541 10.1776C50.8541 7.93257 53.3081 6.10656 56.3239 6.10656C59.3403 6.10656 61.7943 7.93257 61.7943 10.1776C61.7943 12.4226 59.3403 14.2486 56.3239 14.2486Z" fill="#A16646"/>
<path d="M56.8205 0H51.536C51.4623 0 51.3886 0.00397557 51.316 0.0131194L9.68513 5.0613L3.59955 3.55178C2.76855 3.34544 1.84731 3.45 1.13594 3.83166C0.42511 4.21331 0 4.83032 0 5.48271V14.8722C0 15.5246 0.42511 16.1416 1.13594 16.5233C1.60645 16.7753 2.16988 16.9069 2.73705 16.9069C3.02704 16.9069 3.3181 16.8723 3.59848 16.8032L9.68353 15.2936L48.1197 19.9753V22.0863C45.0024 22.5582 42.6493 24.6144 42.6493 27.0721C42.6493 29.5298 45.0024 31.5859 48.1197 32.0578V36.6389C48.1197 40.0054 51.7999 42.7454 56.3255 42.7454C60.8479 42.7454 64.5286 40.0054 64.5286 36.6389V18.42C65.1054 18.0984 65.6485 17.7402 66.1484 17.3514C68.6328 15.426 70 12.8785 70 10.1775C70 4.56555 64.0869 0 56.8205 0ZM8.20473 13.5146L2.73438 14.8722V5.48351L8.20473 6.84037V13.5146ZM48.1197 29.9512C46.5266 29.5309 45.3837 28.3991 45.3837 27.0721C45.3837 25.745 46.5266 24.6132 48.1197 24.1929V29.9512ZM61.7942 36.6389C61.7942 38.8839 59.3413 40.7099 56.3228 40.7099C53.3064 40.7099 50.854 38.8839 50.854 36.6389V20.308L51.1301 20.3418C51.2028 20.351 51.2765 20.3549 51.3502 20.3549H56.8205C58.5108 20.3549 60.246 20.1108 61.7942 19.5988V36.6389ZM64.1756 15.942C63.6383 16.3591 63.0423 16.7316 62.4014 17.0492C60.732 17.8797 58.8013 18.3194 56.8205 18.3194H51.4607L49.7053 18.1056L10.9391 13.3834V6.97156L51.6471 2.03549H56.8205C62.5803 2.03549 67.2656 5.68825 67.2656 10.1775C67.2656 12.3505 66.1692 14.3971 64.1756 15.942C66.1692 14.3971 63.6383 16.3591 64.1756 15.942Z" fill="#A16646"/>
<path d="M33.0807 11.1952C32.3255 11.1952 31.7124 10.7395 31.7124 10.1772C31.7124 9.6149 32.3239 9.15918 33.0791 9.15918H33.0807C33.8358 9.15918 34.4479 9.6149 34.4479 10.1772C34.4479 10.7395 33.8358 11.1952 33.0807 11.1952Z" fill="#A16646"/>
<path d="M29.1562 52.4141H30.5781V53.8203H31.1094C32.0156 53.8203 32.7969 54.0026 33.4531 54.3672C34.1146 54.7266 34.6172 55.2292 34.9609 55.875C35.3047 56.5208 35.4766 57.2552 35.4766 58.0781C35.4766 58.9375 35.2839 59.7031 34.8984 60.375C34.513 61.0469 33.9792 61.5521 33.2969 61.8906C32.6146 62.2292 31.8099 62.3984 30.8828 62.3984H30.5781V64.1562H29.1562V62.3984H28.8203C27.8932 62.3984 27.0911 62.2266 26.4141 61.8828C25.737 61.5339 25.2083 61.0234 24.8281 60.3516C24.4479 59.6797 24.2578 58.9219 24.2578 58.0781C24.2578 57.2708 24.4349 56.5443 24.7891 55.8984C25.1432 55.2474 25.651 54.7396 26.3125 54.375C26.974 54.0052 27.7526 53.8203 28.6484 53.8203H29.1562V52.4141ZM30.5781 61.2188H30.7734C31.7995 61.2188 32.5964 60.9401 33.1641 60.3828C33.737 59.8203 34.0234 59.0469 34.0234 58.0625C34.0234 57.125 33.7578 56.388 33.2266 55.8516C32.7005 55.3099 31.9635 55.0391 31.0156 55.0391H30.5781V61.2188ZM29.1562 55.0391H28.7266C27.7839 55.0391 27.0469 55.3125 26.5156 55.8594C25.9844 56.401 25.7188 57.1354 25.7188 58.0625C25.7188 59.0469 26.0026 59.8203 26.5703 60.3828C27.138 60.9401 27.9427 61.2188 28.9844 61.2188H29.1562V55.0391ZM41.3281 64.1562C40.0417 64.1562 39.0312 63.7682 38.2969 62.9922C37.5677 62.2109 37.2031 61.138 37.2031 59.7734C37.2031 58.3984 37.5443 57.3047 38.2266 56.4922C38.9089 55.6745 39.8307 55.2656 40.9922 55.2656C42.0703 55.2656 42.9297 55.6146 43.5703 56.3125C44.2109 57.0052 44.5312 57.9453 44.5312 59.1328V59.9844H38.6562C38.6823 60.9583 38.9297 61.6979 39.3984 62.2031C39.8672 62.7083 40.5312 62.9609 41.3906 62.9609C41.849 62.9609 42.2839 62.9219 42.6953 62.8438C43.1068 62.7604 43.5885 62.6016 44.1406 62.3672V63.6016C43.6667 63.8047 43.2214 63.9479 42.8047 64.0312C42.388 64.1146 41.8958 64.1562 41.3281 64.1562ZM40.9766 56.4141C40.3047 56.4141 39.7734 56.6302 39.3828 57.0625C38.9922 57.4948 38.7604 58.0964 38.6875 58.8672H43.0547C43.0443 58.0651 42.8594 57.4557 42.5 57.0391C42.1406 56.6224 41.6328 56.4141 40.9766 56.4141ZM48.1172 55.4219V58.9922H52.7734V55.4219H54.1797V64H52.7734V60.1797H48.1172V64H46.7109V55.4219H48.1172Z" fill="#A16646"/>
</svg>
