<svg width="128" height="74" viewBox="0 0 128 74" fill="none" xmlns="http://www.w3.org/2000/svg">
<path d="M6.82812 66L3.0625 55.9844H3C3.07812 56.8177 3.11719 57.8464 3.11719 59.0703V66H1.78906V54.5781H3.91406L7.4375 63.9375H7.5L11.0859 54.5781H13.1953V66H11.7734V58.9766C11.7734 58.1953 11.8099 57.2031 11.8828 56H11.8203L8.00781 66H6.82812ZM17.4375 57.4219V62.6562L17.375 64.1719L17.3438 64.6094L21.9375 57.4219H23.6641V66H22.3516V60.9453L22.375 59.8594L22.4141 58.8281L17.8516 66H16.1094V57.4219H17.4375ZM31.4766 57.4219H33.0156L29.3516 61.5547L33.3203 66H31.6875L27.8125 61.6484V66H26.4062V57.4219H27.8125V61.5859L31.4766 57.4219ZM38.9375 66.1562C37.7865 66.1562 36.901 65.7422 36.2812 64.9141H36.1875L36.2188 65.2344C36.2604 65.6406 36.2812 66.0026 36.2812 66.3203V69.8438H34.875V57.4219H36.0312L36.2188 58.5938H36.2812C36.6146 58.125 37 57.7865 37.4375 57.5781C37.875 57.3698 38.3802 57.2656 38.9531 57.2656C40.0677 57.2656 40.9323 57.6536 41.5469 58.4297C42.1667 59.2005 42.4766 60.2891 42.4766 61.6953C42.4766 63.0964 42.1667 64.1901 41.5469 64.9766C40.9271 65.763 40.0573 66.1562 38.9375 66.1562ZM38.7031 58.4453C37.8542 58.4453 37.2396 58.6849 36.8594 59.1641C36.4844 59.6432 36.2917 60.3958 36.2812 61.4219V61.6953C36.2812 62.8568 36.474 63.6979 36.8594 64.2188C37.2448 64.7344 37.8698 64.9922 38.7344 64.9922C39.4531 64.9922 40.013 64.7005 40.4141 64.1172C40.8203 63.5339 41.0234 62.7214 41.0234 61.6797C41.0234 60.6328 40.8203 59.8333 40.4141 59.2812C40.013 58.724 39.4427 58.4453 38.7031 58.4453ZM52.1719 61.6953C52.1719 63.0964 51.8177 64.1901 51.1094 64.9766C50.401 65.763 49.4219 66.1562 48.1719 66.1562C47.3958 66.1562 46.7083 65.9766 46.1094 65.6172C45.5104 65.2526 45.0495 64.7318 44.7266 64.0547C44.4036 63.3776 44.2422 62.5911 44.2422 61.6953C44.2422 60.2995 44.5911 59.2135 45.2891 58.4375C45.987 57.6562 46.9661 57.2656 48.2266 57.2656C49.4349 57.2656 50.3932 57.6641 51.1016 58.4609C51.8151 59.2526 52.1719 60.3307 52.1719 61.6953ZM45.6953 61.6953C45.6953 62.7734 45.9062 63.5938 46.3281 64.1562C46.7552 64.7135 47.3828 64.9922 48.2109 64.9922C49.0286 64.9922 49.651 64.7135 50.0781 64.1562C50.5052 63.5938 50.7188 62.7734 50.7188 61.6953C50.7188 60.6172 50.5026 59.8073 50.0703 59.2656C49.6432 58.7188 49.0156 58.4453 48.1875 58.4453C46.526 58.4453 45.6953 59.5286 45.6953 61.6953ZM61.4609 59.5859C61.4609 60.138 61.3047 60.5599 60.9922 60.8516C60.6797 61.138 60.2344 61.3333 59.6562 61.4375V61.5078C60.3802 61.6068 60.9062 61.8229 61.2344 62.1562C61.5677 62.4844 61.7344 62.9271 61.7344 63.4844C61.7344 64.2969 61.4349 64.9193 60.8359 65.3516C60.2422 65.7839 59.3854 66 58.2656 66H54.4062V57.4219H58.25C60.3906 57.4219 61.4609 58.1432 61.4609 59.5859ZM60.3281 63.4062C60.3281 62.9271 60.1406 62.5911 59.7656 62.3984C59.3906 62.2057 58.8411 62.1094 58.1172 62.1094H55.8125V64.8672H58.1484C59.6016 64.8672 60.3281 64.3802 60.3281 63.4062ZM60.0859 59.7109C60.0859 59.3099 59.9297 59.0234 59.6172 58.8516C59.3099 58.6797 58.8438 58.5938 58.2188 58.5938H55.8125V60.9453H57.9609C58.7266 60.9453 59.2708 60.8516 59.5938 60.6641C59.9219 60.4714 60.0859 60.1536 60.0859 59.7109ZM71.0781 61.6953C71.0781 63.0964 70.724 64.1901 70.0156 64.9766C69.3073 65.763 68.3281 66.1562 67.0781 66.1562C66.3021 66.1562 65.6146 65.9766 65.0156 65.6172C64.4167 65.2526 63.9557 64.7318 63.6328 64.0547C63.3099 63.3776 63.1484 62.5911 63.1484 61.6953C63.1484 60.2995 63.4974 59.2135 64.1953 58.4375C64.8932 57.6562 65.8724 57.2656 67.1328 57.2656C68.3411 57.2656 69.2995 57.6641 70.0078 58.4609C70.7214 59.2526 71.0781 60.3307 71.0781 61.6953ZM64.6016 61.6953C64.6016 62.7734 64.8125 63.5938 65.2344 64.1562C65.6615 64.7135 66.2891 64.9922 67.1172 64.9922C67.9349 64.9922 68.5573 64.7135 68.9844 64.1562C69.4115 63.5938 69.625 62.7734 69.625 61.6953C69.625 60.6172 69.4089 59.8073 68.9766 59.2656C68.5495 58.7188 67.9219 58.4453 67.0938 58.4453C65.4323 58.4453 64.6016 59.5286 64.6016 61.6953ZM79.8438 66H78.4141V58.5938H75.8906C75.7448 60.4688 75.5469 61.9427 75.2969 63.0156C75.0521 64.0833 74.7292 64.8672 74.3281 65.3672C73.9323 65.862 73.4245 66.1094 72.8047 66.1094C72.4661 66.1094 72.2188 66.0729 72.0625 66V64.9453C72.1719 64.987 72.3177 65.0078 72.5 65.0078C73.0729 65.0078 73.5286 64.4036 73.8672 63.1953C74.2109 61.987 74.4792 60.0625 74.6719 57.4219H79.8438V66ZM83.9688 57.4219V60.9922H88.625V57.4219H90.0312V66H88.625V62.1797H83.9688V66H82.5625V57.4219H83.9688ZM100.219 61.6953C100.219 63.0964 99.8646 64.1901 99.1562 64.9766C98.4479 65.763 97.4688 66.1562 96.2188 66.1562C95.4427 66.1562 94.7552 65.9766 94.1562 65.6172C93.5573 65.2526 93.0964 64.7318 92.7734 64.0547C92.4505 63.3776 92.2891 62.5911 92.2891 61.6953C92.2891 60.2995 92.638 59.2135 93.3359 58.4375C94.0339 57.6562 95.013 57.2656 96.2734 57.2656C97.4818 57.2656 98.4401 57.6641 99.1484 58.4609C99.862 59.2526 100.219 60.3307 100.219 61.6953ZM93.7422 61.6953C93.7422 62.7734 93.9531 63.5938 94.375 64.1562C94.8021 64.7135 95.4297 64.9922 96.2578 64.9922C97.0755 64.9922 97.6979 64.7135 98.125 64.1562C98.5521 63.5938 98.7656 62.7734 98.7656 61.6953C98.7656 60.6172 98.5495 59.8073 98.1172 59.2656C97.6901 58.7188 97.0625 58.4453 96.2344 58.4453C94.5729 58.4453 93.7422 59.5286 93.7422 61.6953ZM109.508 59.5859C109.508 60.138 109.352 60.5599 109.039 60.8516C108.727 61.138 108.281 61.3333 107.703 61.4375V61.5078C108.427 61.6068 108.953 61.8229 109.281 62.1562C109.615 62.4844 109.781 62.9271 109.781 63.4844C109.781 64.2969 109.482 64.9193 108.883 65.3516C108.289 65.7839 107.432 66 106.312 66H102.453V57.4219H106.297C108.438 57.4219 109.508 58.1432 109.508 59.5859ZM108.375 63.4062C108.375 62.9271 108.188 62.5911 107.812 62.3984C107.438 62.2057 106.888 62.1094 106.164 62.1094H103.859V64.8672H106.195C107.648 64.8672 108.375 64.3802 108.375 63.4062ZM108.133 59.7109C108.133 59.3099 107.977 59.0234 107.664 58.8516C107.357 58.6797 106.891 58.5938 106.266 58.5938H103.859V60.9453H106.008C106.773 60.9453 107.318 60.8516 107.641 60.6641C107.969 60.4714 108.133 60.1536 108.133 59.7109ZM116.742 57.4219H118.281L114.617 61.5547L118.586 66H116.953L113.078 61.6484V66H111.672V57.4219H113.078V61.5859L116.742 57.4219ZM125.438 66L125.164 64.7812H125.102C124.674 65.3177 124.247 65.6823 123.82 65.875C123.398 66.0625 122.865 66.1562 122.219 66.1562C121.375 66.1562 120.714 65.9349 120.234 65.4922C119.755 65.0495 119.516 64.4245 119.516 63.6172C119.516 61.8776 120.888 60.9661 123.633 60.8828L125.086 60.8281V60.3203C125.086 59.6693 124.945 59.1901 124.664 58.8828C124.383 58.5703 123.932 58.4141 123.312 58.4141C122.859 58.4141 122.43 58.4818 122.023 58.6172C121.622 58.7526 121.245 58.9036 120.891 59.0703L120.461 58.0156C120.893 57.7865 121.365 57.6068 121.875 57.4766C122.385 57.3464 122.891 57.2812 123.391 57.2812C124.427 57.2812 125.198 57.5104 125.703 57.9688C126.208 58.4271 126.461 59.1562 126.461 60.1562V66H125.438ZM122.539 65.0234C123.326 65.0234 123.943 64.8125 124.391 64.3906C124.844 63.9635 125.07 63.3594 125.07 62.5781V61.8047L123.805 61.8594C122.82 61.8958 122.102 62.0521 121.648 62.3281C121.201 62.6042 120.977 63.0391 120.977 63.6328C120.977 64.0807 121.112 64.4245 121.383 64.6641C121.659 64.9036 122.044 65.0234 122.539 65.0234Z" fill="#A16646"/>
<path d="M98.9068 0.0446777H47.8383C46.9964 0.0446777 46.3139 0.717866 46.3139 1.54819C46.3139 2.37793 46.9964 3.05112 47.8383 3.05112H83.7485V16.7144C83.7485 17.5447 84.431 18.2179 85.2729 18.2179C86.1148 18.2179 86.7974 17.5447 86.7974 16.7144V3.05112H98.9068C98.9644 3.05112 99.0109 3.09751 99.0109 3.15433V40.7868C99.0109 40.8436 98.9644 40.89 98.9068 40.89H86.7974V28.9964C86.7974 28.1661 86.1148 27.4929 85.2729 27.4929C84.431 27.4929 83.7485 28.1661 83.7485 28.9964V40.89H28.153C28.0954 40.89 28.049 40.8436 28.049 40.7868V3.15433C28.049 3.09751 28.0954 3.05112 28.153 3.05112H35.7578C36.5997 3.05112 37.2822 2.37793 37.2822 1.54761C37.2822 0.717866 36.5997 0.0446777 35.7578 0.0446777H28.153C26.4145 0.0446777 25 1.43976 25 3.15433V40.7868C25 42.5014 26.4145 43.8965 28.153 43.8965H41.2677V45.6458H38.4628C37.6209 45.6458 36.9383 46.319 36.9383 47.1487C36.9383 47.9791 37.6209 48.6523 38.4628 48.6523H86.5352C87.3771 48.6523 88.0597 47.9791 88.0597 47.1487C88.0597 46.319 87.3771 45.6458 86.5352 45.6458H83.4039V43.8965H98.9068C100.645 43.8965 102.06 42.5014 102.06 40.7868V3.15433C102.06 1.43976 100.645 0.0446777 98.9068 0.0446777V0.0446777ZM80.3556 45.6458H44.3167V43.8965H80.3556V45.6458Z" fill="#A16646"/>
<path d="M90.0773 18.6696H95.7237C96.5656 18.6696 97.2482 17.9964 97.2482 17.1661V7.67538C97.2482 6.84506 96.5656 6.17188 95.7237 6.17188H90.0773C89.2354 6.17188 88.5529 6.84506 88.5529 7.67538V17.1661C88.5529 17.9964 89.2354 18.6696 90.0773 18.6696V18.6696ZM91.6018 9.17889H94.1992V15.6626H91.6018V9.17889Z" fill="#A16646"/>
<path d="M90.0773 22.8664H95.7237C96.5656 22.8664 97.2482 22.1932 97.2482 21.3629C97.2482 20.5326 96.5656 19.8594 95.7237 19.8594H90.0773C89.2354 19.8594 88.5529 20.5326 88.5529 21.3629C88.5529 22.1932 89.2354 22.8664 90.0773 22.8664V22.8664Z" fill="#A16646"/>
<path d="M90.0773 27.0527H95.7237C96.5656 27.0527 97.2482 26.3795 97.2482 25.5492C97.2482 24.7194 96.5656 24.0457 95.7237 24.0457H90.0773C89.2354 24.0457 88.5529 24.7194 88.5529 25.5492C88.5529 26.3795 89.2354 27.0527 90.0773 27.0527V27.0527Z" fill="#A16646"/>
<path d="M88.5529 36.2668C88.5529 37.0971 89.2354 37.7703 90.0773 37.7703H95.7237C96.5656 37.7703 97.2482 37.0971 97.2482 36.2668V29.8556C97.2482 29.0252 96.5656 28.3521 95.7237 28.3521H90.0773C89.2354 28.3521 88.5529 29.0252 88.5529 29.8556V36.2668ZM91.6018 31.3585H94.1992V34.7633H91.6018V31.3585Z" fill="#A16646"/>
<path d="M31.7958 9.17889V34.7635C31.7958 36.4218 33.1639 37.7705 34.8447 37.7705H76.9761C78.657 37.7705 80.0245 36.4218 80.0245 34.7635V9.17889C80.0245 7.52115 78.657 6.17188 76.9761 6.17188H34.8447C33.1639 6.17188 31.7958 7.52057 31.7958 9.17889V9.17889ZM76.9761 34.7635H71.4274V29.6969H76.9761V34.7635ZM76.9761 26.6899H69.9035C69.0616 26.6899 68.379 27.3631 68.379 28.1934V34.7635H34.8447V9.17889H76.9761V26.6899Z" fill="#A16646"/>
<path d="M40.3423 2.09553C40.564 2.71248 41.1513 3.09691 41.7786 3.09691C41.9479 3.09691 42.1202 3.06907 42.2883 3.00993C43.082 2.73219 43.4971 1.87288 43.2155 1.09068L43.1832 1.00139C42.9015 0.218611 42.0303 -0.190752 41.2372 0.0869886C40.4435 0.364729 40.0284 1.22404 40.31 2.00624L40.3423 2.09553Z" fill="#A16646"/>
<path d="M83.8524 23.434C84.0741 24.0504 84.662 24.4348 85.2893 24.4348C85.458 24.4348 85.6303 24.407 85.7984 24.3484C86.5921 24.0707 87.0072 23.2114 86.7256 22.4286L86.6938 22.3393C86.4122 21.5565 85.5403 21.1477 84.7472 21.4249C83.9541 21.7026 83.5391 22.562 83.8201 23.3441L83.8524 23.434Z" fill="#A16646"/>
<path d="M46.2921 24.7764C45.9205 25.5215 46.2315 26.4219 46.987 26.789C47.2034 26.8939 47.4327 26.9432 47.659 26.9432C48.2216 26.9432 48.7625 26.6347 49.0277 26.103C49.7955 24.5641 49.7261 22.7632 48.8419 21.2858C48.4656 20.6572 48.455 19.8704 48.8148 19.2326C49.2235 18.5066 48.9583 17.5916 48.2222 17.1881C47.4862 16.7845 46.5584 17.0466 46.1498 17.7726C45.2673 19.3387 45.2926 21.2707 46.2162 22.8142C46.5761 23.4161 46.6049 24.1496 46.2921 24.7764Z" fill="#A16646"/>
<path d="M54.6617 24.7764C54.2901 25.5209 54.6011 26.4219 55.356 26.789C55.5729 26.8939 55.8022 26.9432 56.028 26.9432C56.5906 26.9432 57.1321 26.6347 57.3967 26.103C58.1645 24.5641 58.0951 22.7632 57.2109 21.2858C56.8352 20.6572 56.8246 19.8704 57.1838 19.2326C57.593 18.5066 57.3279 17.5916 56.5918 17.1881C55.8557 16.7851 54.9274 17.0466 54.5188 17.7725C53.6363 19.3393 53.6622 21.2707 54.5858 22.8142C54.9456 23.4161 54.9738 24.149 54.6617 24.7764Z" fill="#A16646"/>
<path d="M63.0313 24.7764C62.6598 25.5209 62.9708 26.4219 63.7263 26.789C63.9426 26.8939 64.1719 26.9432 64.3977 26.9432C64.9603 26.9432 65.5018 26.6347 65.7669 26.103C66.5348 24.5641 66.4648 22.7632 65.5806 21.2858C65.2049 20.6572 65.1943 19.8704 65.5535 19.2326C65.9627 18.5066 65.6976 17.5916 64.9615 17.1881C64.2254 16.7845 63.2977 17.0466 62.8885 17.7726C62.006 19.3387 62.0319 21.2707 62.9555 22.8142C63.3153 23.4161 63.3441 24.149 63.0313 24.7764V24.7764Z" fill="#A16646"/>
</svg>
