<svg width="83" height="74" viewBox="0 0 83 74" fill="none" xmlns="http://www.w3.org/2000/svg">
<path d="M5.39062 66H3.94531V55.8438H0.375V54.5781H8.9375V55.8438H5.39062V66ZM13.5859 66.1562C12.2995 66.1562 11.2891 65.7682 10.5547 64.9922C9.82552 64.2109 9.46094 63.138 9.46094 61.7734C9.46094 60.3984 9.80208 59.3047 10.4844 58.4922C11.1667 57.6745 12.0885 57.2656 13.25 57.2656C14.3281 57.2656 15.1875 57.6146 15.8281 58.3125C16.4688 59.0052 16.7891 59.9453 16.7891 61.1328V61.9844H10.9141C10.9401 62.9583 11.1875 63.6979 11.6562 64.2031C12.125 64.7083 12.7891 64.9609 13.6484 64.9609C14.1068 64.9609 14.5417 64.9219 14.9531 64.8438C15.3646 64.7604 15.8464 64.6016 16.3984 64.3672V65.6016C15.9245 65.8047 15.4792 65.9479 15.0625 66.0312C14.6458 66.1146 14.1536 66.1562 13.5859 66.1562ZM13.2344 58.4141C12.5625 58.4141 12.0312 58.6302 11.6406 59.0625C11.25 59.4948 11.0182 60.0964 10.9453 60.8672H15.3125C15.3021 60.0651 15.1172 59.4557 14.7578 59.0391C14.3984 58.6224 13.8906 58.4141 13.2344 58.4141ZM25.5 66H24.0703V58.5938H21.5469C21.401 60.4688 21.2031 61.9427 20.9531 63.0156C20.7083 64.0833 20.3854 64.8672 19.9844 65.3672C19.5885 65.862 19.0807 66.1094 18.4609 66.1094C18.1224 66.1094 17.875 66.0729 17.7188 66V64.9453C17.8281 64.987 17.974 65.0078 18.1562 65.0078C18.7292 65.0078 19.1849 64.4036 19.5234 63.1953C19.8672 61.987 20.1354 60.0625 20.3281 57.4219H25.5V66ZM31.8672 66.1562C30.5807 66.1562 29.5703 65.7682 28.8359 64.9922C28.1068 64.2109 27.7422 63.138 27.7422 61.7734C27.7422 60.3984 28.0833 59.3047 28.7656 58.4922C29.4479 57.6745 30.3698 57.2656 31.5312 57.2656C32.6094 57.2656 33.4688 57.6146 34.1094 58.3125C34.75 59.0052 35.0703 59.9453 35.0703 61.1328V61.9844H29.1953C29.2214 62.9583 29.4688 63.6979 29.9375 64.2031C30.4062 64.7083 31.0703 64.9609 31.9297 64.9609C32.388 64.9609 32.8229 64.9219 33.2344 64.8438C33.6458 64.7604 34.1276 64.6016 34.6797 64.3672V65.6016C34.2057 65.8047 33.7604 65.9479 33.3438 66.0312C32.9271 66.1146 32.4349 66.1562 31.8672 66.1562ZM31.5156 58.4141C30.8438 58.4141 30.3125 58.6302 29.9219 59.0625C29.5312 59.4948 29.2995 60.0964 29.2266 60.8672H33.5938C33.5833 60.0651 33.3984 59.4557 33.0391 59.0391C32.6797 58.6224 32.1719 58.4141 31.5156 58.4141ZM44.3047 59.5859C44.3047 60.138 44.1484 60.5599 43.8359 60.8516C43.5234 61.138 43.0781 61.3333 42.5 61.4375V61.5078C43.224 61.6068 43.75 61.8229 44.0781 62.1562C44.4115 62.4844 44.5781 62.9271 44.5781 63.4844C44.5781 64.2969 44.2786 64.9193 43.6797 65.3516C43.0859 65.7839 42.2292 66 41.1094 66H37.25V57.4219H41.0938C43.2344 57.4219 44.3047 58.1432 44.3047 59.5859ZM43.1719 63.4062C43.1719 62.9271 42.9844 62.5911 42.6094 62.3984C42.2344 62.2057 41.6849 62.1094 40.9609 62.1094H38.6562V64.8672H40.9922C42.4453 64.8672 43.1719 64.3802 43.1719 63.4062ZM42.9297 59.7109C42.9297 59.3099 42.7734 59.0234 42.4609 58.8516C42.1536 58.6797 41.6875 58.5938 41.0625 58.5938H38.6562V60.9453H40.8047C41.5703 60.9453 42.1146 60.8516 42.4375 60.6641C42.7656 60.4714 42.9297 60.1536 42.9297 59.7109ZM47.7969 57.4219V62.6562L47.7344 64.1719L47.7031 64.6094L52.2969 57.4219H54.0234V66H52.7109V60.9453L52.7344 59.8594L52.7734 58.8281L48.2109 66H46.4688V57.4219H47.7969ZM58.4609 60.9609C60.0807 60.9609 60.8906 60.5234 60.8906 59.6484C60.8906 58.8359 60.2422 58.4297 58.9453 58.4297C58.5339 58.4297 58.151 58.4688 57.7969 58.5469C57.4427 58.625 57.0182 58.7682 56.5234 58.9766L56.0312 57.8594C56.9219 57.4635 57.9193 57.2656 59.0234 57.2656C60.0286 57.2656 60.8151 57.4661 61.3828 57.8672C61.9505 58.2682 62.2344 58.8203 62.2344 59.5234C62.2344 60.4974 61.6979 61.1302 60.625 61.4219V61.4844C61.276 61.6719 61.7552 61.9427 62.0625 62.2969C62.3698 62.651 62.5234 63.0964 62.5234 63.6328C62.5234 64.4193 62.1979 65.0365 61.5469 65.4844C60.8958 65.9323 60 66.1562 58.8594 66.1562C57.599 66.1562 56.625 65.9714 55.9375 65.6016V64.3359C56.8906 64.7839 57.8594 65.0078 58.8438 65.0078C59.5781 65.0078 60.1432 64.8854 60.5391 64.6406C60.9349 64.3958 61.1328 64.0339 61.1328 63.5547C61.1328 63.0651 60.9323 62.7031 60.5312 62.4688C60.1302 62.2292 59.5156 62.1094 58.6875 62.1094H57.5312V60.9609H58.4609ZM72.0625 61.6953C72.0625 63.0964 71.7083 64.1901 71 64.9766C70.2917 65.763 69.3125 66.1562 68.0625 66.1562C67.2865 66.1562 66.599 65.9766 66 65.6172C65.401 65.2526 64.9401 64.7318 64.6172 64.0547C64.2943 63.3776 64.1328 62.5911 64.1328 61.6953C64.1328 60.2995 64.4818 59.2135 65.1797 58.4375C65.8776 57.6562 66.8568 57.2656 68.1172 57.2656C69.3255 57.2656 70.2839 57.6641 70.9922 58.4609C71.7057 59.2526 72.0625 60.3307 72.0625 61.6953ZM65.5859 61.6953C65.5859 62.7734 65.7969 63.5938 66.2188 64.1562C66.6458 64.7135 67.2734 64.9922 68.1016 64.9922C68.9193 64.9922 69.5417 64.7135 69.9688 64.1562C70.3958 63.5938 70.6094 62.7734 70.6094 61.6953C70.6094 60.6172 70.3932 59.8073 69.9609 59.2656C69.5339 58.7188 68.9062 58.4453 68.0781 58.4453C66.4167 58.4453 65.5859 59.5286 65.5859 61.6953ZM78.3594 66.1562C77.2083 66.1562 76.3229 65.7422 75.7031 64.9141H75.6094L75.6406 65.2344C75.6823 65.6406 75.7031 66.0026 75.7031 66.3203V69.8438H74.2969V57.4219H75.4531L75.6406 58.5938H75.7031C76.0365 58.125 76.4219 57.7865 76.8594 57.5781C77.2969 57.3698 77.8021 57.2656 78.375 57.2656C79.4896 57.2656 80.3542 57.6536 80.9688 58.4297C81.5885 59.2005 81.8984 60.2891 81.8984 61.6953C81.8984 63.0964 81.5885 64.1901 80.9688 64.9766C80.349 65.763 79.4792 66.1562 78.3594 66.1562ZM78.125 58.4453C77.276 58.4453 76.6615 58.6849 76.2812 59.1641C75.9062 59.6432 75.7135 60.3958 75.7031 61.4219V61.6953C75.7031 62.8568 75.8958 63.6979 76.2812 64.2188C76.6667 64.7344 77.2917 64.9922 78.1562 64.9922C78.875 64.9922 79.4349 64.7005 79.8359 64.1172C80.2422 63.5339 80.4453 62.7214 80.4453 61.6797C80.4453 60.6328 80.2422 59.8333 79.8359 59.2812C79.4349 58.724 78.8646 58.4453 78.125 58.4453Z" fill="#A16646"/>
<path d="M66.1491 0H11.6192C9.62395 0 8 1.53839 8 3.42857V33.1429C8 35.033 9.62395 36.5714 11.6192 36.5714H35.2649V41.1429H32.2489C29.5877 41.1429 27.4233 43.1933 27.4233 45.7143V46.8571C27.4233 47.4879 27.9638 48 28.6297 48H49.1387C49.8046 48 50.3451 47.4879 50.3451 46.8571V45.7143C50.3451 43.1933 48.1806 41.1429 45.5195 41.1429H42.5034V36.5714H66.1491C68.1444 36.5714 69.7684 35.033 69.7684 33.1429V3.42857C69.7684 1.53839 68.1444 0 66.1491 0ZM45.5195 43.4286C46.8503 43.4286 47.9323 44.4536 47.9323 45.7143H29.8361C29.8361 44.4536 30.9181 43.4286 32.2489 43.4286H45.5195ZM40.0906 41.1429H37.6778V36.5714H40.0906V41.1429ZM67.3555 33.1429C67.3555 33.7728 66.8141 34.2857 66.1491 34.2857H11.6192C10.9543 34.2857 10.4128 33.7728 10.4128 33.1429V3.42857C10.4128 2.79866 10.9543 2.28571 11.6192 2.28571H66.1491C66.8141 2.28571 67.3555 2.79866 67.3555 3.42857V33.1429Z" fill="#A16646"/>
<path d="M34.3602 25.0273C34.1519 25.0273 33.9436 24.9759 33.757 24.8741C33.3838 24.6701 33.1538 24.2929 33.1538 23.8844V13.9871C33.1538 13.5786 33.3838 13.2014 33.757 12.9973C34.1302 12.7929 34.5902 12.7929 34.9634 12.9973L44.0115 17.946C44.3848 18.15 44.6147 18.5273 44.6147 18.9357C44.6147 19.3438 44.3848 19.721 44.0115 19.9255L34.9634 24.8741C34.7768 24.9759 34.5685 25.0273 34.3602 25.0273ZM35.5666 15.9665V21.9049L40.9955 18.9357L35.5666 15.9665Z" fill="#A16646"/>
<path d="M52.7782 18.1585C52.1118 18.1585 51.5708 17.6465 51.5708 17.0157C51.5708 16.3844 52.1109 15.8728 52.7767 15.8728H52.7782C53.4445 15.8728 53.9846 16.3844 53.9846 17.0157C53.9846 17.6465 53.4445 18.1585 52.7782 18.1585Z" fill="#A16646"/>
<path d="M63.0125 5.82861H14.756C14.0901 5.82861 13.5496 6.34067 13.5496 6.97147V29.6C13.5496 30.2308 14.0901 30.7429 14.756 30.7429H63.0125C63.6784 30.7429 64.2189 30.2308 64.2189 29.6V6.97147C64.2189 6.34067 63.6784 5.82861 63.0125 5.82861ZM61.8061 28.4572H17.305L22.4337 23.5987C22.904 23.1532 22.904 22.43 22.4337 21.9831C21.9619 21.5362 21.198 21.5362 20.7277 21.9831L15.9624 26.4974V8.11433H60.4658L55.3348 12.975C54.8645 13.4219 54.8645 14.1451 55.3348 14.5911C55.57 14.8139 55.8791 14.9259 56.1878 14.9259C56.4965 14.9259 56.8056 14.8139 57.0408 14.5911L61.8061 10.0768V28.4572Z" fill="#A16646"/>
<path d="M24.9948 20.7015C24.329 20.7015 23.788 20.1899 23.788 19.5586C23.788 18.9274 24.3276 18.4158 24.9939 18.4158H24.9948C25.6612 18.4158 26.2013 18.9274 26.2013 19.5586C26.2013 20.1899 25.6612 20.7015 24.9948 20.7015Z" fill="#A16646"/>
</svg>
