<svg width="148" height="44" viewBox="0 0 148 44" fill="none" xmlns="http://www.w3.org/2000/svg">
<path d="M0 3C0 1.34315 1.34315 0 3 0H148V44H3C1.34315 44 0 42.6569 0 41V3Z" fill="#FFFBFB"/>
<path d="M20.36 8.72C22.2 8.72 23.54 9.12 24.38 9.92C25.2333 10.7067 25.66 11.7933 25.66 13.18C25.66 14.0067 25.4867 14.7867 25.14 15.52C24.7933 16.24 24.2133 16.82 23.4 17.26C22.6 17.7 21.5067 17.92 20.12 17.92H18.82V23H15.8V8.72H20.36ZM20.2 11.2H18.82V15.44H19.82C20.6733 15.44 21.3467 15.2733 21.84 14.94C22.3467 14.5933 22.6 14.04 22.6 13.28C22.6 11.8933 21.8 11.2 20.2 11.2ZM32.6186 11.88C34.1253 11.88 35.3186 12.3133 36.1986 13.18C37.0786 14.0333 37.5186 15.2533 37.5186 16.84V18.28H30.4786C30.5053 19.12 30.7519 19.78 31.2186 20.26C31.6986 20.74 32.3586 20.98 33.1986 20.98C33.9053 20.98 34.5453 20.9133 35.1186 20.78C35.6919 20.6333 36.2853 20.4133 36.8986 20.12V22.42C36.3653 22.6867 35.7986 22.88 35.1986 23C34.6119 23.1333 33.8986 23.2 33.0586 23.2C31.9653 23.2 30.9986 23 30.1586 22.6C29.3186 22.1867 28.6586 21.5667 28.1786 20.74C27.6986 19.9133 27.4586 18.8733 27.4586 17.62C27.4586 16.34 27.6719 15.28 28.0986 14.44C28.5386 13.5867 29.1453 12.9467 29.9186 12.52C30.6919 12.0933 31.5919 11.88 32.6186 11.88ZM32.6386 14C32.0653 14 31.5853 14.1867 31.1986 14.56C30.8253 14.9333 30.6053 15.5133 30.5386 16.3H34.7186C34.7053 15.6333 34.5319 15.0867 34.1986 14.66C33.8653 14.22 33.3453 14 32.6386 14ZM42.815 12.08V16.4C42.815 16.6267 42.8017 16.9067 42.775 17.24C42.7617 17.5733 42.7417 17.9133 42.715 18.26C42.7017 18.6067 42.6817 18.9133 42.655 19.18C42.6283 19.4467 42.6083 19.6333 42.595 19.74L47.635 12.08H51.215V23H48.335V18.64C48.335 18.28 48.3483 17.8867 48.375 17.46C48.4017 17.02 48.4283 16.6133 48.455 16.24C48.495 15.8533 48.5217 15.56 48.535 15.36L43.515 23H39.935V12.08H42.815ZM50.395 7.38C50.3283 8.07333 50.135 8.68667 49.815 9.22C49.495 9.74 48.995 10.1467 48.315 10.44C47.635 10.7333 46.7217 10.88 45.575 10.88C44.4017 10.88 43.4817 10.74 42.815 10.46C42.1617 10.1667 41.695 9.76 41.415 9.24C41.135 8.72 40.9683 8.1 40.915 7.38H43.575C43.6417 8.11333 43.8283 8.6 44.135 8.84C44.4417 9.08 44.9417 9.2 45.635 9.2C46.2083 9.2 46.675 9.07333 47.035 8.82C47.4083 8.55333 47.6283 8.07333 47.695 7.38H50.395ZM63.3695 14.32H59.7895V23H56.8095V14.32H53.2295V12.08H63.3695V14.32ZM68.2642 12.08V16.4C68.2642 16.6267 68.2509 16.9067 68.2242 17.24C68.2109 17.5733 68.1909 17.9133 68.1642 18.26C68.1509 18.6067 68.1309 18.9133 68.1042 19.18C68.0776 19.4467 68.0576 19.6333 68.0442 19.74L73.0842 12.08H76.6642V23H73.7842V18.64C73.7842 18.28 73.7976 17.8867 73.8242 17.46C73.8509 17.02 73.8776 16.6133 73.9042 16.24C73.9442 15.8533 73.9709 15.56 73.9842 15.36L68.9642 23H65.3842V12.08H68.2642ZM82.7588 12.08V16.28H86.9188V12.08H89.8988V23H86.9188V18.5H82.7588V23H79.7788V12.08H82.7588ZM100.561 12.08V14.32H96.0009V23H93.0209V12.08H100.561ZM111.228 23.08C110.041 23.08 109.095 22.8467 108.388 22.38C107.681 21.9 107.328 21.06 107.328 19.86V17.84C107.328 17.2533 107.475 16.74 107.768 16.3C108.061 15.86 108.461 15.58 108.968 15.46C108.408 15.1933 108.041 14.8533 107.868 14.44C107.708 14.0267 107.628 13.5 107.628 12.86V11.18C107.628 10.1133 107.948 9.33333 108.588 8.84C109.228 8.33333 110.061 8.08 111.088 8.08H113.888C114.901 8.08 115.721 8.33333 116.348 8.84C116.975 9.33333 117.288 10.1133 117.288 11.18V12.86C117.288 13.3267 117.181 13.8133 116.968 14.32C116.755 14.8267 116.421 15.1267 115.968 15.22C116.568 15.3533 116.981 15.6733 117.208 16.18C117.448 16.6733 117.568 17.2067 117.568 17.78V19.86C117.568 21.06 117.241 21.9 116.588 22.38C115.948 22.8467 115.061 23.08 113.928 23.08H111.228ZM113.188 14.18C113.641 14.18 113.955 14.0667 114.128 13.84C114.301 13.6 114.388 13.26 114.388 12.82V11.88C114.388 11.3867 114.288 11.0533 114.088 10.88C113.901 10.6933 113.615 10.6 113.228 10.6H111.748C111.295 10.6 110.975 10.6933 110.788 10.88C110.601 11.0533 110.508 11.3867 110.508 11.88V12.82C110.508 13.3133 110.601 13.6667 110.788 13.88C110.975 14.08 111.288 14.18 111.728 14.18H113.188ZM113.228 20.58C113.748 20.58 114.108 20.48 114.308 20.28C114.508 20.0667 114.608 19.7467 114.608 19.32V18C114.608 17.1333 114.148 16.7 113.228 16.7H111.728C111.341 16.7 111.001 16.8133 110.708 17.04C110.428 17.2667 110.288 17.5867 110.288 18V19.32C110.288 19.76 110.408 20.08 110.648 20.28C110.901 20.48 111.268 20.58 111.748 20.58H113.228ZM120.207 23.02C120.087 23.02 119.987 22.9867 119.907 22.92C119.84 22.8533 119.807 22.7533 119.807 22.62V20.58C119.807 20.3 119.94 20.16 120.207 20.16H121.927C122.22 20.16 122.367 20.3 122.367 20.58V22.62C122.367 22.8867 122.22 23.02 121.927 23.02H120.207ZM130.174 11.16H123.874V8.2H133.214L133.994 9.46L129.094 23H125.774L130.174 11.16Z" fill="#A16646"/>
<path d="M21 30L22.1226 33.4549H25.7553L22.8164 35.5902L23.9389 39.0451L21 36.9098L18.0611 39.0451L19.1836 35.5902L16.2447 33.4549H19.8774L21 30Z" fill="#A16646"/>
<path d="M33 30L34.1226 33.4549H37.7553L34.8164 35.5902L35.9389 39.0451L33 36.9098L30.0611 39.0451L31.1836 35.5902L28.2447 33.4549H31.8774L33 30Z" fill="#A16646"/>
<path d="M45 30L46.1226 33.4549H49.7553L46.8164 35.5902L47.9389 39.0451L45 36.9098L42.0611 39.0451L43.1836 35.5902L40.2447 33.4549H43.8774L45 30Z" fill="#A16646"/>
<path d="M57 30L58.1226 33.4549H61.7553L58.8164 35.5902L59.9389 39.0451L57 36.9098L54.0611 39.0451L55.1836 35.5902L52.2447 33.4549H55.8774L57 30Z" fill="#A16646"/>
<path d="M69 30L70.1226 33.4549H73.7553L70.8164 35.5902L71.9389 39.0451L69 36.9098L66.0611 39.0451L67.1836 35.5902L64.2447 33.4549H67.8774L69 30Z" fill="#A16646"/>
<path d="M81 30L82.1226 33.4549H85.7553L82.8164 35.5902L83.9389 39.0451L81 36.9098L78.0611 39.0451L79.1836 35.5902L76.2447 33.4549H79.8774L81 30Z" fill="#A16646"/>
<path d="M93 30L94.1226 33.4549H97.7553L94.8164 35.5902L95.9389 39.0451L93 36.9098L90.0611 39.0451L91.1836 35.5902L88.2447 33.4549H91.8774L93 30Z" fill="#A16646"/>
<path d="M105 30L106.123 33.4549H109.755L106.816 35.5902L107.939 39.0451L105 36.9098L102.061 39.0451L103.184 35.5902L100.245 33.4549H103.877L105 30Z" fill="#A16646"/>
<path d="M117 30L118.123 33.4549H121.755L118.816 35.5902L119.939 39.0451L117 36.9098L114.061 39.0451L115.184 35.5902L112.245 33.4549H115.877L117 30Z" fill="url(#paint0_linear)"/>
<path d="M129 30L130.123 33.4549H133.755L130.816 35.5902L131.939 39.0451L129 36.9098L126.061 39.0451L127.184 35.5902L124.245 33.4549H127.877L129 30Z" fill="url(#paint1_linear)"/>
<defs>
<linearGradient id="paint0_linear" x1="112.5" y1="33.5" x2="121.5" y2="33.5" gradientUnits="userSpaceOnUse">
<stop offset="0.635417" stop-color="#A16646"/>
<stop offset="0.635517" stop-color="#DBDADA"/>
</linearGradient>
<linearGradient id="paint1_linear" x1="124.5" y1="33.5" x2="133.5" y2="33.5" gradientUnits="userSpaceOnUse">
<stop offset="0.385317" stop-color="#DBDADA"/>
<stop offset="0.385417" stop-color="#DBDADA"/>
</linearGradient>
</defs>
</svg>
