<svg width="148" height="44" viewBox="0 0 148 44" fill="none" xmlns="http://www.w3.org/2000/svg">
<path d="M0 3C0 1.34315 1.34315 0 3 0H148V44H3C1.34315 44 0 42.6569 0 41V3Z" fill="#FFFBFB"/>
<path d="M20.36 7.72C22.2 7.72 23.54 8.12 24.38 8.92C25.2333 9.70667 25.66 10.7933 25.66 12.18C25.66 13.0067 25.4867 13.7867 25.14 14.52C24.7933 15.24 24.2133 15.82 23.4 16.26C22.6 16.7 21.5067 16.92 20.12 16.92H18.82V22H15.8V7.72H20.36ZM20.2 10.2H18.82V14.44H19.82C20.6733 14.44 21.3467 14.2733 21.84 13.94C22.3467 13.5933 22.6 13.04 22.6 12.28C22.6 10.8933 21.8 10.2 20.2 10.2ZM32.6186 10.88C34.1253 10.88 35.3186 11.3133 36.1986 12.18C37.0786 13.0333 37.5186 14.2533 37.5186 15.84V17.28H30.4786C30.5053 18.12 30.7519 18.78 31.2186 19.26C31.6986 19.74 32.3586 19.98 33.1986 19.98C33.9053 19.98 34.5453 19.9133 35.1186 19.78C35.6919 19.6333 36.2853 19.4133 36.8986 19.12V21.42C36.3653 21.6867 35.7986 21.88 35.1986 22C34.6119 22.1333 33.8986 22.2 33.0586 22.2C31.9653 22.2 30.9986 22 30.1586 21.6C29.3186 21.1867 28.6586 20.5667 28.1786 19.74C27.6986 18.9133 27.4586 17.8733 27.4586 16.62C27.4586 15.34 27.6719 14.28 28.0986 13.44C28.5386 12.5867 29.1453 11.9467 29.9186 11.52C30.6919 11.0933 31.5919 10.88 32.6186 10.88ZM32.6386 13C32.0653 13 31.5853 13.1867 31.1986 13.56C30.8253 13.9333 30.6053 14.5133 30.5386 15.3H34.7186C34.7053 14.6333 34.5319 14.0867 34.1986 13.66C33.8653 13.22 33.3453 13 32.6386 13ZM42.815 11.08V15.4C42.815 15.6267 42.8017 15.9067 42.775 16.24C42.7617 16.5733 42.7417 16.9133 42.715 17.26C42.7017 17.6067 42.6817 17.9133 42.655 18.18C42.6283 18.4467 42.6083 18.6333 42.595 18.74L47.635 11.08H51.215V22H48.335V17.64C48.335 17.28 48.3483 16.8867 48.375 16.46C48.4017 16.02 48.4283 15.6133 48.455 15.24C48.495 14.8533 48.5217 14.56 48.535 14.36L43.515 22H39.935V11.08H42.815ZM50.395 6.38C50.3283 7.07333 50.135 7.68667 49.815 8.22C49.495 8.74 48.995 9.14667 48.315 9.44C47.635 9.73333 46.7217 9.88 45.575 9.88C44.4017 9.88 43.4817 9.74 42.815 9.46C42.1617 9.16667 41.695 8.76 41.415 8.24C41.135 7.72 40.9683 7.1 40.915 6.38H43.575C43.6417 7.11333 43.8283 7.6 44.135 7.84C44.4417 8.08 44.9417 8.2 45.635 8.2C46.2083 8.2 46.675 8.07333 47.035 7.82C47.4083 7.55333 47.6283 7.07333 47.695 6.38H50.395ZM63.3695 13.32H59.7895V22H56.8095V13.32H53.2295V11.08H63.3695V13.32ZM68.2642 11.08V15.4C68.2642 15.6267 68.2509 15.9067 68.2242 16.24C68.2109 16.5733 68.1909 16.9133 68.1642 17.26C68.1509 17.6067 68.1309 17.9133 68.1042 18.18C68.0776 18.4467 68.0576 18.6333 68.0442 18.74L73.0842 11.08H76.6642V22H73.7842V17.64C73.7842 17.28 73.7976 16.8867 73.8242 16.46C73.8509 16.02 73.8776 15.6133 73.9042 15.24C73.9442 14.8533 73.9709 14.56 73.9842 14.36L68.9642 22H65.3842V11.08H68.2642ZM82.7588 11.08V15.28H86.9188V11.08H89.8988V22H86.9188V17.5H82.7588V22H79.7788V11.08H82.7588ZM100.561 11.08V13.32H96.0009V22H93.0209V11.08H100.561ZM111.748 22.1C110.268 22.1 109.015 21.9933 107.988 21.78V19.44H111.468C112.455 19.44 113.181 19.1333 113.648 18.52C114.128 17.9067 114.368 16.9867 114.368 15.76C113.941 15.8933 113.461 15.9867 112.928 16.04C112.395 16.08 111.761 16.1 111.028 16.1C109.615 16.1 108.608 15.8133 108.008 15.24C107.408 14.6533 107.108 13.8067 107.108 12.7V10.58C107.108 9.38 107.428 8.5 108.068 7.94C108.721 7.38 109.621 7.1 110.768 7.1H112.908C113.921 7.1 114.748 7.31333 115.388 7.74C116.028 8.15333 116.515 8.89333 116.848 9.96C117.181 11.0267 117.348 12.5067 117.348 14.4C117.348 17.1867 116.875 19.1667 115.928 20.34C114.995 21.5133 113.601 22.1 111.748 22.1ZM114.368 13.58C114.368 12.58 114.295 11.8067 114.148 11.26C114.015 10.7 113.801 10.3133 113.508 10.1C113.215 9.87333 112.821 9.76 112.328 9.76H111.428C110.975 9.76 110.635 9.87333 110.408 10.1C110.181 10.3133 110.068 10.6733 110.068 11.18V12.14C110.068 12.7 110.201 13.08 110.468 13.28C110.748 13.48 111.215 13.58 111.868 13.58H114.368ZM119.796 22.02C119.676 22.02 119.576 21.9867 119.496 21.92C119.43 21.8533 119.396 21.7533 119.396 21.62V19.58C119.396 19.3 119.53 19.16 119.796 19.16H121.516C121.81 19.16 121.956 19.3 121.956 19.58V21.62C121.956 21.8867 121.81 22.02 121.516 22.02H119.796ZM123.924 19.62L128.864 14.72C129.477 14.1333 129.917 13.6 130.184 13.12C130.464 12.64 130.604 12.1333 130.604 11.6C130.604 11.04 130.431 10.6133 130.084 10.32C129.751 10.0267 129.197 9.88 128.424 9.88H124.264V7.56C125.117 7.41333 125.904 7.3 126.624 7.22C127.357 7.12667 128.151 7.08 129.004 7.08C130.657 7.08 131.831 7.42 132.524 8.1C133.217 8.76667 133.564 9.77333 133.564 11.12C133.564 12.08 133.371 12.94 132.984 13.7C132.611 14.4467 132.011 15.22 131.184 16.02L127.864 19.32H134.024V22H123.924V19.62Z" fill="#A16646"/>
<path d="M21 30L22.1226 33.4549H25.7553L22.8164 35.5902L23.9389 39.0451L21 36.9098L18.0611 39.0451L19.1836 35.5902L16.2447 33.4549H19.8774L21 30Z" fill="#A16646"/>
<path d="M33 30L34.1226 33.4549H37.7553L34.8164 35.5902L35.9389 39.0451L33 36.9098L30.0611 39.0451L31.1836 35.5902L28.2447 33.4549H31.8774L33 30Z" fill="#A16646"/>
<path d="M45 30L46.1226 33.4549H49.7553L46.8164 35.5902L47.9389 39.0451L45 36.9098L42.0611 39.0451L43.1836 35.5902L40.2447 33.4549H43.8774L45 30Z" fill="#A16646"/>
<path d="M57 30L58.1226 33.4549H61.7553L58.8164 35.5902L59.9389 39.0451L57 36.9098L54.0611 39.0451L55.1836 35.5902L52.2447 33.4549H55.8774L57 30Z" fill="#A16646"/>
<path d="M69 30L70.1226 33.4549H73.7553L70.8164 35.5902L71.9389 39.0451L69 36.9098L66.0611 39.0451L67.1836 35.5902L64.2447 33.4549H67.8774L69 30Z" fill="#A16646"/>
<path d="M81 30L82.1226 33.4549H85.7553L82.8164 35.5902L83.9389 39.0451L81 36.9098L78.0611 39.0451L79.1836 35.5902L76.2447 33.4549H79.8774L81 30Z" fill="#A16646"/>
<path d="M93 30L94.1226 33.4549H97.7553L94.8164 35.5902L95.9389 39.0451L93 36.9098L90.0611 39.0451L91.1836 35.5902L88.2447 33.4549H91.8774L93 30Z" fill="#A16646"/>
<path d="M105 30L106.123 33.4549H109.755L106.816 35.5902L107.939 39.0451L105 36.9098L102.061 39.0451L103.184 35.5902L100.245 33.4549H103.877L105 30Z" fill="#A16646"/>
<path d="M117 30L118.123 33.4549H121.755L118.816 35.5902L119.939 39.0451L117 36.9098L114.061 39.0451L115.184 35.5902L112.245 33.4549H115.877L117 30Z" fill="#A16646"/>
<path d="M129 30L130.123 33.4549H133.755L130.816 35.5902L131.939 39.0451L129 36.9098L126.061 39.0451L127.184 35.5902L124.245 33.4549H127.877L129 30Z" fill="url(#paint0_linear)"/>
<defs>
<linearGradient id="paint0_linear" x1="124.5" y1="33.5" x2="133.5" y2="33.5" gradientUnits="userSpaceOnUse">
<stop offset="0.385317" stop-color="#A16646"/>
<stop offset="0.385417" stop-color="#DBDADA"/>
</linearGradient>
</defs>
</svg>
