<svg width="148" height="44" viewBox="0 0 148 44" fill="none" xmlns="http://www.w3.org/2000/svg">
<path d="M0 3C0 1.34315 1.34315 0 3 0H148V44H3C1.34315 44 0 42.6569 0 41V3Z" fill="#FFFBFB"/>
<path d="M23.36 7.72C25.2 7.72 26.54 8.12 27.38 8.92C28.2333 9.70667 28.66 10.7933 28.66 12.18C28.66 13.0067 28.4867 13.7867 28.14 14.52C27.7933 15.24 27.2133 15.82 26.4 16.26C25.6 16.7 24.5067 16.92 23.12 16.92H21.82V22H18.8V7.72H23.36ZM23.2 10.2H21.82V14.44H22.82C23.6733 14.44 24.3467 14.2733 24.84 13.94C25.3467 13.5933 25.6 13.04 25.6 12.28C25.6 10.8933 24.8 10.2 23.2 10.2ZM35.6186 10.88C37.1253 10.88 38.3186 11.3133 39.1986 12.18C40.0786 13.0333 40.5186 14.2533 40.5186 15.84V17.28H33.4786C33.5053 18.12 33.7519 18.78 34.2186 19.26C34.6986 19.74 35.3586 19.98 36.1986 19.98C36.9053 19.98 37.5453 19.9133 38.1186 19.78C38.6919 19.6333 39.2853 19.4133 39.8986 19.12V21.42C39.3653 21.6867 38.7986 21.88 38.1986 22C37.6119 22.1333 36.8986 22.2 36.0586 22.2C34.9653 22.2 33.9986 22 33.1586 21.6C32.3186 21.1867 31.6586 20.5667 31.1786 19.74C30.6986 18.9133 30.4586 17.8733 30.4586 16.62C30.4586 15.34 30.6719 14.28 31.0986 13.44C31.5386 12.5867 32.1453 11.9467 32.9186 11.52C33.6919 11.0933 34.5919 10.88 35.6186 10.88ZM35.6386 13C35.0653 13 34.5853 13.1867 34.1986 13.56C33.8253 13.9333 33.6053 14.5133 33.5386 15.3H37.7186C37.7053 14.6333 37.5319 14.0867 37.1986 13.66C36.8653 13.22 36.3453 13 35.6386 13ZM45.815 11.08V15.4C45.815 15.6267 45.8017 15.9067 45.775 16.24C45.7617 16.5733 45.7417 16.9133 45.715 17.26C45.7017 17.6067 45.6817 17.9133 45.655 18.18C45.6283 18.4467 45.6083 18.6333 45.595 18.74L50.635 11.08H54.215V22H51.335V17.64C51.335 17.28 51.3483 16.8867 51.375 16.46C51.4017 16.02 51.4283 15.6133 51.455 15.24C51.495 14.8533 51.5217 14.56 51.535 14.36L46.515 22H42.935V11.08H45.815ZM53.395 6.38C53.3283 7.07333 53.135 7.68667 52.815 8.22C52.495 8.74 51.995 9.14667 51.315 9.44C50.635 9.73333 49.7217 9.88 48.575 9.88C47.4017 9.88 46.4817 9.74 45.815 9.46C45.1617 9.16667 44.695 8.76 44.415 8.24C44.135 7.72 43.9683 7.1 43.915 6.38H46.575C46.6417 7.11333 46.8283 7.6 47.135 7.84C47.4417 8.08 47.9417 8.2 48.635 8.2C49.2083 8.2 49.675 8.07333 50.035 7.82C50.4083 7.55333 50.6283 7.07333 50.695 6.38H53.395ZM66.3695 13.32H62.7895V22H59.8095V13.32H56.2295V11.08H66.3695V13.32ZM71.2642 11.08V15.4C71.2642 15.6267 71.2509 15.9067 71.2242 16.24C71.2109 16.5733 71.1909 16.9133 71.1642 17.26C71.1509 17.6067 71.1309 17.9133 71.1042 18.18C71.0776 18.4467 71.0576 18.6333 71.0442 18.74L76.0842 11.08H79.6642V22H76.7842V17.64C76.7842 17.28 76.7976 16.8867 76.8242 16.46C76.8509 16.02 76.8776 15.6133 76.9042 15.24C76.9442 14.8533 76.9709 14.56 76.9842 14.36L71.9642 22H68.3842V11.08H71.2642ZM85.7588 11.08V15.28H89.9188V11.08H92.8988V22H89.9188V17.5H85.7588V22H82.7788V11.08H85.7588ZM103.561 11.08V13.32H99.0009V22H96.0209V11.08H103.561ZM114.748 22.1C113.268 22.1 112.015 21.9933 110.988 21.78V19.44H114.468C115.455 19.44 116.181 19.1333 116.648 18.52C117.128 17.9067 117.368 16.9867 117.368 15.76C116.941 15.8933 116.461 15.9867 115.928 16.04C115.395 16.08 114.761 16.1 114.028 16.1C112.615 16.1 111.608 15.8133 111.008 15.24C110.408 14.6533 110.108 13.8067 110.108 12.7V10.58C110.108 9.38 110.428 8.5 111.068 7.94C111.721 7.38 112.621 7.1 113.768 7.1H115.908C116.921 7.1 117.748 7.31333 118.388 7.74C119.028 8.15333 119.515 8.89333 119.848 9.96C120.181 11.0267 120.348 12.5067 120.348 14.4C120.348 17.1867 119.875 19.1667 118.928 20.34C117.995 21.5133 116.601 22.1 114.748 22.1ZM117.368 13.58C117.368 12.58 117.295 11.8067 117.148 11.26C117.015 10.7 116.801 10.3133 116.508 10.1C116.215 9.87333 115.821 9.76 115.328 9.76H114.428C113.975 9.76 113.635 9.87333 113.408 10.1C113.181 10.3133 113.068 10.6733 113.068 11.18V12.14C113.068 12.7 113.201 13.08 113.468 13.28C113.748 13.48 114.215 13.58 114.868 13.58H117.368ZM122.796 22.02C122.676 22.02 122.576 21.9867 122.496 21.92C122.43 21.8533 122.396 21.7533 122.396 21.62V19.58C122.396 19.3 122.53 19.16 122.796 19.16H124.516C124.81 19.16 124.956 19.3 124.956 19.58V21.62C124.956 21.8867 124.81 22.02 124.516 22.02H122.796ZM127.838 9.9L125.218 10.24V8.34L128.158 7.06H130.798V22H127.838V9.9Z" fill="#A16646"/>
<path d="M21 30L22.1226 33.4549H25.7553L22.8164 35.5902L23.9389 39.0451L21 36.9098L18.0611 39.0451L19.1836 35.5902L16.2447 33.4549H19.8774L21 30Z" fill="#A16646"/>
<path d="M33 30L34.1226 33.4549H37.7553L34.8164 35.5902L35.9389 39.0451L33 36.9098L30.0611 39.0451L31.1836 35.5902L28.2447 33.4549H31.8774L33 30Z" fill="#A16646"/>
<path d="M45 30L46.1226 33.4549H49.7553L46.8164 35.5902L47.9389 39.0451L45 36.9098L42.0611 39.0451L43.1836 35.5902L40.2447 33.4549H43.8774L45 30Z" fill="#A16646"/>
<path d="M57 30L58.1226 33.4549H61.7553L58.8164 35.5902L59.9389 39.0451L57 36.9098L54.0611 39.0451L55.1836 35.5902L52.2447 33.4549H55.8774L57 30Z" fill="#A16646"/>
<path d="M69 30L70.1226 33.4549H73.7553L70.8164 35.5902L71.9389 39.0451L69 36.9098L66.0611 39.0451L67.1836 35.5902L64.2447 33.4549H67.8774L69 30Z" fill="#A16646"/>
<path d="M81 30L82.1226 33.4549H85.7553L82.8164 35.5902L83.9389 39.0451L81 36.9098L78.0611 39.0451L79.1836 35.5902L76.2447 33.4549H79.8774L81 30Z" fill="#A16646"/>
<path d="M93 30L94.1226 33.4549H97.7553L94.8164 35.5902L95.9389 39.0451L93 36.9098L90.0611 39.0451L91.1836 35.5902L88.2447 33.4549H91.8774L93 30Z" fill="#A16646"/>
<path d="M105 30L106.123 33.4549H109.755L106.816 35.5902L107.939 39.0451L105 36.9098L102.061 39.0451L103.184 35.5902L100.245 33.4549H103.877L105 30Z" fill="#A16646"/>
<path d="M117 30L118.123 33.4549H121.755L118.816 35.5902L119.939 39.0451L117 36.9098L114.061 39.0451L115.184 35.5902L112.245 33.4549H115.877L117 30Z" fill="#A16646"/>
<path d="M129 30L130.123 33.4549H133.755L130.816 35.5902L131.939 39.0451L129 36.9098L126.061 39.0451L127.184 35.5902L124.245 33.4549H127.877L129 30Z" fill="url(#paint0_linear)"/>
<defs>
<linearGradient id="paint0_linear" x1="124.5" y1="33.5" x2="133.5" y2="33.5" gradientUnits="userSpaceOnUse">
<stop offset="0.385317" stop-color="#A16646"/>
<stop offset="0.385417" stop-color="#DBDADA"/>
</linearGradient>
</defs>
</svg>
