<svg width="148" height="44" viewBox="0 0 148 44" fill="none" xmlns="http://www.w3.org/2000/svg">
<path d="M0 3C0 1.34315 1.34315 0 3 0H148V44H3C1.34315 44 0 42.6569 0 41V3Z" fill="#FFFBFB"/>
<path d="M20.36 7.72C22.2 7.72 23.54 8.12 24.38 8.92C25.2333 9.70667 25.66 10.7933 25.66 12.18C25.66 13.0067 25.4867 13.7867 25.14 14.52C24.7933 15.24 24.2133 15.82 23.4 16.26C22.6 16.7 21.5067 16.92 20.12 16.92H18.82V22H15.8V7.72H20.36ZM20.2 10.2H18.82V14.44H19.82C20.6733 14.44 21.3467 14.2733 21.84 13.94C22.3467 13.5933 22.6 13.04 22.6 12.28C22.6 10.8933 21.8 10.2 20.2 10.2ZM32.6186 10.88C34.1253 10.88 35.3186 11.3133 36.1986 12.18C37.0786 13.0333 37.5186 14.2533 37.5186 15.84V17.28H30.4786C30.5053 18.12 30.7519 18.78 31.2186 19.26C31.6986 19.74 32.3586 19.98 33.1986 19.98C33.9053 19.98 34.5453 19.9133 35.1186 19.78C35.6919 19.6333 36.2853 19.4133 36.8986 19.12V21.42C36.3653 21.6867 35.7986 21.88 35.1986 22C34.6119 22.1333 33.8986 22.2 33.0586 22.2C31.9653 22.2 30.9986 22 30.1586 21.6C29.3186 21.1867 28.6586 20.5667 28.1786 19.74C27.6986 18.9133 27.4586 17.8733 27.4586 16.62C27.4586 15.34 27.6719 14.28 28.0986 13.44C28.5386 12.5867 29.1453 11.9467 29.9186 11.52C30.6919 11.0933 31.5919 10.88 32.6186 10.88ZM32.6386 13C32.0653 13 31.5853 13.1867 31.1986 13.56C30.8253 13.9333 30.6053 14.5133 30.5386 15.3H34.7186C34.7053 14.6333 34.5319 14.0867 34.1986 13.66C33.8653 13.22 33.3453 13 32.6386 13ZM42.815 11.08V15.4C42.815 15.6267 42.8017 15.9067 42.775 16.24C42.7617 16.5733 42.7417 16.9133 42.715 17.26C42.7017 17.6067 42.6817 17.9133 42.655 18.18C42.6283 18.4467 42.6083 18.6333 42.595 18.74L47.635 11.08H51.215V22H48.335V17.64C48.335 17.28 48.3483 16.8867 48.375 16.46C48.4017 16.02 48.4283 15.6133 48.455 15.24C48.495 14.8533 48.5217 14.56 48.535 14.36L43.515 22H39.935V11.08H42.815ZM50.395 6.38C50.3283 7.07333 50.135 7.68667 49.815 8.22C49.495 8.74 48.995 9.14667 48.315 9.44C47.635 9.73333 46.7217 9.88 45.575 9.88C44.4017 9.88 43.4817 9.74 42.815 9.46C42.1617 9.16667 41.695 8.76 41.415 8.24C41.135 7.72 40.9683 7.1 40.915 6.38H43.575C43.6417 7.11333 43.8283 7.6 44.135 7.84C44.4417 8.08 44.9417 8.2 45.635 8.2C46.2083 8.2 46.675 8.07333 47.035 7.82C47.4083 7.55333 47.6283 7.07333 47.695 6.38H50.395ZM63.3695 13.32H59.7895V22H56.8095V13.32H53.2295V11.08H63.3695V13.32ZM68.2642 11.08V15.4C68.2642 15.6267 68.2509 15.9067 68.2242 16.24C68.2109 16.5733 68.1909 16.9133 68.1642 17.26C68.1509 17.6067 68.1309 17.9133 68.1042 18.18C68.0776 18.4467 68.0576 18.6333 68.0442 18.74L73.0842 11.08H76.6642V22H73.7842V17.64C73.7842 17.28 73.7976 16.8867 73.8242 16.46C73.8509 16.02 73.8776 15.6133 73.9042 15.24C73.9442 14.8533 73.9709 14.56 73.9842 14.36L68.9642 22H65.3842V11.08H68.2642ZM82.7588 11.08V15.28H86.9188V11.08H89.8988V22H86.9188V17.5H82.7588V22H79.7788V11.08H82.7588ZM100.561 11.08V13.32H96.0009V22H93.0209V11.08H100.561ZM111.228 22.08C110.041 22.08 109.095 21.8467 108.388 21.38C107.681 20.9 107.328 20.06 107.328 18.86V16.84C107.328 16.2533 107.475 15.74 107.768 15.3C108.061 14.86 108.461 14.58 108.968 14.46C108.408 14.1933 108.041 13.8533 107.868 13.44C107.708 13.0267 107.628 12.5 107.628 11.86V10.18C107.628 9.11333 107.948 8.33333 108.588 7.84C109.228 7.33333 110.061 7.08 111.088 7.08H113.888C114.901 7.08 115.721 7.33333 116.348 7.84C116.975 8.33333 117.288 9.11333 117.288 10.18V11.86C117.288 12.3267 117.181 12.8133 116.968 13.32C116.755 13.8267 116.421 14.1267 115.968 14.22C116.568 14.3533 116.981 14.6733 117.208 15.18C117.448 15.6733 117.568 16.2067 117.568 16.78V18.86C117.568 20.06 117.241 20.9 116.588 21.38C115.948 21.8467 115.061 22.08 113.928 22.08H111.228ZM113.188 13.18C113.641 13.18 113.955 13.0667 114.128 12.84C114.301 12.6 114.388 12.26 114.388 11.82V10.88C114.388 10.3867 114.288 10.0533 114.088 9.88C113.901 9.69333 113.615 9.6 113.228 9.6H111.748C111.295 9.6 110.975 9.69333 110.788 9.88C110.601 10.0533 110.508 10.3867 110.508 10.88V11.82C110.508 12.3133 110.601 12.6667 110.788 12.88C110.975 13.08 111.288 13.18 111.728 13.18H113.188ZM113.228 19.58C113.748 19.58 114.108 19.48 114.308 19.28C114.508 19.0667 114.608 18.7467 114.608 18.32V17C114.608 16.1333 114.148 15.7 113.228 15.7H111.728C111.341 15.7 111.001 15.8133 110.708 16.04C110.428 16.2667 110.288 16.5867 110.288 17V18.32C110.288 18.76 110.408 19.08 110.648 19.28C110.901 19.48 111.268 19.58 111.748 19.58H113.228ZM120.207 22.02C120.087 22.02 119.987 21.9867 119.907 21.92C119.84 21.8533 119.807 21.7533 119.807 21.62V19.58C119.807 19.3 119.94 19.16 120.207 19.16H121.927C122.22 19.16 122.367 19.3 122.367 19.58V21.62C122.367 21.8867 122.22 22.02 121.927 22.02H120.207ZM128.854 22.1C127.841 22.1 127.014 21.8867 126.374 21.46C125.734 21.0333 125.247 20.2933 124.914 19.24C124.594 18.1733 124.434 16.6933 124.434 14.8C124.434 12.0133 124.901 10.0333 125.834 8.86C126.767 7.67333 128.161 7.08 130.014 7.08C131.481 7.08 132.741 7.18667 133.794 7.4V9.74H130.294C129.307 9.74 128.574 10.0467 128.094 10.66C127.627 11.2733 127.394 12.1933 127.394 13.42C128.194 13.1933 129.307 13.08 130.734 13.08C132.147 13.08 133.154 13.3733 133.754 13.96C134.367 14.5333 134.674 15.3733 134.674 16.48V18.6C134.674 19.8 134.347 20.6867 133.694 21.26C133.041 21.82 132.147 22.1 131.014 22.1H128.854ZM130.334 19.44C130.787 19.44 131.127 19.3333 131.354 19.12C131.594 18.8933 131.714 18.5267 131.714 18.02V17.04C131.714 16.48 131.574 16.1 131.294 15.9C131.027 15.7 130.567 15.6 129.914 15.6H127.394C127.394 16.6 127.467 17.38 127.614 17.94C127.761 18.4867 127.981 18.8733 128.274 19.1C128.567 19.3267 128.961 19.44 129.454 19.44H130.334Z" fill="#A16646"/>
<path d="M21 30L22.1226 33.4549H25.7553L22.8164 35.5902L23.9389 39.0451L21 36.9098L18.0611 39.0451L19.1836 35.5902L16.2447 33.4549H19.8774L21 30Z" fill="#A16646"/>
<path d="M33 30L34.1226 33.4549H37.7553L34.8164 35.5902L35.9389 39.0451L33 36.9098L30.0611 39.0451L31.1836 35.5902L28.2447 33.4549H31.8774L33 30Z" fill="#A16646"/>
<path d="M45 30L46.1226 33.4549H49.7553L46.8164 35.5902L47.9389 39.0451L45 36.9098L42.0611 39.0451L43.1836 35.5902L40.2447 33.4549H43.8774L45 30Z" fill="#A16646"/>
<path d="M57 30L58.1226 33.4549H61.7553L58.8164 35.5902L59.9389 39.0451L57 36.9098L54.0611 39.0451L55.1836 35.5902L52.2447 33.4549H55.8774L57 30Z" fill="#A16646"/>
<path d="M69 30L70.1226 33.4549H73.7553L70.8164 35.5902L71.9389 39.0451L69 36.9098L66.0611 39.0451L67.1836 35.5902L64.2447 33.4549H67.8774L69 30Z" fill="#A16646"/>
<path d="M81 30L82.1226 33.4549H85.7553L82.8164 35.5902L83.9389 39.0451L81 36.9098L78.0611 39.0451L79.1836 35.5902L76.2447 33.4549H79.8774L81 30Z" fill="#A16646"/>
<path d="M93 30L94.1226 33.4549H97.7553L94.8164 35.5902L95.9389 39.0451L93 36.9098L90.0611 39.0451L91.1836 35.5902L88.2447 33.4549H91.8774L93 30Z" fill="#A16646"/>
<path d="M105 30L106.123 33.4549H109.755L106.816 35.5902L107.939 39.0451L105 36.9098L102.061 39.0451L103.184 35.5902L100.245 33.4549H103.877L105 30Z" fill="#A16646"/>
<path d="M117 30L118.123 33.4549H121.755L118.816 35.5902L119.939 39.0451L117 36.9098L114.061 39.0451L115.184 35.5902L112.245 33.4549H115.877L117 30Z" fill="url(#paint0_linear)"/>
<path d="M129 30L130.123 33.4549H133.755L130.816 35.5902L131.939 39.0451L129 36.9098L126.061 39.0451L127.184 35.5902L124.245 33.4549H127.877L129 30Z" fill="url(#paint1_linear)"/>
<defs>
<linearGradient id="paint0_linear" x1="112.5" y1="33.5" x2="121.5" y2="33.5" gradientUnits="userSpaceOnUse">
<stop offset="0.635417" stop-color="#A16646"/>
<stop offset="0.635517" stop-color="#DBDADA"/>
</linearGradient>
<linearGradient id="paint1_linear" x1="124.5" y1="33.5" x2="133.5" y2="33.5" gradientUnits="userSpaceOnUse">
<stop offset="0.385317" stop-color="#DBDADA"/>
<stop offset="0.385417" stop-color="#DBDADA"/>
</linearGradient>
</defs>
</svg>
