<svg width="149" height="34" viewBox="0 0 149 34" fill="none" xmlns="http://www.w3.org/2000/svg">
<rect width="149" height="34" fill="white"/>
<path d="M16.5 6L19.0819 13.9463H27.4371L20.6776 18.8574L23.2595 26.8037L16.5 21.8926L9.74047 26.8037L12.3224 18.8574L5.56285 13.9463H13.9181L16.5 6Z" fill="#A73D61"/>
<path d="M45.5 6L48.0819 13.9463H56.4371L49.6776 18.8574L52.2595 26.8037L45.5 21.8926L38.7405 26.8037L41.3224 18.8574L34.5628 13.9463H42.9181L45.5 6Z" fill="#A73D61"/>
<path d="M74.5 6L77.0819 13.9463H85.4371L78.6776 18.8574L81.2595 26.8037L74.5 21.8926L67.7405 26.8037L70.3224 18.8574L63.5628 13.9463H71.9181L74.5 6Z" fill="#A73D61"/>
<path d="M103.5 6L106.082 13.9463H114.437L107.678 18.8574L110.26 26.8037L103.5 21.8926L96.7405 26.8037L99.3224 18.8574L92.5628 13.9463H100.918L103.5 6Z" fill="#A73D61"/>
<path d="M132.5 6L135.082 13.9463H143.437L136.678 18.8574L139.26 26.8037L132.5 21.8926L125.74 26.8037L128.322 18.8574L121.563 13.9463H129.918L132.5 6Z" fill="#A73D61"/>
</svg>
