<svg width="149" height="67" viewBox="0 0 149 67" fill="none" xmlns="http://www.w3.org/2000/svg">
<rect x="0.697815" y="0.428467" width="148.053" height="65.7925" fill="#FFFBFB"/>
<path d="M14.5913 14.814V17.9878H18.1265C18.758 17.9878 19.269 17.8706 19.6597 17.6362C20.0568 17.3953 20.2554 16.9722 20.2554 16.3667C20.2554 15.6961 19.995 15.2534 19.4741 15.0386C19.0249 14.8888 18.452 14.814 17.7554 14.814H14.5913ZM14.5913 20.3706V24.2085H18.1265C18.758 24.2085 19.2495 24.1239 19.6011 23.9546C20.2391 23.6421 20.5581 23.0431 20.5581 22.1577C20.5581 21.409 20.2489 20.8947 19.6304 20.6147C19.2853 20.4585 18.8003 20.3771 18.1753 20.3706H14.5913ZM18.7124 12.314C20.4767 12.34 21.7267 12.8511 22.4624 13.8472C22.9051 14.4591 23.1265 15.1916 23.1265 16.0444C23.1265 16.9233 22.9051 17.6297 22.4624 18.1636C22.215 18.4631 21.8504 18.7365 21.3687 18.9839C22.1043 19.2508 22.6577 19.674 23.0288 20.2534C23.4064 20.8328 23.5952 21.536 23.5952 22.3628C23.5952 23.2157 23.3804 23.9806 22.9507 24.6577C22.6772 25.1069 22.3354 25.4845 21.9253 25.7905C21.4631 26.1421 20.9162 26.383 20.2847 26.5132C19.6597 26.6434 18.9793 26.7085 18.2437 26.7085H11.7202V12.314H18.7124ZM30.6753 24.7456C31.4891 24.7456 32.1141 24.4559 32.5503 23.8765C32.9865 23.297 33.2046 22.4735 33.2046 21.4058C33.2046 20.3381 32.9865 19.5177 32.5503 18.9448C32.1141 18.3654 31.4891 18.0757 30.6753 18.0757C29.8615 18.0757 29.2332 18.3654 28.7905 18.9448C28.3543 19.5177 28.1362 20.3381 28.1362 21.4058C28.1362 22.4735 28.3543 23.297 28.7905 23.8765C29.2332 24.4559 29.8615 24.7456 30.6753 24.7456ZM36.1245 21.4058C36.1245 22.9683 35.6753 24.3062 34.7769 25.4194C33.8784 26.5262 32.5145 27.0796 30.6851 27.0796C28.8556 27.0796 27.4917 26.5262 26.5933 25.4194C25.6948 24.3062 25.2456 22.9683 25.2456 21.4058C25.2456 19.8693 25.6948 18.5379 26.5933 17.4116C27.4917 16.2853 28.8556 15.7222 30.6851 15.7222C32.5145 15.7222 33.8784 16.2853 34.7769 17.4116C35.6753 18.5379 36.1245 19.8693 36.1245 21.4058ZM42.9019 24.7456C43.7157 24.7456 44.3407 24.4559 44.7769 23.8765C45.2131 23.297 45.4312 22.4735 45.4312 21.4058C45.4312 20.3381 45.2131 19.5177 44.7769 18.9448C44.3407 18.3654 43.7157 18.0757 42.9019 18.0757C42.0881 18.0757 41.4598 18.3654 41.0171 18.9448C40.5809 19.5177 40.3628 20.3381 40.3628 21.4058C40.3628 22.4735 40.5809 23.297 41.0171 23.8765C41.4598 24.4559 42.0881 24.7456 42.9019 24.7456ZM48.3511 21.4058C48.3511 22.9683 47.9019 24.3062 47.0034 25.4194C46.105 26.5262 44.741 27.0796 42.9116 27.0796C41.0822 27.0796 39.7183 26.5262 38.8198 25.4194C37.9214 24.3062 37.4722 22.9683 37.4722 21.4058C37.4722 19.8693 37.9214 18.5379 38.8198 17.4116C39.7183 16.2853 41.0822 15.7222 42.9116 15.7222C44.741 15.7222 46.105 16.2853 47.0034 17.4116C47.9019 18.5379 48.3511 19.8693 48.3511 21.4058ZM50.3237 12.3628H53.0581V20.1167L56.5249 16.1128H59.9722L56.2515 20.1851L60.1187 26.7085H56.7593L54.2104 22.1577L53.0581 23.3589V26.7085H50.3237V12.3628ZM64.3472 14.7944H61.5249V12.2261H64.3472V14.7944ZM61.5249 16.064H64.3472V26.7085H61.5249V16.064ZM72.9507 15.8101C74.0509 15.8101 74.9494 16.0998 75.646 16.6792C76.3491 17.2521 76.7007 18.2059 76.7007 19.5405V26.7085H73.8491V20.2339C73.8491 19.674 73.7743 19.2443 73.6245 18.9448C73.3511 18.3979 72.8302 18.1245 72.062 18.1245C71.118 18.1245 70.4702 18.5249 70.1187 19.3257C69.9364 19.7489 69.8452 20.2892 69.8452 20.9468V26.7085H67.0718V16.0835H69.7573V17.6362C70.1154 17.0894 70.4539 16.6955 70.7729 16.4546C71.3459 16.0249 72.0718 15.8101 72.9507 15.8101ZM83.8491 24.4233C84.5002 24.4233 85.0503 24.1792 85.4995 23.6909C85.9487 23.1961 86.1733 22.4116 86.1733 21.3374C86.1733 20.3283 85.9585 19.5601 85.5288 19.0327C85.1056 18.5054 84.536 18.2417 83.8198 18.2417C82.8433 18.2417 82.1694 18.7007 81.7983 19.6187C81.603 20.1069 81.5054 20.7091 81.5054 21.4253C81.5054 22.0438 81.6095 22.5939 81.8179 23.0757C82.1955 23.9741 82.8726 24.4233 83.8491 24.4233ZM83.1558 15.8101C83.6896 15.8101 84.1551 15.8914 84.5522 16.0542C85.2293 16.3341 85.7762 16.8485 86.1929 17.5972V16.064H88.8979V26.1616C88.8979 27.5353 88.6668 28.5705 88.2046 29.2671C87.4103 30.465 85.8869 31.064 83.6343 31.064C82.2736 31.064 81.1636 30.797 80.3042 30.2632C79.4448 29.7293 78.9696 28.9318 78.8784 27.8706H81.9058C81.9839 28.1961 82.1108 28.4305 82.2866 28.5737C82.5861 28.8276 83.0907 28.9546 83.8003 28.9546C84.8029 28.9546 85.4735 28.6193 85.812 27.9487C86.0334 27.519 86.144 26.7964 86.144 25.7808V25.0972C85.8771 25.5529 85.5907 25.8947 85.2847 26.1226C84.7313 26.5457 84.0119 26.7573 83.1265 26.7573C81.7593 26.7573 80.6655 26.2788 79.8452 25.3218C79.0314 24.3582 78.6245 23.0562 78.6245 21.4155C78.6245 19.8335 79.0184 18.5054 79.8062 17.4312C80.5939 16.3504 81.7104 15.8101 83.1558 15.8101Z" fill="black"/>
<path d="M91.4565 23.7983H94.4155V26.7085H91.4565V23.7983ZM103.429 19.8823C103.377 19.4852 103.244 19.1271 103.029 18.8081C102.716 18.3784 102.231 18.1636 101.574 18.1636C100.636 18.1636 99.995 18.6291 99.6499 19.5601C99.4676 20.0549 99.3765 20.7124 99.3765 21.5327C99.3765 22.314 99.4676 22.9422 99.6499 23.4175C99.9819 24.3029 100.607 24.7456 101.525 24.7456C102.176 24.7456 102.638 24.5698 102.912 24.2183C103.185 23.8667 103.351 23.411 103.41 22.8511H106.251C106.186 23.6974 105.88 24.4982 105.333 25.2534C104.461 26.4709 103.169 27.0796 101.457 27.0796C99.7443 27.0796 98.4845 26.5718 97.6772 25.5562C96.87 24.5405 96.4663 23.2222 96.4663 21.6011C96.4663 19.7716 96.9123 18.3491 97.8042 17.3335C98.6961 16.3179 99.9266 15.8101 101.496 15.8101C102.83 15.8101 103.921 16.1095 104.767 16.7085C105.62 17.3075 106.125 18.3654 106.281 19.8823H103.429ZM112.98 24.7456C113.794 24.7456 114.419 24.4559 114.855 23.8765C115.291 23.297 115.509 22.4735 115.509 21.4058C115.509 20.3381 115.291 19.5177 114.855 18.9448C114.419 18.3654 113.794 18.0757 112.98 18.0757C112.166 18.0757 111.538 18.3654 111.095 18.9448C110.659 19.5177 110.441 20.3381 110.441 21.4058C110.441 22.4735 110.659 23.297 111.095 23.8765C111.538 24.4559 112.166 24.7456 112.98 24.7456ZM118.429 21.4058C118.429 22.9683 117.98 24.3062 117.082 25.4194C116.183 26.5262 114.819 27.0796 112.99 27.0796C111.16 27.0796 109.796 26.5262 108.898 25.4194C108 24.3062 107.55 22.9683 107.55 21.4058C107.55 19.8693 108 18.5379 108.898 17.4116C109.796 16.2853 111.16 15.7222 112.99 15.7222C114.819 15.7222 116.183 16.2853 117.082 17.4116C117.98 18.5379 118.429 19.8693 118.429 21.4058ZM132.326 15.8296C132.794 15.8296 133.257 15.9207 133.712 16.103C134.168 16.2853 134.582 16.6043 134.953 17.0601C135.252 17.4312 135.454 17.8869 135.558 18.4272C135.623 18.7853 135.656 19.3094 135.656 19.9995L135.636 26.7085H132.785V19.9312C132.785 19.5275 132.72 19.1955 132.589 18.9351C132.342 18.4403 131.886 18.1929 131.222 18.1929C130.454 18.1929 129.923 18.5119 129.63 19.1499C129.481 19.4884 129.406 19.8953 129.406 20.3706V26.7085H126.603V20.3706C126.603 19.7391 126.538 19.2801 126.408 18.9937C126.173 18.4793 125.714 18.2222 125.031 18.2222C124.236 18.2222 123.703 18.4793 123.429 18.9937C123.279 19.2866 123.205 19.7228 123.205 20.3022V26.7085H120.382V16.0835H123.087V17.6362C123.432 17.0828 123.758 16.689 124.064 16.4546C124.604 16.0379 125.304 15.8296 126.164 15.8296C126.977 15.8296 127.635 16.0086 128.136 16.3667C128.54 16.6987 128.846 17.1252 129.054 17.646C129.419 17.021 129.871 16.562 130.412 16.269C130.985 15.9761 131.623 15.8296 132.326 15.8296Z" fill="#31548A"/>
<path d="M21.2388 40.1094H27.7622C28.5239 40.1094 29.1847 40.2135 29.7446 40.4219C30.311 40.6302 30.7798 40.9329 31.1509 41.3301C31.522 41.7272 31.7987 42.209 31.981 42.7754C32.1632 43.3418 32.2544 43.9863 32.2544 44.709C32.2544 45.3796 32.147 45.998 31.9321 46.5645C31.7173 47.1243 31.4048 47.6094 30.9946 48.0195C30.591 48.4232 30.0962 48.7389 29.5103 48.9668C28.9243 49.1947 28.2603 49.3086 27.5181 49.3086H24.2368V54.4648H21.2388V40.1094ZM24.2368 46.8281H27.0786C27.7557 46.8281 28.2863 46.6621 28.6704 46.3301C29.061 45.998 29.2563 45.4577 29.2563 44.709C29.2563 44.3314 29.2043 44.0091 29.1001 43.7422C29.0024 43.4753 28.8592 43.2572 28.6704 43.0879C28.4881 42.9121 28.2603 42.7852 27.9868 42.707C27.7199 42.6224 27.4172 42.5801 27.0786 42.5801H24.2368V46.8281ZM36.2388 50.002C36.2388 50.0996 36.2485 50.2298 36.2681 50.3926C36.2876 50.5553 36.3267 50.7311 36.3853 50.9199C36.4438 51.1087 36.5285 51.3008 36.6392 51.4961C36.7498 51.6849 36.8963 51.8574 37.0786 52.0137C37.2674 52.1699 37.4953 52.2969 37.7622 52.3945C38.0356 52.4922 38.3612 52.541 38.7388 52.541C38.9341 52.541 39.1261 52.515 39.3149 52.4629C39.5103 52.4043 39.6893 52.3229 39.8521 52.2188C40.0148 52.1081 40.1548 51.9779 40.272 51.8281C40.3957 51.6719 40.4836 51.4961 40.5356 51.3008H43.397C43.397 51.4961 43.3547 51.7207 43.27 51.9746C43.1854 52.222 43.0552 52.4759 42.8794 52.7363C42.7101 52.9902 42.4953 53.2409 42.2349 53.4883C41.9744 53.7357 41.6652 53.957 41.3071 54.1523C40.9491 54.3411 40.5422 54.4941 40.0864 54.6113C39.6372 54.7285 39.1359 54.7871 38.5825 54.7871C37.8729 54.7871 37.2056 54.6797 36.5806 54.4648C35.9621 54.2565 35.4185 53.9245 34.9497 53.4688C34.4875 53.0065 34.1229 52.4108 33.856 51.6816C33.589 50.9525 33.4556 50.0671 33.4556 49.0254C33.4556 48.3027 33.55 47.6094 33.7388 46.9453C33.9341 46.2747 34.2336 45.6855 34.6372 45.1777C35.0474 44.6699 35.5682 44.2663 36.1997 43.9668C36.8377 43.6608 37.6027 43.5078 38.4946 43.5078C39.4386 43.5078 40.2329 43.6641 40.8774 43.9766C41.522 44.2826 42.0396 44.7188 42.4302 45.2852C42.8273 45.8516 43.1105 46.5352 43.2798 47.3359C43.4491 48.1367 43.5337 49.0254 43.5337 50.002H36.2388ZM40.6626 48.166C40.6626 47.6973 40.591 47.3066 40.4478 46.9941C40.311 46.6816 40.1353 46.4342 39.9204 46.252C39.7121 46.0632 39.481 45.9329 39.2271 45.8613C38.9731 45.7832 38.729 45.7441 38.4946 45.7441C38.2668 45.7441 38.0259 45.7832 37.772 45.8613C37.5181 45.9329 37.2837 46.0632 37.0688 46.252C36.8605 46.4342 36.6847 46.6816 36.5415 46.9941C36.4048 47.3066 36.3364 47.6973 36.3364 48.166H40.6626ZM53.5239 39.3672C53.5239 39.8815 53.4393 40.321 53.27 40.6855C53.1007 41.0501 52.8664 41.3496 52.5669 41.584C52.2739 41.8118 51.9224 41.9811 51.5122 42.0918C51.1021 42.196 50.6561 42.248 50.1743 42.248C49.686 42.248 49.2368 42.196 48.8267 42.0918C48.4165 41.9811 48.0617 41.8118 47.7622 41.584C47.4627 41.3496 47.2284 41.0501 47.0591 40.6855C46.8963 40.321 46.8149 39.8815 46.8149 39.3672H48.8169C48.8234 39.5495 48.8462 39.722 48.8853 39.8848C48.9243 40.041 48.9927 40.181 49.0903 40.3047C49.1945 40.4219 49.3312 40.5163 49.5005 40.5879C49.6763 40.653 49.9009 40.6855 50.1743 40.6855C50.4412 40.6855 50.6626 40.6595 50.8384 40.6074C51.0207 40.5488 51.1639 40.4642 51.2681 40.3535C51.3722 40.2428 51.4438 40.1061 51.4829 39.9434C51.522 39.7806 51.5382 39.5885 51.5317 39.3672H53.5239ZM45.3892 43.8203H48.1528V50.3828H48.1919L52.0688 43.8203H54.9692V54.4648H52.2153V48.0488H52.1665L48.4067 54.4648H45.3892V43.8203ZM59.9204 46.0664H56.6978V43.8203H65.897V46.0664H62.6743V54.4648H59.9204V46.0664ZM67.6157 43.8203H70.3794V50.3828H70.4185L74.2954 43.8203H77.1958V54.4648H74.4419V48.0488H74.3931L70.6333 54.4648H67.6157V43.8203ZM79.8423 43.8203H82.606V47.668H86.6685V43.8203H89.4224V54.4648H86.6685V49.9043H82.606V54.4648H79.8423V43.8203ZM92.0688 43.8203H99.2271V46.0664H94.8325V54.4648H92.0688V43.8203ZM108.622 50.3535C108.622 51.0501 108.801 51.5905 109.159 51.9746C109.523 52.3587 110.025 52.5508 110.663 52.5508C111.301 52.5508 111.799 52.3587 112.157 51.9746C112.521 51.5905 112.704 51.0501 112.704 50.3535C112.704 49.6309 112.518 49.084 112.147 48.7129C111.782 48.3353 111.288 48.1465 110.663 48.1465C110.038 48.1465 109.54 48.3353 109.168 48.7129C108.804 49.084 108.622 49.6309 108.622 50.3535ZM105.731 50.5391C105.731 49.7448 105.91 49.0254 106.268 48.3809C106.633 47.7363 107.163 47.2513 107.86 46.9258C107.176 46.4701 106.73 45.9785 106.522 45.4512C106.32 44.9173 106.219 44.4193 106.219 43.957C106.219 42.9284 106.607 42.0527 107.381 41.3301C108.156 40.6009 109.25 40.2363 110.663 40.2363C112.075 40.2363 113.169 40.6009 113.944 41.3301C114.719 42.0527 115.106 42.9284 115.106 43.957C115.106 44.4193 115.002 44.9173 114.793 45.4512C114.592 45.9785 114.149 46.4375 113.465 46.8281C114.162 47.2188 114.686 47.7363 115.038 48.3809C115.389 49.0254 115.565 49.7448 115.565 50.5391C115.565 51.7305 115.122 52.7461 114.237 53.5859C113.358 54.4193 112.127 54.8359 110.545 54.8359C108.963 54.8359 107.765 54.4193 106.952 53.5859C106.138 52.7461 105.731 51.7305 105.731 50.5391ZM108.875 44.2695C108.875 44.7839 109.032 45.2038 109.344 45.5293C109.663 45.8548 110.103 46.0176 110.663 46.0176C111.229 46.0176 111.665 45.8548 111.971 45.5293C112.284 45.2038 112.44 44.7839 112.44 44.2695C112.44 43.7096 112.284 43.2734 111.971 42.9609C111.665 42.6419 111.229 42.4824 110.663 42.4824C110.103 42.4824 109.663 42.6419 109.344 42.9609C109.032 43.2734 108.875 43.7096 108.875 44.2695ZM117.586 51.5547H120.545V54.4648H117.586V51.5547ZM132.45 42.668C132.033 43.0781 131.454 43.8105 130.711 44.8652C129.969 45.9134 129.347 46.9974 128.846 48.1172C128.449 48.9961 128.091 50.0703 127.772 51.3398C127.453 52.6094 127.293 53.651 127.293 54.4648H124.403C124.487 51.9258 125.321 49.2858 126.903 46.5449C127.925 44.8457 128.781 43.6608 129.471 42.9902H122.411L122.45 40.4902H132.45V42.668Z" fill="black"/>
</svg>
