<svg width="342" height="95" viewBox="0 0 342 95" fill="none" xmlns="http://www.w3.org/2000/svg">
<g filter="url(#filter0_d)">
<g filter="url(#filter1_d)">
<rect x="24.5" y="24" width="293" height="47" fill="#A73D61"/>
<rect x="23.5" y="23" width="295" height="49" stroke="#FFFBFB" stroke-width="2"/>
</g>
<path d="M94.2617 43.6973C94.2617 43.1569 94.0501 42.7337 93.627 42.4277C93.2038 42.1152 92.6439 41.959 91.9473 41.959C91.3223 41.959 90.8014 42.1152 90.3848 42.4277C89.9746 42.7337 89.7695 43.1341 89.7695 43.6289H86.8398C86.8398 42.8607 87.0547 42.1706 87.4844 41.5586C87.9206 40.9401 88.5358 40.4583 89.3301 40.1133C90.1309 39.7682 91.0033 39.5957 91.9473 39.5957C93.5879 39.5957 94.8737 39.9473 95.8047 40.6504C96.7357 41.3535 97.2012 42.3496 97.2012 43.6387C97.2012 44.2702 97.0091 44.8561 96.625 45.3965C96.2474 45.9368 95.707 46.3698 95.0039 46.6953C95.7852 46.9688 96.3841 47.3854 96.8008 47.9453C97.2174 48.4987 97.4258 49.1888 97.4258 50.0156C97.4258 51.2917 96.9245 52.3073 95.9219 53.0625C94.9258 53.8112 93.6009 54.1855 91.9473 54.1855C90.9121 54.1855 89.9811 54.0098 89.1543 53.6582C88.3275 53.3001 87.6992 52.8151 87.2695 52.2031C86.8464 51.5846 86.6348 50.8685 86.6348 50.0547H89.584C89.584 50.5625 89.8053 50.9889 90.248 51.334C90.6908 51.6725 91.2572 51.8418 91.9473 51.8418C92.7285 51.8418 93.3438 51.666 93.793 51.3145C94.2487 50.9629 94.4766 50.5169 94.4766 49.9766C94.4766 49.2344 94.2747 48.7038 93.8711 48.3848C93.4674 48.0592 92.8783 47.8965 92.1035 47.8965H90.3555V45.6016H92.1621C93.5618 45.582 94.2617 44.9473 94.2617 43.6973ZM107.621 51.0703H102.484L101.508 54H98.3926L103.686 39.7812H106.4L111.723 54H108.607L107.621 51.0703ZM103.275 48.6973H106.83L105.043 43.375L103.275 48.6973ZM122.328 42.1543H115.98V44.9082H118.266C119.939 44.9082 121.264 45.3151 122.24 46.1289C123.223 46.9362 123.715 48.0267 123.715 49.4004C123.715 50.7806 123.227 51.8906 122.25 52.7305C121.28 53.5638 119.988 53.987 118.373 54H113.021V39.7812H122.328V42.1543ZM115.98 47.2715V51.6465H118.314C119.063 51.6465 119.659 51.4414 120.102 51.0312C120.551 50.6211 120.775 50.071 120.775 49.3809C120.775 48.7363 120.561 48.2285 120.131 47.8574C119.708 47.4798 119.125 47.2845 118.383 47.2715H115.98ZM128.52 48.9902V54H125.59V39.7812H131.137C132.204 39.7812 133.142 39.9766 133.949 40.3672C134.763 40.7578 135.388 41.3145 135.824 42.0371C136.26 42.7533 136.479 43.5703 136.479 44.4883C136.479 45.8815 136 46.9818 135.043 47.7891C134.092 48.5898 132.774 48.9902 131.088 48.9902H128.52ZM128.52 46.6172H131.137C131.911 46.6172 132.501 46.4349 132.904 46.0703C133.314 45.7057 133.52 45.1849 133.52 44.5078C133.52 43.8112 133.314 43.248 132.904 42.8184C132.494 42.3887 131.928 42.1673 131.205 42.1543H128.52V46.6172ZM150.18 47.2129C150.18 48.6126 149.932 49.8398 149.438 50.8945C148.943 51.9492 148.233 52.763 147.309 53.3359C146.391 53.9089 145.336 54.1953 144.145 54.1953C142.966 54.1953 141.915 53.9121 140.99 53.3457C140.066 52.7793 139.35 51.972 138.842 50.9238C138.334 49.8691 138.077 48.6582 138.07 47.291V46.5879C138.07 45.1882 138.321 43.9577 138.822 42.8965C139.33 41.8288 140.043 41.0117 140.961 40.4453C141.885 39.8724 142.94 39.5859 144.125 39.5859C145.31 39.5859 146.361 39.8724 147.279 40.4453C148.204 41.0117 148.917 41.8288 149.418 42.8965C149.926 43.9577 150.18 45.1849 150.18 46.5781V47.2129ZM147.211 46.5684C147.211 45.0775 146.944 43.9447 146.41 43.1699C145.876 42.3952 145.115 42.0078 144.125 42.0078C143.142 42.0078 142.383 42.3919 141.85 43.1602C141.316 43.9219 141.046 45.0417 141.039 46.5195V47.2129C141.039 48.6647 141.306 49.791 141.84 50.5918C142.374 51.3926 143.142 51.793 144.145 51.793C145.128 51.793 145.883 51.4089 146.41 50.6406C146.938 49.8659 147.204 48.7396 147.211 47.2617V46.5684ZM163.881 54H160.951V47.9062H155.238V54H152.309V39.7812H155.238V45.543H160.951V39.7812H163.881V54ZM174.975 39.7812H177.914V54H174.975V44.5566L169.281 54H166.352V39.7812H169.281V49.2441L174.975 39.7812ZM183.383 48.9902V54H180.453V39.7812H186C187.068 39.7812 188.005 39.9766 188.812 40.3672C189.626 40.7578 190.251 41.3145 190.688 42.0371C191.124 42.7533 191.342 43.5703 191.342 44.4883C191.342 45.8815 190.863 46.9818 189.906 47.7891C188.956 48.5898 187.637 48.9902 185.951 48.9902H183.383ZM183.383 46.6172H186C186.775 46.6172 187.364 46.4349 187.768 46.0703C188.178 45.7057 188.383 45.1849 188.383 44.5078C188.383 43.8112 188.178 43.248 187.768 42.8184C187.357 42.3887 186.791 42.1673 186.068 42.1543H183.383V46.6172ZM205.043 47.2129C205.043 48.6126 204.796 49.8398 204.301 50.8945C203.806 51.9492 203.096 52.763 202.172 53.3359C201.254 53.9089 200.199 54.1953 199.008 54.1953C197.829 54.1953 196.778 53.9121 195.854 53.3457C194.929 52.7793 194.213 51.972 193.705 50.9238C193.197 49.8691 192.94 48.6582 192.934 47.291V46.5879C192.934 45.1882 193.184 43.9577 193.686 42.8965C194.193 41.8288 194.906 41.0117 195.824 40.4453C196.749 39.8724 197.803 39.5859 198.988 39.5859C200.173 39.5859 201.225 39.8724 202.143 40.4453C203.067 41.0117 203.78 41.8288 204.281 42.8965C204.789 43.9577 205.043 45.1849 205.043 46.5781V47.2129ZM202.074 46.5684C202.074 45.0775 201.807 43.9447 201.273 43.1699C200.74 42.3952 199.978 42.0078 198.988 42.0078C198.005 42.0078 197.247 42.3919 196.713 43.1602C196.179 43.9219 195.909 45.0417 195.902 46.5195V47.2129C195.902 48.6647 196.169 49.791 196.703 50.5918C197.237 51.3926 198.005 51.793 199.008 51.793C199.991 51.793 200.746 51.4089 201.273 50.6406C201.801 49.8659 202.068 48.7396 202.074 47.2617V46.5684ZM207.172 54V39.7812H212.152C213.878 39.7812 215.186 40.1133 216.078 40.7773C216.97 41.4349 217.416 42.4017 217.416 43.6777C217.416 44.3743 217.237 44.9896 216.879 45.5234C216.521 46.0508 216.023 46.4382 215.385 46.6855C216.114 46.8678 216.687 47.2357 217.104 47.7891C217.527 48.3424 217.738 49.0195 217.738 49.8203C217.738 51.1875 217.302 52.2227 216.43 52.9258C215.557 53.6289 214.314 53.987 212.699 54H207.172ZM210.102 47.8086V51.6465H212.611C213.301 51.6465 213.839 51.4837 214.223 51.1582C214.613 50.8262 214.809 50.3704 214.809 49.791C214.809 48.4889 214.135 47.8281 212.787 47.8086H210.102ZM210.102 45.7383H212.27C213.747 45.7122 214.486 45.123 214.486 43.9707C214.486 43.3262 214.298 42.8639 213.92 42.584C213.549 42.2975 212.96 42.1543 212.152 42.1543H210.102V45.7383ZM227.973 51.0703H222.836L221.859 54H218.744L224.037 39.7812H226.752L232.074 54H228.959L227.973 51.0703ZM223.627 48.6973H227.182L225.395 43.375L223.627 48.6973ZM242.934 42.1543H238.578V54H235.648V42.1543H231.352V39.7812H242.934V42.1543ZM247.699 44.9082H249.984C251.658 44.9082 252.982 45.3151 253.959 46.1289C254.942 46.9362 255.434 48.0267 255.434 49.4004C255.434 50.7806 254.945 51.8906 253.969 52.7305C252.999 53.5638 251.706 53.987 250.092 54H244.75V39.7812H247.699V44.9082ZM247.699 47.2715V51.6465H250.033C250.782 51.6465 251.378 51.4414 251.82 51.0312C252.27 50.6211 252.494 50.071 252.494 49.3809C252.494 48.7363 252.279 48.2285 251.85 47.8574C251.426 47.4798 250.844 47.2845 250.102 47.2715H247.699Z" fill="white"/>
</g>
<defs>
<filter id="filter0_d" x="22.5" y="22" width="305" height="59" filterUnits="userSpaceOnUse" color-interpolation-filters="sRGB">
<feFlood flood-opacity="0" result="BackgroundImageFix"/>
<feColorMatrix in="SourceAlpha" type="matrix" values="0 0 0 0 0 0 0 0 0 0 0 0 0 0 0 0 0 0 127 0"/>
<feOffset dx="4" dy="4"/>
<feGaussianBlur stdDeviation="2"/>
<feColorMatrix type="matrix" values="0 0 0 0 0 0 0 0 0 0 0 0 0 0 0 0 0 0 0.25 0"/>
<feBlend mode="normal" in2="BackgroundImageFix" result="effect1_dropShadow"/>
<feBlend mode="normal" in="SourceGraphic" in2="effect1_dropShadow" result="shape"/>
</filter>
<filter id="filter1_d" x="0.5" y="0" width="341" height="95" filterUnits="userSpaceOnUse" color-interpolation-filters="sRGB">
<feFlood flood-opacity="0" result="BackgroundImageFix"/>
<feColorMatrix in="SourceAlpha" type="matrix" values="0 0 0 0 0 0 0 0 0 0 0 0 0 0 0 0 0 0 127 0"/>
<feOffset/>
<feGaussianBlur stdDeviation="11"/>
<feColorMatrix type="matrix" values="0 0 0 0 0.60262 0 0 0 0 0.721834 0 0 0 0 1 0 0 0 0.25 0"/>
<feBlend mode="normal" in2="BackgroundImageFix" result="effect1_dropShadow"/>
<feBlend mode="normal" in="SourceGraphic" in2="effect1_dropShadow" result="shape"/>
</filter>
</defs>
</svg>
