<svg width="104" height="19" viewBox="0 0 104 19" fill="none" xmlns="http://www.w3.org/2000/svg">
<g filter="url(#filter0_d)">
<rect width="100" height="15" rx="6" fill="white" fill-opacity="0.65"/>
<path d="M15.21 10.7368H14.2676V4.39893H10.7617V10.7368H9.82422V3.62744H15.21V10.7368ZM18.9697 10.8345C18.2536 10.8345 17.6709 10.6001 17.2217 10.1313C16.7725 9.65934 16.5479 9.02946 16.5479 8.2417V8.07568C16.5479 7.5516 16.6471 7.08447 16.8457 6.67432C17.0475 6.2609 17.3275 5.93864 17.6855 5.70752C18.0469 5.47314 18.4375 5.35596 18.8574 5.35596C19.5443 5.35596 20.0781 5.58219 20.459 6.03467C20.8398 6.48714 21.0303 7.13493 21.0303 7.97803V8.354H17.4512C17.4642 8.87484 17.6156 9.29639 17.9053 9.61865C18.1982 9.93766 18.5693 10.0972 19.0186 10.0972C19.3376 10.0972 19.6077 10.0321 19.8291 9.90186C20.0505 9.77165 20.2441 9.59912 20.4102 9.38428L20.9619 9.81396C20.5192 10.4943 19.8551 10.8345 18.9697 10.8345ZM18.8574 6.09814C18.4928 6.09814 18.1868 6.23161 17.9395 6.49854C17.6921 6.76221 17.5391 7.1333 17.4805 7.61182H20.127V7.54346C20.1009 7.08447 19.9772 6.72965 19.7559 6.479C19.5345 6.2251 19.235 6.09814 18.8574 6.09814ZM26.543 8.15381C26.543 8.95785 26.359 9.60563 25.9912 10.0972C25.6234 10.5887 25.1253 10.8345 24.4971 10.8345C23.8558 10.8345 23.3512 10.631 22.9834 10.2241V12.7681H22.0801V5.45361H22.9053L22.9492 6.03955C23.3171 5.58382 23.8281 5.35596 24.4824 5.35596C25.1172 5.35596 25.6185 5.59521 25.9863 6.07373C26.3574 6.55225 26.543 7.21794 26.543 8.0708V8.15381ZM25.6396 8.05127C25.6396 7.45557 25.5127 6.98519 25.2588 6.64014C25.0049 6.29508 24.6566 6.12256 24.2139 6.12256C23.667 6.12256 23.2568 6.36507 22.9834 6.8501V9.37451C23.2536 9.85628 23.667 10.0972 24.2236 10.0972C24.6566 10.0972 25 9.92627 25.2539 9.58447C25.5111 9.23942 25.6396 8.72835 25.6396 8.05127ZM29.8877 10.8345C29.1715 10.8345 28.5889 10.6001 28.1396 10.1313C27.6904 9.65934 27.4658 9.02946 27.4658 8.2417V8.07568C27.4658 7.5516 27.5651 7.08447 27.7637 6.67432C27.9655 6.2609 28.2454 5.93864 28.6035 5.70752C28.9648 5.47314 29.3555 5.35596 29.7754 5.35596C30.4622 5.35596 30.9961 5.58219 31.377 6.03467C31.7578 6.48714 31.9482 7.13493 31.9482 7.97803V8.354H28.3691C28.3822 8.87484 28.5335 9.29639 28.8232 9.61865C29.1162 9.93766 29.4873 10.0972 29.9365 10.0972C30.2555 10.0972 30.5257 10.0321 30.7471 9.90186C30.9684 9.77165 31.1621 9.59912 31.3281 9.38428L31.8799 9.81396C31.4372 10.4943 30.7731 10.8345 29.8877 10.8345ZM29.7754 6.09814C29.4108 6.09814 29.1048 6.23161 28.8574 6.49854C28.61 6.76221 28.457 7.1333 28.3984 7.61182H31.0449V7.54346C31.0189 7.08447 30.8952 6.72965 30.6738 6.479C30.4525 6.2251 30.153 6.09814 29.7754 6.09814ZM35.9033 6.89893C35.9033 6.65153 35.8089 6.45622 35.6201 6.31299C35.4313 6.1665 35.1725 6.09326 34.8438 6.09326C34.5247 6.09326 34.2578 6.17627 34.043 6.34229C33.8314 6.5083 33.7256 6.70361 33.7256 6.92822H32.8271C32.8271 6.46924 33.0192 6.09326 33.4033 5.80029C33.7874 5.50732 34.2676 5.36084 34.8438 5.36084C35.4622 5.36084 35.944 5.4943 36.2891 5.76123C36.6341 6.0249 36.8066 6.40251 36.8066 6.89404C36.8066 7.13167 36.735 7.34977 36.5918 7.54834C36.4486 7.74691 36.2451 7.90479 35.9814 8.02197C36.5967 8.23031 36.9043 8.64046 36.9043 9.25244C36.9043 9.73747 36.7171 10.1216 36.3428 10.4048C35.9684 10.688 35.4688 10.8296 34.8438 10.8296C34.235 10.8296 33.7321 10.6815 33.335 10.3853C32.9411 10.0858 32.7441 9.68213 32.7441 9.17432H33.6426C33.6426 9.43148 33.7565 9.65283 33.9844 9.83838C34.2155 10.0207 34.502 10.1118 34.8438 10.1118C35.1888 10.1118 35.4671 10.0321 35.6787 9.87256C35.8903 9.71305 35.9961 9.50635 35.9961 9.25244C35.9961 8.95622 35.9066 8.74463 35.7275 8.61768C35.5518 8.48747 35.2767 8.42236 34.9023 8.42236H33.999V7.66064H34.9805C35.5957 7.64437 35.9033 7.39046 35.9033 6.89893ZM38.1592 10.7368V5.45361H40.2197C40.9229 5.45361 41.4616 5.57731 41.8359 5.82471C42.2135 6.06885 42.4023 6.42855 42.4023 6.90381C42.4023 7.14795 42.3291 7.3693 42.1826 7.56787C42.0361 7.76318 41.8197 7.91292 41.5332 8.01709C41.8522 8.09196 42.1077 8.23844 42.2998 8.45654C42.4951 8.67464 42.5928 8.93506 42.5928 9.23779C42.5928 9.72282 42.4137 10.0939 42.0557 10.3511C41.7008 10.6082 41.1979 10.7368 40.5469 10.7368H38.1592ZM39.0625 8.41748V10.0093H40.5566C40.9342 10.0093 41.2158 9.93929 41.4014 9.79932C41.5902 9.65934 41.6846 9.4624 41.6846 9.2085C41.6846 8.68115 41.2972 8.41748 40.5225 8.41748H39.0625ZM39.0625 7.69482H40.2295C41.0758 7.69482 41.499 7.44743 41.499 6.95264C41.499 6.45785 41.0986 6.20231 40.2979 6.18604H39.0625V7.69482ZM43.5498 8.04639C43.5498 7.52881 43.6507 7.06331 43.8525 6.6499C44.0576 6.23649 44.3408 5.91748 44.7021 5.69287C45.0667 5.46826 45.4818 5.35596 45.9473 5.35596C46.6667 5.35596 47.2477 5.60498 47.6904 6.10303C48.1364 6.60107 48.3594 7.26351 48.3594 8.09033V8.15381C48.3594 8.66813 48.2601 9.13037 48.0615 9.54053C47.8662 9.94743 47.5846 10.2648 47.2168 10.4927C46.8522 10.7205 46.4323 10.8345 45.957 10.8345C45.2409 10.8345 44.6598 10.5854 44.2139 10.0874C43.7712 9.58936 43.5498 8.93018 43.5498 8.10986V8.04639ZM44.458 8.15381C44.458 8.73975 44.5931 9.21012 44.8633 9.56494C45.1367 9.91976 45.5013 10.0972 45.957 10.0972C46.416 10.0972 46.7806 9.91813 47.0508 9.56006C47.321 9.19873 47.4561 8.69417 47.4561 8.04639C47.4561 7.46696 47.3177 6.99821 47.041 6.64014C46.7676 6.27881 46.403 6.09814 45.9473 6.09814C45.5013 6.09814 45.1416 6.27555 44.8682 6.63037C44.5947 6.98519 44.458 7.493 44.458 8.15381ZM53.8086 10.7368H52.9053V8.48096H50.4785V10.7368H49.5703V5.45361H50.4785V7.74365H52.9053V5.45361H53.8086V10.7368ZM58.6816 5.45361H59.585V10.7368H58.6816V6.88428L56.2451 10.7368H55.3418V5.45361H56.2451V9.31104L58.6816 5.45361ZM64.9609 6.18604H63.1885V10.7368H62.2852V6.18604H60.5469V5.45361H64.9609V6.18604ZM67.6416 10.8345C66.9255 10.8345 66.3428 10.6001 65.8936 10.1313C65.4443 9.65934 65.2197 9.02946 65.2197 8.2417V8.07568C65.2197 7.5516 65.319 7.08447 65.5176 6.67432C65.7194 6.2609 65.9993 5.93864 66.3574 5.70752C66.7188 5.47314 67.1094 5.35596 67.5293 5.35596C68.2161 5.35596 68.75 5.58219 69.1309 6.03467C69.5117 6.48714 69.7021 7.13493 69.7021 7.97803V8.354H66.123C66.1361 8.87484 66.2874 9.29639 66.5771 9.61865C66.8701 9.93766 67.2412 10.0972 67.6904 10.0972C68.0094 10.0972 68.2796 10.0321 68.501 9.90186C68.7223 9.77165 68.916 9.59912 69.082 9.38428L69.6338 9.81396C69.1911 10.4943 68.527 10.8345 67.6416 10.8345ZM67.5293 6.09814C67.1647 6.09814 66.8587 6.23161 66.6113 6.49854C66.3639 6.76221 66.2109 7.1333 66.1523 7.61182H68.7988V7.54346C68.7728 7.08447 68.6491 6.72965 68.4277 6.479C68.2064 6.2251 67.9069 6.09814 67.5293 6.09814ZM76.2744 9.54053L78.0713 5.45361H79.1992V10.7368H78.2959V6.89404L76.5869 10.7368H75.9619L74.2188 6.81104V10.7368H73.3154V5.45361H74.4873L76.2744 9.54053ZM84.9707 10.7368H84.0674V8.48096H81.6406V10.7368H80.7324V5.45361H81.6406V7.74365H84.0674V5.45361H84.9707V10.7368ZM88.6182 10.8345C87.902 10.8345 87.3193 10.6001 86.8701 10.1313C86.4209 9.65934 86.1963 9.02946 86.1963 8.2417V8.07568C86.1963 7.5516 86.2956 7.08447 86.4941 6.67432C86.696 6.2609 86.9759 5.93864 87.334 5.70752C87.6953 5.47314 88.0859 5.35596 88.5059 5.35596C89.1927 5.35596 89.7266 5.58219 90.1074 6.03467C90.4883 6.48714 90.6787 7.13493 90.6787 7.97803V8.354H87.0996C87.1126 8.87484 87.264 9.29639 87.5537 9.61865C87.8467 9.93766 88.2178 10.0972 88.667 10.0972C88.986 10.0972 89.2562 10.0321 89.4775 9.90186C89.6989 9.77165 89.8926 9.59912 90.0586 9.38428L90.6104 9.81396C90.1676 10.4943 89.5036 10.8345 88.6182 10.8345ZM88.5059 6.09814C88.1413 6.09814 87.8353 6.23161 87.5879 6.49854C87.3405 6.76221 87.1875 7.1333 87.1289 7.61182H89.7754V7.54346C89.7493 7.08447 89.6257 6.72965 89.4043 6.479C89.1829 6.2251 88.8835 6.09814 88.5059 6.09814Z" fill="black"/>
</g>
<defs>
<filter id="filter0_d" x="0" y="0" width="104" height="19" filterUnits="userSpaceOnUse" color-interpolation-filters="sRGB">
<feFlood flood-opacity="0" result="BackgroundImageFix"/>
<feColorMatrix in="SourceAlpha" type="matrix" values="0 0 0 0 0 0 0 0 0 0 0 0 0 0 0 0 0 0 127 0"/>
<feOffset dx="2" dy="2"/>
<feGaussianBlur stdDeviation="1"/>
<feColorMatrix type="matrix" values="0 0 0 0 0.180392 0 0 0 0 0.117647 0 0 0 0 0.117647 0 0 0 0.12 0"/>
<feBlend mode="normal" in2="BackgroundImageFix" result="effect1_dropShadow"/>
<feBlend mode="normal" in="SourceGraphic" in2="effect1_dropShadow" result="shape"/>
</filter>
</defs>
</svg>
