<svg width="82" height="55" viewBox="0 0 82 55" fill="none" xmlns="http://www.w3.org/2000/svg">
<rect x="0.534363" width="81" height="54.806" fill="#A16646"/>
<g filter="url(#filter0_d)">
<path d="M26.6094 22.64L21.6494 22.96V18.56L27.4094 16.08H33.5294V46H26.6094V22.64ZM45.4884 46.2C42.8751 46.2 40.8884 45.52 39.5284 44.16C38.1951 42.8 37.5284 40.8533 37.5284 38.32V24.32C37.5284 21.68 38.2218 19.6533 39.6084 18.24C40.9951 16.8 42.9684 16.08 45.5284 16.08H51.8484C54.3551 16.08 56.2618 16.8 57.5684 18.24C58.8751 19.6533 59.5284 21.68 59.5284 24.32V38.32C59.5284 40.8 58.8484 42.7333 57.4884 44.12C56.1551 45.5067 54.2618 46.2 51.8084 46.2H45.4884ZM49.9284 40C50.8351 40 51.5018 39.7867 51.9284 39.36C52.3818 38.9067 52.6084 38.2133 52.6084 37.28V25.04C52.6084 24.0267 52.3951 23.32 51.9684 22.92C51.5684 22.4933 50.9818 22.28 50.2084 22.28H46.9284C45.2751 22.28 44.4484 23.2 44.4484 25.04V37.24C44.4484 38.2 44.6751 38.9067 45.1284 39.36C45.5818 39.7867 46.2618 40 47.1684 40H49.9284Z" fill="white"/>
</g>
<defs>
<filter id="filter0_d" x="21.6494" y="12.08" width="45.8791" height="38.12" filterUnits="userSpaceOnUse" color-interpolation-filters="sRGB">
<feFlood flood-opacity="0" result="BackgroundImageFix"/>
<feColorMatrix in="SourceAlpha" type="matrix" values="0 0 0 0 0 0 0 0 0 0 0 0 0 0 0 0 0 0 127 0"/>
<feOffset dx="4"/>
<feGaussianBlur stdDeviation="2"/>
<feColorMatrix type="matrix" values="0 0 0 0 0 0 0 0 0 0 0 0 0 0 0 0 0 0 0.25 0"/>
<feBlend mode="normal" in2="BackgroundImageFix" result="effect1_dropShadow"/>
<feBlend mode="normal" in="SourceGraphic" in2="effect1_dropShadow" result="shape"/>
</filter>
</defs>
</svg>
